<svg xmlns="http://www.w3.org/2000/svg" width="1440" height="480"><g stroke-linecap="round" stroke="red" stroke-width="3.75"><path d="M2.5 192.62v84.76m5-224.53v364.3m5-250.34v136.38m5-169.17v201.96m5-158.1v114.24m5-167.11v219.98m5-141.66v63.34m5-183.13v302.92m5-324.99v347.05m5-331.01v314.98m5-388.61v462.24m5-421.81v381.38m5-359.39v337.4m5-260.97v184.54m5-124.36v64.18m5-99.35v134.52m5-210.45v286.38m5-304.7v323.02m5-392.88v462.75m5-352.63v242.5m5-216.67v190.84m5-231.63v272.42m5-193.49v114.56m5-155.29v196.02m5-158.16v120.29m5-256.8v393.32m5-349.13v304.95m5-200.16v95.36m5-129.15v162.95m5-294.26v425.56m5-310v194.44m5-198.25v202.06m5-150.73v99.4m5-207.45v315.5m5-313.55v311.6m5-271.27v230.95m5-266.11v301.26m5-210.6v119.94m5-187.03v254.12m5-265.09v276.06m5-232.5v188.94m5-325.16v461.38m5-324.51v187.64m5-259.76v331.88m5-256.49v181.1m5-303.42v425.74m5-411.34v396.94m5-406.19v415.45m5-304.73v194m5-207.06v220.12m5-204.55v188.98m5-289.73v390.48m5-271.91v153.34m5-107.17v61m5-90.05v119.1m5-127.61v136.12m5-210.82v285.52m5-229.94v174.36m5-190.4v206.44m5-142.09v77.74m5-243.21v408.69m5-413.69v418.69m5-335.48v252.26m5-319.74v387.22m5-225.11v63m5-217.74v372.48m5-317.82v263.16m5-186.62v110.08m5-188.28v266.48m5-320.56v374.64m5-294.97v215.3m5-296.31v377.31m5-287.78v198.26m5-298.94v399.62m5-290.09v180.56m5-208.33v236.1m5-283.79v331.48m5-351.79v372.1m5-249.25v126.4m5-177.84v229.28m5-303.52v377.76m5-283.22v188.68m5-178.6v168.52m5-222.51v276.5m5-268.07v259.64m5-331.49v403.34m5-433.14v462.95m5-324.52v186.08m5-140.35v94.62m5-168.95v243.28m5-273.22v303.16m5-251.71v200.26m5-241.67v283.08m5-242.54v202m5-130.8v59.6m5-249.49v439.38m5-428.37v417.36m5-345.87v274.38m5-174.31v74.25m5-242.05v409.84m5-260.51V290.6m5-131.5v151.8m5-289.93v428.06m5-445.92v463.78m5-378.29v292.8m5-187.58v82.36m5-106.55v130.75m5-115.12v99.48m5-252.53v405.58m5-291.63v177.68m5-260.96v344.24m5-371.71V434.6m5-412.51v425.82m5-345.87v265.92m5-223.19v180.46m5-287.97v395.48m5-394.43v393.38m5-347.19v301m5-191.5v82m5-201.24v320.48m5-266.68v212.88m5-189.01v165.14m5-125.91v86.69m5-261.19v435.68m5-352.65v269.62m5-298.65v327.68m5-333.42v339.16m5-243.91v148.66m5-234.31v319.96m5-334.98v350m5-281.69v213.38m5-198.72v184.05m5-288.37v392.7m5-355.6v318.5m5-286.53v254.56m5-193.53v132.5m5-103.97v75.45m5-158.9v242.35m5-229.82v217.27m5-283.8v350.34m5-223.92v97.5m5-136.77v176.04m5-113.84v51.64m5-200.31v348.98m5-320.87v292.76m5-266.96v241.15m5-264.08v287.02m5-333.51v380m5-350.24v320.48m5-381.97v443.46m5-361.91v280.36m5-215.59V310.4m5-185.39v219.98m5-184.53v149.08m5-283.17v417.26m5-279.31v141.36m5-161.05v180.75m5-186.93v193.1m5-275.9v358.71m5-350.55v342.38m5-348.06v353.74m5-382.08v410.42m5-428.77v447.12m5-378.35v309.58m5-195.51v81.45m5-230.53v379.6m5-257.63v135.66m5-207.55v279.44m5-222.22v165m5-164v163m5-212.72v262.44m5-331.84v401.25m5-338.13v275m5-284.97v294.95m5-226.2v157.45m5-298.26v439.06m5-304.95v170.84m5-218.15v265.46m5-271.33v277.2m5-248.6v220m5-302.85v385.7m5-228.88v72.06m5-210.53v349m5-381.37v413.75m5-347.34v280.92m5-247.39v213.86m5-135.01v56.16m5-155.08v254m5-349.36v444.72m5-437.26v429.79m5-373.35v316.92m5-210.55v104.18m5-261.87v419.56m5-334.68v249.8m5-261.51v273.22m5-245.9v218.58m5-228.04v237.5m5-318.59v399.68m5-351.13v302.58m5-227.16v151.74m5-199.51v247.27m5-265.41v283.56m5-334.21v384.86m5-279.5v174.14m5-224.84v275.54m5-308.44v341.34m5-263.58V327.9m5-158.87v131.94m5-231.37v330.8m5-241.13v151.46m5-102.89v54.32m5-197.44v340.55m5-348.81v357.08m5-211.12v65.16m5-124.71v184.26m5-140.7v97.14m5-225.86v354.58m5-382.12v409.66m5-258.39v107.12m5-228.12v349.12m5-308.91v268.7m5-359.61v450.52m5-389.7v328.88m5-252.07v175.26m5-154.18v133.1m5-179.47v225.84m5-164.69v103.54m5-171.68V354.9m5-281.39v322.98m5-203.95v84.92m5-186.1v287.28m5-235.76v184.24m5-192.34v200.45m5-251.89v303.32m5-351v398.69m5-371.35v344m5-348.8v353.6m5-331.42v309.24m5-363.72v418.21m5-422.99v427.76m5-284.09v140.42m5-125.24v110.06m5-194.34v278.62m5-308.28v337.94m5-252.8v167.66m5-116.15v64.64m5-226.04v387.45m5-219.25v51.04m5-58.8v66.56m5-156.67v246.78m5-351.8V463.4m5-420.72v384.64m5-293.31v201.98m5-130.59v59.21m5-181.55v303.88m5-181.86v59.84m5-163.88v267.92m5-348.37v428.82m5-386.17v343.52m5-400.7v457.88m5-400.44v343m5-250.67v158.34m5-231.09v303.84m5-213.99v124.14m5-238.77v353.4m5-319.37v285.34m5-256.09v226.84m5-312.14v397.45m5-326.7v255.94m5-332.58v409.22m5-343.51v277.79m5-219.15v160.52m5-249.88v339.24m5-263.48v187.72m5-117.39v47.07m5-186.48v325.88m5-346.94v368m5-335.5v303m5-340.62v378.24m5-254.48v130.72m5-175.89v221.05m5-229.41v237.77m5-255.75v273.74m5-257.18v240.62m5-174.76v108.9m5-234.42v359.94m5-371.29v382.64m5-367.71v352.78"/></g></svg>