<svg xmlns="http://www.w3.org/2000/svg" viewBox="0 0 381 26.458"><g transform="translate(306.16 -277.75)"><g transform="matrix(.26458 0 0 .082604 -306.16 277.75)"><path d="m1440 0v300c-346.52 60.675-532.21-33.756-846-36-198.15 0.93355-408.52 17.299-594 36v-300z" opacity=".25"/><path d="m1440 192.04c-19.205 3.2063-40.728 6.3682-60.023 9.3254-105.26 16.131-211.43 26.172-293.26 29.043-187.56 14.719-360.81-66.956-538.56-59.054-104.08 5.9461-193.4 47.476-282.3 57.118-88.9 9.6423-168.81-45.442-265.85-36.432v-192.04h1440z" stroke-width="1.15" opacity=".5"/><path d="m1440 0v100c-93.2-19.1-154.22 26.487-225.14 22.76-72.168-3.7919-120.56-33.743-198.86-48.76-151.33-29.021-268.78 59.337-371 55-74.114-4.4-184.15-44.762-261-50s-120.53 24.646-179 34-205-13-205-13v-100z"/></g></g></svg>
