<svg xmlns="http://www.w3.org/2000/svg" width="1440" height="480"><g stroke-linecap="round" stroke="red" stroke-width="3.75"><path d="M2.5 192.62v84.76M7.5 52.85v364.3M12.5 166.81v136.38M17.5 134.02v201.96M22.5 177.88v114.24M27.5 125.01v219.98M32.5 203.33v63.34M37.5 83.54v302.92M42.5 61.47v347.05M47.5 77.51v314.98M52.5 3.88v462.24M57.5 44.31v381.38M62.5 66.3v337.4M67.5 142.73v184.54M72.5 202.91v64.18M77.5 167.74v134.52M82.5 91.81v286.38M87.5 73.49v323.02M92.5 3.63v462.75M97.5 113.75v242.5M102.5 139.58v190.84M107.5 98.79v272.42M112.5 177.72v114.56M117.5 136.99v196.02M122.5 174.85v120.29M127.5 38.34v393.32M132.5 82.53v304.95M137.5 187.32v95.36M142.5 153.53v162.95M147.5 22.22v425.56M152.5 137.78v194.44M157.5 133.97v202.06M162.5 185.3v99.4M167.5 77.25v315.5M172.5 79.2v311.6M177.5 119.53v230.95M182.5 84.37v301.26M187.5 175.03v119.94M192.5 107.94v254.12M197.5 96.97v276.06M202.5 140.53v188.94M207.5 4.31v461.38M212.5 141.18v187.64M217.5 69.06v331.88M222.5 144.45v181.1M227.5 22.13v425.74M232.5 36.53v396.94M237.5 27.28v415.45M242.5 138v194M247.5 124.94v220.12M252.5 140.51v188.98M257.5 39.76v390.48M262.5 158.33v153.34M267.5 204.5v61M272.5 175.45v119.1M277.5 166.94v136.12M282.5 92.24v285.52M287.5 147.82v174.36M292.5 131.78v206.44M297.5 196.13v77.74M302.5 30.66v408.69M307.5 25.66v418.69M312.5 108.87v252.26M317.5 41.39v387.22M322.5 203.5v63M327.5 48.76v372.48M332.5 103.42v263.16M337.5 179.96v110.08M342.5 101.76v266.48M347.5 47.68v374.64M352.5 127.35v215.3M357.5 46.34v377.31M362.5 135.87v198.26M367.5 35.19v399.62M372.5 144.72v180.56M377.5 116.95v236.1M382.5 69.26v331.48M387.5 48.95v372.1M392.5 171.8v126.4M397.5 120.36v229.28M402.5 46.12v377.76M407.5 140.66v188.68M412.5 150.74v168.52M417.5 96.75v276.5M422.5 105.18v259.64M427.5 33.33v403.34M432.5 3.53v462.95M437.5 141.96v186.08M442.5 187.69v94.62M447.5 113.36v243.28M452.5 83.42v303.16M457.5 134.87v200.26M462.5 93.46v283.08M467.5 134v202M472.5 205.2v59.6M477.5 15.31v439.38M482.5 26.32v417.36M487.5 97.81v274.38M492.5 197.88v74.25M497.5 30.08v409.84M502.5 179.41V290.6M507.5 159.1v151.8M512.5 20.97v428.06M517.5 3.11v463.78M522.5 88.6v292.8M527.5 193.82v82.36M532.5 169.63v130.75M537.5 185.26v99.48M542.5 32.21v405.58M547.5 146.16v177.68M552.5 62.88v344.24M557.5 35.41V434.6M562.5 22.09v425.82M567.5 102.04v265.92M572.5 144.77v180.46M577.5 37.26v395.48M582.5 38.31v393.38M587.5 84.5v301M592.5 194v82M597.5 74.76v320.48M602.5 128.56v212.88M607.5 152.43v165.14M612.5 191.66v86.69M617.5 17.16v435.68M622.5 100.19v269.62M627.5 71.16v327.68M632.5 65.42v339.16M637.5 160.67v148.66M642.5 75.02v319.96M647.5 60v350M652.5 128.31v213.38M657.5 142.97v184.05M662.5 38.65v392.7M667.5 75.75v318.5M672.5 107.72v254.56M677.5 168.75v132.5M682.5 197.28v75.45M687.5 113.83v242.35M692.5 126.36v217.27M697.5 59.83v350.34M702.5 186.25v97.5M707.5 146.98v176.04M712.5 209.18v51.64M717.5 60.51v348.98M722.5 88.62v292.76M727.5 114.42v241.15M732.5 91.49v287.02M737.5 45v380M742.5 74.76v320.48M747.5 13.27v443.46M752.5 94.82v280.36M757.5 159.59V310.4M762.5 125.01v219.98M767.5 160.46v149.08M772.5 26.37v417.26M777.5 164.32v141.36M782.5 144.63v180.75M787.5 138.45v193.1M792.5 55.65v358.71M797.5 63.81v342.38M802.5 58.13v353.74M807.5 29.79v410.42M812.5 11.44v447.12M817.5 80.21v309.58M822.5 194.28v81.45M827.5 45.2v379.6M832.5 167.17v135.66M837.5 95.28v279.44M842.5 152.5v165M847.5 153.5v163M852.5 103.78v262.44M857.5 34.38v401.25M862.5 97.5v275M867.5 87.53v294.95M872.5 156.28v157.45M877.5 15.47v439.06M882.5 149.58v170.84M887.5 102.27v265.46M892.5 96.4v277.2M897.5 125v220M902.5 42.15v385.7M907.5 198.97v72.06M912.5 60.5v349M917.5 28.13v413.75M922.5 94.54v280.92M927.5 128.07v213.86M932.5 206.92v56.16M937.5 108v254M942.5 12.64v444.72M947.5 20.1v429.79M952.5 76.54v316.92M957.5 182.91v104.18M962.5 25.22v419.56M967.5 110.1v249.8M972.5 98.39v273.22M977.5 125.71v218.58M982.5 116.25v237.5M987.5 35.16v399.68M992.5 83.71v302.58M997.5 159.13v151.74M1002.5 111.36v247.27M1007.5 93.22v283.56M1012.5 42.57v384.86M1017.5 147.93v174.14M1022.5 97.23v275.54M1027.5 64.33v341.34M1032.5 142.09V327.9M1037.5 169.03v131.94M1042.5 69.6v330.8M1047.5 159.27v151.46M1052.5 207.84v54.32M1057.5 64.72v340.55M1062.5 56.46v357.08M1067.5 202.42v65.16M1072.5 142.87v184.26M1077.5 186.43v97.14M1082.5 57.71v354.58M1087.5 30.17v409.66M1092.5 181.44v107.12M1097.5 60.44v349.12M1102.5 100.65v268.7M1107.5 9.74v450.52M1112.5 70.56v328.88M1117.5 147.37v175.26M1122.5 168.45v133.1M1127.5 122.08v225.84M1132.5 183.23v103.54M1137.5 115.09V354.9M1142.5 73.51v322.98M1147.5 192.54v84.92M1152.5 91.36v287.28M1157.5 142.88v184.24M1162.5 134.78v200.45M1167.5 83.34v303.32M1172.5 35.66v398.69M1177.5 63v344M1182.5 58.2v353.6M1187.5 80.38v309.24M1192.5 25.9v418.21M1197.5 21.12v427.76M1202.5 164.79v140.42M1207.5 179.97v110.06M1212.5 95.69v278.62M1217.5 66.03v337.94M1222.5 151.17v167.66M1227.5 202.68v64.64M1232.5 41.28v387.45M1237.5 209.48v51.04M1242.5 201.72v66.56M1247.5 111.61v246.78M1252.5 6.59V463.4M1257.5 42.68v384.64M1262.5 134.01v201.98M1267.5 205.4v59.21M1272.5 83.06v303.88M1277.5 205.08v59.84M1282.5 101.04v267.92M1287.5 20.59v428.82M1292.5 63.24v343.52M1297.5 6.06v457.88M1302.5 63.5v343M1307.5 155.83v158.34M1312.5 83.08v303.84M1317.5 172.93v124.14M1322.5 58.3v353.4M1327.5 92.33v285.34M1332.5 121.58v226.84M1337.5 36.28v397.45M1342.5 107.03v255.94M1347.5 30.39v409.22M1352.5 96.1v277.79M1357.5 154.74v160.52M1362.5 65.38v339.24M1367.5 141.14v187.72M1372.5 211.47v47.07M1377.5 72.06v325.88M1382.5 51v368M1387.5 83.5v303M1392.5 45.88v378.24M1397.5 169.64v130.72M1402.5 124.47v221.05M1407.5 116.11v237.77M1412.5 98.13v273.74M1417.5 114.69v240.62M1422.5 180.55v108.9M1427.5 55.03v359.94M1432.5 43.68v382.64M1437.5 58.61v352.78"/></g></svg>