<svg xmlns="http://www.w3.org/2000/svg" viewBox="0 0 52.917 52.917"><defs><linearGradient id="1" x1="-56.182" x2="-3.2653" y1="83.877" y2="30.96" gradientTransform="matrix(.99713 0 0 1 155 110.21)" gradientUnits="userSpaceOnUse"><stop offset="0" stop-color="red"/><stop offset="1"/></linearGradient></defs><path fill="url(#1)" d="M151.75 167.43c.0189 2.4572-.32958 4.9384-1.0566 6.4064-.23094.46624-.54366.91359-.69507.99414-.97921.52101-1.895-1.1685-2.3436-4.3223-.48053-3.3794.00026-7.6831 1.0593-9.4799.61218-1.0385 1.26-.99002 1.8782.1406.74964 1.3708 1.1381 3.8038 1.1578 6.2612zm-4.441 14.908c0 .17802-2.0632 2.7436-2.9804 3.7061-1.6952 1.7788-2.4959 2.0672-3.6753 1.3236-2.4116-1.5205-4.2702-7.5123-4.9157-15.849-.12812-1.6556.0439-8.8499.25475-10.643.7911-6.7341 2.5693-11.701 4.661-13.02 1.1791-.74336 1.9808-.45536 3.6712 1.3199.99369 1.0436 2.9846 3.5189 2.9846 3.7108 0 .0389-.15156.0416-.33638.008-2.889-.54906-5.0813 5.8009-5.0813 14.719 0 8.6204 2.063 14.948 4.8023 14.732.33903-.0265.61566-.0302.61566-.004zm-12.332 10.003c0 .27931-5.46 1.7457-6.4857 1.7419-.67575-.002-1.6966-.60492-2.4764-1.4614-2.5703-2.8237-4.6073-9.8991-5.2608-18.274-.33147-4.7403-.37943-9.5665.0522-14.297 1.0769-10.476 3.6564-17.478 6.8913-18.706.57366-.2177.74899-.22564 1.6876-.0752 1.7969.288 5.5923 1.3896 5.5923 1.623 0 .0427-.20259.15042-.45.23962-1.0529.37852-2.4121 1.9794-3.2958 3.8809-1.4908 3.2078-2.5785 7.9503-3.1947 13.93-.23206 2.252-.23206 11.086 0 13.338.61622 5.9804 1.7039 10.723 3.1947 13.93.88363 1.9013 2.2429 3.5022 3.2958 3.8809.24756.0888.45.20145.45.24983zm-15.923 1.3756-.4743-.10092c-.97426-.20674-3.6949-1.1515-4.8031-1.6678-.76411-.35603-1.3538-.74616-1.7665-1.1683-2.5664-2.6253-4.514-9.6984-5.1364-18.655-.12624-1.815.0431-10.134.2434-11.991.80997-7.4911 2.6441-13.392 4.8719-15.67.66135-.67654 1.2904-1.0252 3.1862-1.7662.99452-.38869 3.5065-1.1533 3.7947-1.1552.0265-.00019-.20031.27062-.50763.60205-3.4633 3.7353-5.7056 13.744-5.7056 25.467 0 11.748 2.2414 21.73 5.7223 25.485zm-14.868-43.087c.0302.0302-.099.43782-.28763.90622-3.1877 7.9216-3.1877 24.23 0 32.151.1886.46844.31673.87728.28498.90887-.0888.0884-1.8863-2.4377-2.5944-3.6465-2.8897-6.3671-3.2346-12.944-2.2727-19.576.51565-3.2957 1.158-5.226 2.4615-7.3951.77538-1.2904 2.3186-3.437 2.4076-3.3487z" transform="translate(-98.833 -141.17)"/></svg>