<svg xmlns="http://www.w3.org/2000/svg" viewBox="0 0 14.001 14.001"><path fill="#D00000" d="M14.004 6.95c.005.65014-.0872 1.3066-.27956 1.695-.0611.12336-.14384.24172-.1839.26303-.25908.13785-.50139-.30916-.62008-1.1436-.12714-.89413.00007-2.0328.28027-2.5082.16198-.27477.33338-.26194.49694.0372.19835.36269.30113 1.0064.30634 1.6566zm-1.175 3.9444c0 .0471-.54589.72591-.78857.98057-.44852.47064-.66037.54695-.97242.3502-.63807-.40229-1.1298-1.9876-1.3006-4.1934-.0339-.43804.0116-2.3415.0674-2.816.20931-1.7817.67979-3.0959 1.2332-3.4449.31197-.19668.52409-.12048.97134.34922.26291.27612.78968.93104.78968.98182 0 .0103-.0401.011-.089.002-.76439-.14527-1.3444 1.5348-1.3444 3.8944 0 2.2808.54583 3.955 1.2706 3.8978.0897-.007.16289-.008.16289-.001zM9.5662 13.541c0 .0739-1.4446.46188-1.716.46087-.1788-.00052-.4489-.16005-.65522-.38666-.68006-.7471-1.219-2.6191-1.3919-4.835-.0877-1.2542-.10039-2.5311.0138-3.7828.28493-2.7718.96743-4.6244 1.8233-4.9493.15178-.0576.19817-.0597.44651-.0199.47543.0762 1.4796.36766 1.4796.42942 0 .0113-.0536.0398-.11907.0634-.27858.10015-.6382.52372-.87201 1.0268-.39444.84873-.68223 2.1035-.84526 3.6856-.0614.59584-.0614 2.9332 0 3.529.16304 1.5823.45082 2.8371.84526 3.6856.23379.50305.59343.92662.87201 1.0268.0655.0235.11907.0533.11907.0661zm-4.213.36396-.12549-.0267c-.25777-.0547-.97761-.30467-1.2708-.44128-.20217-.0942-.35819-.19742-.46738-.30911-.67903-.69461-1.1943-2.566-1.359-4.9358-.0334-.48022.0114-2.6813.0644-3.1726.2143-1.982.69958-3.5433 1.289-4.146.17499-.179.34142-.27125.84302-.46731.26313-.10284.92776-.30514 1.004-.30564.007-.00005-.053.0716-.13431.15929-.91633.9883-1.5096 3.6364-1.5096 6.7381 0 3.1083.59303 5.7494 1.514 6.7429zm-3.9338-11.4c.008.008-.0262.11584-.0761.23977-.84341 2.0959-.84341 6.4108 0 8.5066.0499.12394.0838.23211.0754.24047-.0235.0234-.49909-.64498-.68644-.96481-.76456-1.6846-.85582-3.4248-.60132-5.1795.13644-.87199.30639-1.3827.65128-1.9566.20515-.34142.61346-.90937.63701-.88601z"/></svg>