<svg xmlns="http://www.w3.org/2000/svg" viewBox="0 0 9.525 9.525"><path fill="#303030" d="M1.058 0C0 0 0 1.058 0 1.058v7.409c0 1.058 1.058 1.058 1.058 1.058h7.409c1.058 0 1.058-1.058 1.058-1.058v-6.88c0-.264-.265-.529-.265-.529L8.467.265S8.202 0 7.937 0z"/><path fill="#DB0000" d="M1.323 5.027v-.265s0-.529.53-.529h5.555c.53 0 .53.53.53.53v.264z"/><path fill="lightgray" d="M1.323 8.472V5.027h6.614v3.44s0 .529-.529.529H1.852c-.53 0-.53-.524-.53-.524zM2.646.794s0-.265.264-.265h4.763c.277 0 .264.265.264.265V3.44s0 .264-.264.264H2.91s-.264 0-.264-.264zM5.82 3.44h1.323V.794H5.82z"/></svg>