<?xml version="1.0" encoding="UTF-8"?>
<!-- Created with Inkscape (http://www.inkscape.org/) -->
<svg width="31.856mm" height="31.829mm" version="1.1" viewBox="0 0 31.856 31.829" xmlns="http://www.w3.org/2000/svg" xmlns:xlink="http://www.w3.org/1999/xlink">
 <defs>
  <linearGradient id="linearGradient18992" x1="56.75" x2="56.75" y2="113.5" gradientUnits="userSpaceOnUse">
   <stop stop-color="#D651FF" offset="0"/>
   <stop stop-color="#820BFF" offset=".99216"/>
  </linearGradient>
  <radialGradient id="radialGradient18998" cx="0" cy="0" r="58" gradientTransform="translate(56.45,47.6)" gradientUnits="userSpaceOnUse">
   <stop stop-color="#f00" stop-opacity=".63922" offset="0"/>
   <stop stop-color="#f00" stop-opacity="0" offset=".99216"/>
  </radialGradient>
 </defs>
 <g transform="translate(-20.49 -271.54)">
  <g transform="matrix(.26458 0 0 .26458 21.284 272.33)">
   <path d="m96.85 96.85q16.65-16.6 16.65-40.1t-16.65-40.15q-16.6-16.6-40.1-16.6t-40.15 16.6q-8.75 8.8-12.9 19.5-3.7 9.55-3.7 20.65t3.7 20.65q4.15 10.7 12.9 19.45 16.65 16.65 40.15 16.65t40.1-16.65z" fill="url(#linearGradient18992)"/>
   <path d="m113.7 57.1q-1.5 20.55-17.3 36.65-15.8 16.05-39.3 16.1t-39.3-16.05q-9.45-9.65-13.75-20.85-2.9-7.55-3.5-15.85-0.1-1.15-0.15-2.3-0.05 1.15-0.05 2.3 0 11.1 3.7 20.65 4.15 10.7 12.9 19.45 16.65 16.65 40.15 16.65t40.1-16.65q16.65-16.6 16.65-40.1 0-1.15-0.05-2.3-0.05 1.15-0.1 2.3z" fill="#5700d8"/>
   <path d="m113.7 57.1q0.05 1.1 0.1 2.25 0.05-1.1 0.05-2.25 0-23.5-16.65-40.15-16.6-16.6-40.1-16.6t-40.15 16.6q-8.75 8.8-12.9 19.5-3.7 9.55-3.7 20.65 0 1.15 0.05 2.25 0.05-1.15 0.15-2.25 0.55-8.35 3.5-15.85 4.35-11.1 13.8-20.45 15.85-15.7 39.35-15.75t39.3 15.7q15.75 15.75 17.2 36.35z" fill="#ef7cff"/>
   <path d="m113.2 49.35q-3.05-16.9-15.95-29.75-16.7-16.7-40.4-16.7-23.65 0-40.45 16.7-8.5 8.55-12.65 18.85-2.95 7.25-3.75 15.4 0.75 7.6 3.4 14.4 4.15 10.7 12.9 19.45 16.65 16.65 40.15 16.65t40.1-16.65q16.05-16 16.65-38.35z" fill="url(#radialGradient18998)"/>
   <path d="m114.4 57.15q0 23.7-16.85 40.4-16.7 16.75-40.4 16.75-23.65 0-40.45-16.75-8.5-8.5-12.65-18.75-4.05-10-4.05-21.65t4.05-21.6q4.15-10.3 12.65-18.85 16.8-16.7 40.45-16.7 23.7 0 40.4 16.7 16.85 16.8 16.85 40.45z" fill="none" stroke="#000" stroke-linecap="round" stroke-linejoin="round" stroke-width="6"/>
  </g>
 </g>
</svg>
