<?xml version="1.0" encoding="UTF-8"?>
<!-- Created with Inkscape (http://www.inkscape.org/) -->
<svg width="31.856mm" height="31.829mm" version="1.1" viewBox="0 0 31.856 31.829" xmlns="http://www.w3.org/2000/svg">
 <g transform="translate(-20.49 -271.54)">
  <g transform="matrix(.26458 0 0 .26458 21.284 272.33)">
   <g>
    <path d="m47.3 44.95q0-5.3-3.8-9.1-2-2.05-4.5-2.95-2.25-0.95-4.95-0.95-5.4 0-9.2 3.8t-3.8 9.2q0 5.35 3.8 9.15 3.8 3.85 9.2 3.85t9.15-3.85q1.55-1.55 2.5-3.3 1.6-2.35 1.6-5.85m-22.3-6.35q0.3-0.75 0.9-1.35 1.15-1.15 2.75-1.15 1.65 0 2.8 1.15 1 1.05 1.1 2.45 0 0.15 0 0.25 0 1.5-0.9 2.65-0.1 0.05-0.2 0.15-1.15 1.15-2.8 1.15-1.6 0-2.75-1.15-0.3-0.25-0.5-0.6-0.65-0.95-0.65-2.2 0-0.75 0.25-1.35m67.8 7.85 3.2 0.05q0.55 0 1.3 0.15-0.75-1.45-4.1-3.15h-0.05q-0.5-4.4-3.75-7.65-3.7-3.75-9.05-3.75-5.3 0-9.1 3.75-3.75 3.8-3.75 9.1 0 4.15 2.2 6.55 11.1-4.4 23.1-5.05m-1.5-1.45h0.4-0.4m-18.15-8.15q1.25-0.7 2.45-0.6t1.7 0.95q0.45 0.7 0.2 1.6-0.05 0.2-0.15 0.4-0.5 1.15-1.75 1.85t-2.5 0.6q-0.05 0-0.1 0-1.1-0.15-1.65-1-0.5-0.85 0-1.95 0.55-1.15 1.8-1.85z"/>
    <path d="m25.9 37.25q-0.6 0.6-0.9 1.35-0.25 0.6-0.25 1.35 0 1.25 0.65 2.2 0.2 0.35 0.5 0.6 1.15 1.15 2.75 1.15 1.65 0 2.8-1.15 0.1-0.1 0.2-0.15 0.9-1.15 0.9-2.65 0-0.1 0-0.25-0.1-1.4-1.1-2.45-1.15-1.15-2.8-1.15-1.6 0-2.75 1.15m49.7-1q-1.2-0.1-2.45 0.6t-1.8 1.85q-0.5 1.1 0 1.95 0.55 0.85 1.65 1 0.05 0 0.1 0 1.25 0.1 2.5-0.6t1.75-1.85q0.1-0.2 0.15-0.4 0.25-0.9-0.2-1.6-0.5-0.85-1.7-0.95z" fill="#fff"/>
   </g>
   <path d="m91.3 45h0.4" fill="none" stroke="#000" stroke-linecap="round" stroke-miterlimit="3" stroke-width="3"/>
   <path d="m77.7 78.5q0.45 0 1-0.05-0.05-0.15-0.1-0.3z" fill="#e6cbff"/>
  </g>
 </g>
</svg>
