<?xml version="1.0" encoding="UTF-8"?>
<!-- Created with Inkscape (http://www.inkscape.org/) -->
<svg width="31.856mm" height="31.829mm" version="1.1" viewBox="0 0 31.856 31.829" xmlns="http://www.w3.org/2000/svg">
 <g transform="translate(-20.49 -271.54)">
  <g transform="matrix(.26458 0 0 .26458 21.284 272.33)">
   <g>
    <path d="m77.7 78.5q0.45 0 1-0.05-0.05-0.15-0.1-0.3z" fill="#e6cbff"/>
    <path d="m27.4 76.8q0.6 4-2.1 8.85l35.65-5.65q8.25-1.1 16.75-1.5l0.9-0.35q-2.4-7.4-6.85-13.6-28.25 3.3-45.55 7.85 0.9 2 1.2 4.4z" fill="#fff"/>
    <path d="m93.45 62.15q-0.2-2.95 0.3-5.7-6.7-0.9-13.2 0.05l-24.2 3q-9.3 1.45-19.35 4.2-7.4 1.8-13.45 4.7 1.65 1.8 2.65 4 17.3-4.55 45.55-7.85 4.45 6.2 6.85 13.6 0.05 0.15 0.1 0.3 2.7-0.1 5.5-0.15 0.15 0 0.35 0 7.4-0.65 14.8 0-3.8-4.1-4.95-10.35-0.8-3-0.95-5.8z" fill="#aa8ec4"/>
   </g>
   <g fill="none" stroke="#000" stroke-linecap="round" stroke-miterlimit="3">
    <path d="m80.55 54.7v14.65l13.85-1.4m-37.8-8.9 2.35 13.05 21.6-2.75 3.55 8.4m-23.15 2.25-2-7.9-18.15 2.95v8.05m-3.8-19.4 3.8 11.35-13.4 1.75" stroke-width="2.5"/>
    <path d="m94.4 67.95q-1.35-6.2-0.65-11.5-6.7-0.9-13.2-1.75m13.85 13.25q2.15 6.25 4.95 10.35-7.55-0.65-15.25-0.55-11.7 0.7-23.15 2.25l-20.15 3.1-15.5 2.55q2.7-4.85 2.1-8.85-0.65-4.95-3.85-8.4 6.05-2.9 13.45-4.7 10.05-2.75 19.6-4.65l23.95-4.35" stroke-width="4"/>
    <path d="m49.35 92.05q9 4.65 18.15 0"/>
    <path d="m67.5 92.05q-8.6 3.1-18.15 0" stroke-width=".8"/>
   </g>
  </g>
 </g>
</svg>
