<svg xmlns="http://www.w3.org/2000/svg" xmlns:xlink="http://www.w3.org/1999/xlink" viewBox="0 0 52.917801 52.916668"><defs><linearGradient id="1" x1="52.634998" x2="-53.049" y1="52.633999" y2="-53.049999" gradientTransform="translate(-13.326 .12567)" gradientUnits="userSpaceOnUse"><stop offset="0" stop-color="red"/><stop offset="1"/></linearGradient><path id="2" fill="url(#1)" d="M-13.325-52.657c-2.607 0-5.1687.1916-7.6745.55656v.0021c-2.4792.36437-4.2628.88805-5.178 1.4516-.4576.28177-.68142.56661-.709.81597-.02758.24936.12318.52128.54519.81855.84401.59456 2.607 1.1238 4.8984 1.4903 2.2914.36653 5.1165.57981 8.1173.57981s5.8255-.21328 8.1168-.57981c2.2914-.36653 4.0544-.89579 4.8984-1.4903.422-.29728.57276-.5692.54518-.81855-.02758-.24936-.2514-.5342-.709-.81597-3.8715-1.7092-8.6472-1.9985-12.851-2.0103zm26.108 6.8993c.21164.24392.3547.49351.4284.74931.09797.34008.06379.68797-.08992 1.0196-.15371.3316-.42329.64911-.80047.95498-1.5087 1.2235-4.7459 2.3-9.5079 3.0918-9.524 1.5836-22.754 1.5836-32.278 0-4.762-.79179-7.9987-1.8683-9.5074-3.0918-.37717-.30587-.64727-.62337-.80098-.95498-.15371-.33161-.1879-.6795-.08992-1.0196.07349-.25506.2157-.504.42633-.74724-3.7373 2.1313-7.1898 4.7047-10.284 7.6512l.000529.00053c-.82992.79018-1.0589 1.54-.78496 2.2908.27396.75086 1.0878 1.5224 2.4195 2.2557 2.6634 1.4666 7.3619 2.7788 13.709 3.715 12.695 1.8724 29.407 1.8724 42.101 0 6.3473-.93619 11.046-2.2484 13.709-3.715 1.3317-.73329 2.1461-1.5048 2.42-2.2557.27396-.75086.04444-1.5006-.78548-2.2908l.0011-.0011c-3.095-2.9473-6.5483-5.5212-10.287-7.6528zm-72.058 19.892c-2.1192 3.7383-3.7945 7.7603-4.9563 11.996l.0088.0026c-.268.97485.0862 1.9311 1.049 2.8866.96283.95551 2.5342 1.8887 4.654 2.7616 4.2395 1.7457 10.663 3.2529 18.781 4.3145 16.238 2.1232 36.587 2.1232 52.824 0 8.1188-1.0616 14.542-2.5687 18.781-4.3145 2.1197-.87286 3.6917-1.8061 4.6545-2.7616.96283-.95551 1.3165-1.9118 1.0485-2.8866l.0088-.0026c-1.1617-4.2351-2.8369-8.257-4.9558-11.995.04184.61012-.15653 1.2171-.58188 1.7963-.69939.95229-1.9876 1.8493-3.8106 2.6918-3.6461 1.685-9.4393 3.1397-16.949 4.1734-15.02 2.0674-34.195 2.0674-49.215 0-7.5101-1.0337-13.303-2.4884-16.949-4.1734-1.823-.84252-3.1112-1.7395-3.8106-2.6918-.42547-.57932-.62386-1.1865-.58188-1.7968zm-6.8203 27.198c.09909 4.4194.74331 8.7038 1.8645 12.791l.0083-.0026c.38208 1.3898 2.0426 2.763 4.7734 4.006 2.7308 1.2429 6.5153 2.3606 11.096 3.2949 9.1613 1.8685 21.51 3.0081 35.027 3.0081 13.518-.000046 25.866-1.1396 35.027-3.0081 4.5806-.93427 8.3647-2.052 11.095-3.2949 2.7308-1.2429 4.3913-2.6161 4.7734-4.006l.0088.0026c1.121-4.0868 1.7648-8.3709 1.864-12.79-.30224.64868-.84403 1.2791-1.6009 1.8852-1.2188.97589-3.0032 1.9007-5.2953 2.76-4.5842 1.7187-11.205 3.1753-19.398 4.1992-16.386 2.0478-36.563 2.0478-52.949 0-8.1929-1.0239-14.814-2.4805-19.398-4.1992-2.2921-.85935-4.076-1.7841-5.2948-2.76-.75731-.60638-1.2993-1.2371-1.6015-1.8862zm8.2414 27.151c2.3069 3.6151 5.0412 6.9307 8.1328 9.8748l.000529-.000529c1.8854 1.7951 6.6301 3.3866 13.074 4.5 6.444 1.1134 14.593 1.7673 23.321 1.7673 8.728.000003 16.876-.65396 23.32-1.7673 6.444-1.1134 11.189-2.7049 13.074-4.5l.0011.0011c3.0918-2.9443 5.826-6.2601 8.1328-9.8754-.9534.82352-2.3526 1.5912-4.1336 2.3058-2.6112 1.0477-6.047 1.975-10.109 2.7482-8.125 1.5463-18.757 2.4727-30.285 2.4727-11.528 0-22.161-.92638-30.285-2.4727-4.0625-.77317-7.4977-1.7004-10.109-2.7482-1.781-.71458-3.1802-1.4823-4.1336-2.3058zm66.049 19.855c-4.9269 1.4885-12.874 2.3906-21.521 2.3906-8.6452.000003-16.59-.90157-21.518-2.3895 6.5721 2.9376 13.854 4.5728 21.518 4.5728 7.6653 0 14.948-1.6357 21.52-4.5739z"/></defs><use xlink:href="#2" width="100%" height="100%" color="#000" transform="matrix(0 .5014 -.50126 0 26.5228523 33.14034)"/></svg>