<?xml version="1.0" encoding="UTF-8"?>
<!-- Created with Inkscape (http://www.inkscape.org/) -->
<svg width="31.856mm" height="31.829mm" version="1.1" viewBox="0 0 31.856 31.829" xmlns="http://www.w3.org/2000/svg" xmlns:xlink="http://www.w3.org/1999/xlink">
 <defs>
  <linearGradient id="linearGradient3261" x1="57.1" x2="57.1" y1=".35" y2="113.85" gradientUnits="userSpaceOnUse">
   <stop stop-color="#0cf" offset="0"/>
   <stop stop-color="#03b" offset="1"/>
  </linearGradient>
  <linearGradient id="linearGradient3269" x1="57.1" x2="57.1" y1=".35" y2="113.85" gradientUnits="userSpaceOnUse">
   <stop stop-color="#0df" offset="0"/>
   <stop stop-color="#03b" offset="1"/>
  </linearGradient>
 </defs>
 <g transform="translate(-69.99 -188.45)">
  <g transform="matrix(.26458 0 0 .26458 70.784 189.24)">
   <path d="m0.55 57.1q-0.1-1.15-0.15-2.3-0.05 1.15-0.05 2.3h0.2m113.3 0q0-1.15-0.05-2.3-0.05 1.15-0.1 2.3z" fill="url(#linearGradient3261)"/>
   <path d="m0.35 57.1q0 1.15 0.05 2.25 0.05-1.15 0.15-2.25h-0.2m113.35 0q0.05 1.1 0.1 2.25 0.05-1.1 0.05-2.25z" fill="url(#linearGradient3269)"/>
   <g>
    <path d="m45.7 46.95q0-5.9-4.2-10.1-4.15-4.15-10.05-4.15t-10.1 4.15q-4.15 4.2-4.15 10.1t4.15 10.05q4.2 4.2 10.1 4.2t10.05-4.2q4.2-4.15 4.2-10.05m-15.9-5.75q0 0.15 0 0.3 0 1.8-1.2 3.05-1.25 1.25-3.05 1.25t-3.05-1.25q-0.3-0.3-0.55-0.65-0.7-1.05-0.7-2.4 0-1.75 1.25-3t3.05-1.25 3.05 1.25q1.1 1.15 1.2 2.7m66.8 5.75q0-5.9-4.2-10.1-4.15-4.15-10.05-4.15t-10.1 4.15q-4.15 4.2-4.15 10.1t4.15 10.05q4.2 4.2 10.1 4.2t10.05-4.2q4.2-4.15 4.2-10.05m-15.9-6.5q0.1 0.5 0.1 1.05 0 1.8-1.2 3.05-1.25 1.25-3.05 1.25t-3.05-1.25q-0.1-0.1-0.2-0.2-1.05-1.2-1.05-2.85 0-1.75 1.25-3t3.05-1.25 3.05 1.25q0.8 0.85 1.1 1.95z"/>
    <path d="m29.8 41.5q0-0.15 0-0.3-0.1-1.55-1.2-2.7-1.25-1.25-3.05-1.25t-3.05 1.25-1.25 3q0 1.35 0.7 2.4 0.25 0.35 0.55 0.65 1.25 1.25 3.05 1.25t3.05-1.25q1.2-1.25 1.2-3.05m51 0q0-0.55-0.1-1.05-0.3-1.1-1.1-1.95-1.25-1.25-3.05-1.25t-3.05 1.25-1.25 3q0 1.65 1.05 2.85 0.1 0.1 0.2 0.2 1.25 1.25 3.05 1.25t3.05-1.25q1.2-1.25 1.2-3.05z" fill="#fff"/>
   </g>
  </g>
 </g>
</svg>
