<?xml version="1.0" encoding="UTF-8"?>
<!-- Created with Inkscape (http://www.inkscape.org/) -->
<svg width="31.856mm" height="31.829mm" version="1.1" viewBox="0 0 31.856 31.829" xmlns="http://www.w3.org/2000/svg" xmlns:xlink="http://www.w3.org/1999/xlink">
 <defs>
  <linearGradient id="linearGradient5356" x1="57.2" x2="57.2" y1=".15" y2="113.65" gradientUnits="userSpaceOnUse">
   <stop stop-color="#ff6" offset=".2549"/>
   <stop stop-color="#fb6" offset=".51373"/>
   <stop stop-color="#d43" offset="1"/>
  </linearGradient>
 </defs>
 <g transform="translate(-48.776 -245.02)">
  <g transform="matrix(.26458 0 0 .26458 49.569 245.81)">
   <path d="m97.3 97q16.65-16.6 16.65-40.1t-16.65-40.15q-14-14-32.95-16.2-3.5-0.4-7.15-0.4t-7.1 0.4q-19 2.2-33.05 16.2-16.6 16.65-16.6 40.15t16.6 40.1q16.65 16.65 40.15 16.65h0.05q23.45 0 40.05-16.65z" fill="url(#linearGradient5356)"/>
   <path d="m49.7 96.85q-1.15-1.1-2.7-1.1t-2.7 1.1q-1.15 1.15-1.15 2.7 0 1.6 1.15 2.7 1.15 1.15 2.7 1.15t2.7-1.15q1.15-1.1 1.15-2.7 0-1.55-1.15-2.7m20.5 0q-1.15-1.1-2.7-1.1t-2.7 1.1q-1.15 1.15-1.15 2.7 0 1.6 1.15 2.7 1.15 1.15 2.7 1.15t2.7-1.15q1.15-1.1 1.15-2.7 0-1.55-1.15-2.7m-19.35-82.6q0-1.55-1.15-2.7-1.15-1.1-2.7-1.1t-2.7 1.1q-1.15 1.15-1.15 2.7 0 1.6 1.15 2.7 1.15 1.15 2.7 1.15t2.7-1.15q1.15-1.1 1.15-2.7m19.35 2.7q1.15-1.1 1.15-2.7 0-1.55-1.15-2.7-1.15-1.1-2.7-1.1t-2.7 1.1q-1.15 1.15-1.15 2.7 0 1.6 1.15 2.7 1.15 1.15 2.7 1.15t2.7-1.15z" fill-opacity=".52941"/>
   <path d="m113.95 56.9q0-1.1 0-2.15-0.75 22.1-16.65 37.95-16.6 16.65-40.05 16.65h-0.05q-23.5 0-40.15-16.65-15.85-15.85-16.55-37.95-0.05 1.05-0.05 2.15 0 23.5 16.6 40.1 16.65 16.65 40.15 16.65h0.05q23.45 0 40.05-16.65 16.65-16.6 16.65-40.1z" fill="#933"/>
   <path d="m112.05 56.1q-0.15 17.05-3.95 26.2 5.35-10.55 5.8-23.15l0.05-1.45q0-0.4 0-0.8 0-23.5-16.65-40.15-14-14-32.95-16.2-3.5-0.4-7.15-0.4t-7.1 0.4q-19 2.2-33.05 16.2-16.6 16.65-16.6 40.15 0 14 5.9 25.55-3.75-9.45-3.8-26.7-0.05-17.3 14.8-32.75 14.8-15.45 33.05-17.65 3.3-0.4 6.8-0.4t6.85 0.4q18.2 2.2 33.2 17.95 14.95 15.75 14.8 32.8z" fill="#ffc"/>
   <path d="m57.25 2.05v111.6" fill="none" stroke="#000" stroke-linecap="round" stroke-linejoin="round" stroke-width="3"/>
   <path d="m114.4 57.15q0 23.7-16.85 40.4-16.7 16.75-40.4 16.75-23.65 0-40.45-16.75-16.7-16.7-16.7-40.4 0-23.65 16.7-40.45 13.25-13.15 30.75-15.95 4.7-0.75 9.7-0.75t9.75 0.75q17.5 2.8 30.65 15.95 16.85 16.8 16.85 40.45z" fill="none" stroke="#000" stroke-linecap="round" stroke-linejoin="round" stroke-width="6"/>
   <path d="m52.85 47.65q0-9.05-6.45-15.65-6.45-6.5-15.65-6.5-9.15 0-15.7 6.5-6.45 6.6-6.45 15.65 0 9.2 6.45 15.65 6.55 6.55 15.7 6.55 9.2 0 15.65-6.55 6.45-6.45 6.45-15.65z" fill-opacity=".13726"/>
   <path d="m106.8 47.65q0-9.05-6.45-15.65-4.85-4.85-11.2-6.1-2.15-0.4-4.45-0.4-9.15 0-15.7 6.5-6.45 6.6-6.45 15.65 0 9.2 6.45 15.65 6.55 6.55 15.7 6.55 2.3 0 4.45-0.4 6.35-1.25 11.2-6.15 6.45-6.45 6.45-15.65z" fill-opacity=".13726"/>
  </g>
 </g>
</svg>
