<?xml version="1.0" encoding="UTF-8"?>
<!-- Created with Inkscape (http://www.inkscape.org/) -->
<svg width="31.856mm" height="31.829mm" version="1.1" viewBox="0 0 31.856 31.829" xmlns="http://www.w3.org/2000/svg">
 <g transform="translate(-48.776 -245.02)">
  <g transform="matrix(.26458 0 0 .26458 49.569 245.81)">
   <path d="m46.8 47.65q0-6.6-4.7-11.4-4.7-4.7-11.4-4.7-6.65 0-11.4 4.7-4.7 4.8-4.7 11.4 0 6.7 4.7 11.4 4.75 4.75 11.4 4.75 6.7 0 11.4-4.75 4.7-4.7 4.7-11.4z" fill="#05a"/>
   <path d="m46.8 47.65q0 6.7-4.7 11.4-4.7 4.75-11.4 4.75-6.65 0-11.4-4.75-4.7-4.7-4.7-11.4 0-6.6 4.7-11.4 4.75-4.7 11.4-4.7 6.7 0 11.4 4.7 4.7 4.8 4.7 11.4z" fill="none" stroke="#000" stroke-linecap="round" stroke-linejoin="round" stroke-width="2"/>
   <path d="m39.6 39q-3.6-3.65-8.8-3.65-5.15 0-8.8 3.65t-3.65 8.75q0 5.2 3.65 8.8 3.65 3.65 8.8 3.65 5.2 0 8.8-3.65 3.6-3.6 3.6-8.8 0-5.1-3.6-8.75z" fill="#08f"/>
   <path d="m37.85 40.6q-2.9-2.95-7.15-2.95-4.15 0-7.1 2.95t-2.95 7.1q0 4.2 2.95 7.15t7.1 2.95q4.25 0 7.15-2.95t2.9-7.15q0-4.15-2.9-7.1z" fill="#0cf"/>
   <path d="m27.7 43.7q-1.65 1.65-1.65 3.95 0 2.35 1.65 4t3.95 1.65q2.35 0 3.95-1.65 1.65-1.65 1.65-4 0-0.55-0.1-1.05 0-0.05 0-0.1-0.25 0.4-0.6 0.75-1 1-2.45 1t-2.45-1-1-2.45 1-2.45q0.15-0.15 0.35-0.3-0.2 0-0.35 0-2.3 0-3.95 1.65z" fill="#0ff"/>
   <path d="m22.45 48.8q-0.55-0.15-1.1 0.2-0.45 0.4-0.65 1.1t0.05 1.25q0.25 0.6 0.8 0.75 0.5 0.15 1.05-0.25 0.45-0.35 0.65-1.05t-0.05-1.3q-0.25-0.55-0.75-0.7m5.75-11.85q-1.1-0.65-2.5 0.1t-2.4 2.35q-0.95 1.7-0.85 3.3 0.05 1.55 1.15 2.15 1 0.6 2.45-0.1 1.35-0.75 2.3-2.45 0.95-1.65 0.9-3.2-0.05-1.6-1.05-2.15z" fill="#5ff"/>
   <path d="m100.75 47.65q0-6.6-4.7-11.4-3.05-3.05-6.9-4.1-2.1-0.6-4.5-0.6-6.65 0-11.4 4.7-4.7 4.8-4.7 11.4 0 6.7 4.7 11.4 4.75 4.75 11.4 4.75 2.4 0 4.5-0.6 3.85-1.1 6.9-4.15 4.7-4.7 4.7-11.4z" fill="#05a"/>
   <path d="m100.75 47.65q0 6.7-4.7 11.4-3.05 3.05-6.9 4.15-2.1 0.6-4.5 0.6-6.65 0-11.4-4.75-4.7-4.7-4.7-11.4 0-6.6 4.7-11.4 4.75-4.7 11.4-4.7 2.4 0 4.5 0.6 3.85 1.05 6.9 4.1 4.7 4.8 4.7 11.4z" fill="none" stroke="#000" stroke-linecap="round" stroke-linejoin="round" stroke-width="2"/>
   <path d="m97.15 47.75q0-5.1-3.6-8.75-1.95-2-4.4-2.9-2.05-0.75-4.4-0.75-5.15 0-8.8 3.65t-3.65 8.75q0 5.2 3.65 8.8 3.65 3.65 8.8 3.65 2.35 0 4.4-0.75 2.45-0.9 4.4-2.9 3.6-3.6 3.6-8.8z" fill="#08f"/>
   <path d="m94.7 47.7q0-4.15-2.9-7.1-1.2-1.25-2.65-1.95-2-1-4.5-1-4.15 0-7.1 2.95t-2.95 7.1q0 4.2 2.95 7.15t7.1 2.95q2.5 0 4.5-1 1.45-0.7 2.65-1.95 2.9-2.95 2.9-7.15z" fill="#0cf"/>
   <path d="m85.95 42.05q-0.2 0-0.35 0-2.3 0-3.95 1.65t-1.65 3.95q0 2.35 1.65 4t3.95 1.65q2.05 0 3.55-1.25 0.2-0.2 0.4-0.4 1.65-1.65 1.65-4 0-0.55-0.1-1.05 0-0.05 0-0.1-0.25 0.4-0.6 0.75-0.6 0.6-1.35 0.85-0.5 0.15-1.1 0.15-1.45 0-2.45-1t-1-2.45 1-2.45q0.15-0.15 0.35-0.3z" fill="#0ff"/>
   <path d="m76.4 48.8q-0.55-0.15-1.1 0.2-0.45 0.4-0.65 1.1t0.05 1.25q0.25 0.6 0.8 0.75 0.5 0.15 1.05-0.25 0.45-0.35 0.65-1.05t-0.05-1.3q-0.25-0.55-0.75-0.7m5.9-6.5q0.95-1.65 0.9-3.2-0.05-1.6-1.05-2.15-1.1-0.65-2.5 0.1t-2.4 2.35q-0.95 1.7-0.85 3.3 0.05 1.55 1.15 2.15 1 0.6 2.45-0.1 1.35-0.75 2.3-2.45z" fill="#5ff"/>
  </g>
 </g>
</svg>
