<?xml version="1.0" encoding="UTF-8"?>
<!-- Created with Inkscape (http://www.inkscape.org/) -->
<svg width="31.856mm" height="31.829mm" version="1.1" viewBox="0 0 31.856 31.829" xmlns="http://www.w3.org/2000/svg" xmlns:xlink="http://www.w3.org/1999/xlink">
 <defs>
  <linearGradient id="linearGradient12442" x1="57.1" x2="57.1" y1=".35" y2="113.85" gradientUnits="userSpaceOnUse">
   <stop stop-color="#f70" offset="0"/>
   <stop stop-color="#f40" offset=".57647"/>
   <stop stop-color="#f01" offset="1"/>
  </linearGradient>
 </defs>
 <g transform="translate(-89.26 -132.76)">
  <g transform="matrix(.26458 0 0 .26458 90.053 133.56)">
   <path d="m97.2 16.95q-0.3-0.3-0.6-0.6-16.4-16-39.5-16-23.5 0-40.15 16.6-16.6 16.65-16.6 40.15t16.6 40.1q16.65 16.65 40.15 16.65 23.1 0 39.5-16.05 0.3-0.3 0.6-0.6 16.65-16.6 16.65-40.1t-16.65-40.15z" fill="url(#linearGradient12442)"/>
   <path d="m113.7 57.1q-1.5 20.4-17.1 36.5-0.1 0.1-0.2 0.2-15.8 16.15-39.3 16.2t-39.3-16.15-17.25-36.75q-0.1-1.15-0.15-2.3-0.05 1.15-0.05 2.3 0 23.5 16.6 40.1 16.65 16.65 40.15 16.65 23.1 0 39.5-16.05 0.3-0.3 0.6-0.6 16.65-16.6 16.65-40.1 0-1.15-0.05-2.3-0.05 1.15-0.1 2.3z" fill="#a01"/>
   <path d="m97.2 16.95q-6.25-4.25-14.35-8.35-16.1-8.25-25.75-8.25-23.5 0-40.15 16.6-16.6 16.65-16.6 40.15 0 1.15 0.05 2.25 0.05-1.15 0.15-2.25 1.4-20.6 17.15-36.5 15.7-15.95 39.2-16t39.45 15.95q0.15 0.15 0.25 0.25 15.65 15.85 17.1 36.3 0.05 1.1 0.1 2.25 0.05-1.1 0.05-2.25 0-23.5-16.65-40.15z" fill="#e92"/>
   <path d="m 114.4,57.15 q 0,23.7 -16.85,40.4 Q 97.1,98 96.6,98.5 80.2,114.3 57.15,114.3 33.5,114.3 16.7,97.55 0,80.85 0,57.15 0,33.5 16.7,16.7 33.5,0 57.15,0 80.2,0 96.6,15.8 q 0.5,0.45 0.95,0.9 16.85,16.8 16.85,40.45 z" fill="none" stroke="#000" stroke-linecap="round" stroke-linejoin="round" stroke-width="6"/>
  </g>
 </g>
</svg>
