<?xml version="1.0" encoding="UTF-8"?>
<!-- Created with Inkscape (http://www.inkscape.org/) -->
<svg width="31.856mm" height="31.829mm" version="1.1" viewBox="0 0 31.856 31.829" xmlns="http://www.w3.org/2000/svg">
 <g transform="translate(89.117 -17.675)">
  <g transform="matrix(.26458 0 0 .26458 -88.323 18.468)">
   <g>
    <path d="m46 46.85q0-5.9-4.2-10.1-1.25-1.25-2.7-2.15-3.25-2-7.35-2t-7.35 2q-1.45 0.9-2.75 2.15-4.15 4.2-4.15 10.1t4.15 10.05q0.6 0.6 1.25 1.1h17.7q0.6-0.5 1.2-1.1 4.2-4.15 4.2-10.05m-17.2-9.2q1.3 1.3 1.3 3.15 0 1.9-1.3 3.2t-3.15 1.3q-1.9 0-3.2-1.3t-1.3-3.2q0-1.85 1.3-3.15t3.2-1.3q1.85 0 3.15 1.3m67.7 9.2q0-5.9-4.2-10.1-1.25-1.25-2.7-2.15-3.25-2-7.35-2t-7.35 2q-1.45 0.9-2.75 2.15-4.15 4.2-4.15 10.1t4.15 10.05q0.6 0.6 1.25 1.1h17.7q0.6-0.5 1.2-1.1 4.2-4.15 4.2-10.05m-17.2-9.2q1.3 1.3 1.3 3.15 0 1.9-1.3 3.2t-3.15 1.3q-1.9 0-3.2-1.3t-1.3-3.2q0-1.85 1.3-3.15t3.2-1.3q1.85 0 3.15 1.3z"/>
    <path d="m30.1 40.8q0-1.85-1.3-3.15t-3.15-1.3q-1.9 0-3.2 1.3t-1.3 3.15q0 1.9 1.3 3.2t3.2 1.3q1.85 0 3.15-1.3t1.3-3.2m50.5 0q0-1.85-1.3-3.15t-3.15-1.3q-1.9 0-3.2 1.3t-1.3 3.15q0 1.9 1.3 3.2t3.2 1.3q1.85 0 3.15-1.3t1.3-3.2z" fill="#fff"/>
   </g>
  </g>
 </g>
</svg>
