<?xml version="1.0" encoding="UTF-8"?>
<!-- Created with Inkscape (http://www.inkscape.org/) -->
<svg width="31.856mm" height="31.829mm" version="1.1" viewBox="0 0 31.856 31.829" xmlns="http://www.w3.org/2000/svg">
 <g transform="translate(45.628 -142.49)">
  <g transform="matrix(.26458 0 0 .26458 -44.834 143.28)">
   <path d="m42 19.15 2.8 0.6 0.15-0.25-1.95-2q-3.9-4.2-10.85-5.15-6.9-0.95-11.85 0.85-5.1 1.8-8.1 4.5-2.95 2.65-6.9 7.2l-1.9 2.2 0.8 0.9 2.45-1.6q16.95-12 35.35-7.25m51.05-0.65q-2.9-2.5-8.2-4.7-5.3-2.35-12.75-1.4-7.65 0.95-11.6 5.15l-2 2 0.25 0.4 2.75-0.75q9.35-2.65 18.05-0.5h0.05q8.75 2.1 18.05 7.8l2.45 1.5 0.6-0.65-1.75-2.3q-3.1-4.15-5.9-6.55z"/>
  </g>
 </g>
</svg>
