<?xml version="1.0" encoding="UTF-8"?>
<!-- Created with Inkscape (http://www.inkscape.org/) -->
<svg width="31.856mm" height="31.829mm" version="1.1" viewBox="0 0 31.856 31.829" xmlns="http://www.w3.org/2000/svg">
 <g transform="translate(45.628 -142.49)">
  <g transform="matrix(.26458 0 0 .26458 -44.834 143.28)">
   <g>
    <path d="m13 38.15q-4.15 4.2-4.15 10.1t4.15 10.05q0.83301 0.83301 1.75 1.5 0.05645 0.05059 0.1 0.1 1.0752 0.76191 2.2 1.3l12.1-0.55q1.1072 0.01191 2.15-0.75 0.06758-0.04941 0.1-0.1 0.92695-0.66699 1.75-1.5 4.2-4.15 4.2-10.05t-4.2-10.1q-4.15-4.15-10.05-4.15t-10.1 4.15m4.2 8.95q-1.8 0-3.05-1.25-0.3-0.3-0.55-0.65-0.7-1.05-0.7-2.4 0-1.75 1.25-3t3.05-1.25 3.05 1.25q1.1 1.15 1.2 2.7 0 0.15 0 0.3 0 1.8-1.2 3.05-1.25 1.25-3.05 1.25m71.05 1.15q0-5.9-4.2-10.1-4.15-4.15-10.05-4.15t-10.1 4.15q-4.15 4.2-4.15 10.1t4.15 10.05q0.83262 0.83262 1.7 1.5 1.1412 0.82676 2.4 0.85l12 0.55q1.2264-0.57324 2.3-1.4 0.92715-0.66738 1.75-1.5 4.2-4.15 4.2-10.05m-23.1-8.45q1.25-1.25 3.05-1.25t3.05 1.25q0.8 0.85 1.1 1.95 0.1 0.5 0.1 1.05 0 1.8-1.2 3.05-1.25 1.25-3.05 1.25t-3.05-1.25q-0.1-0.1-0.2-0.2-1.05-1.2-1.05-2.85 0-1.75 1.25-3z"/>
    <path d="m14.15 45.85q1.25 1.25 3.05 1.25t3.05-1.25q1.2-1.25 1.2-3.05 0-0.15 0-0.3-0.1-1.55-1.2-2.7-1.25-1.25-3.05-1.25t-3.05 1.25-1.25 3q0 1.35 0.7 2.4 0.25 0.35 0.55 0.65m54.05-7.3q-1.8 0-3.05 1.25t-1.25 3q0 1.65 1.05 2.85 0.1 0.1 0.2 0.2 1.25 1.25 3.05 1.25t3.05-1.25q1.2-1.25 1.2-3.05 0-0.55-0.1-1.05-0.3-1.1-1.1-1.95-1.25-1.25-3.05-1.25z" fill="#fff"/>
   </g>
  </g>
 </g>
</svg>
