<?xml version="1.0" encoding="UTF-8"?>
<!-- Created with Inkscape (http://www.inkscape.org/) -->
<svg width="31.856mm" height="31.829mm" version="1.1" viewBox="0 0 31.856 31.829" xmlns="http://www.w3.org/2000/svg">
 <g transform="translate(45.628 -142.49)">
  <g transform="matrix(.26458 0 0 .26458 -44.834 143.28)">
   <g>
    <path d="m35.35 76.55c0.36667 1.6 1.05 3.3 2.05 5.1-3.1333 5.4333-4.2167 8.9833-3.25 10.65 1.4333 2.5667 3.5833 4.1833 6.45 4.85 3.4667 0.76667 7.0167 0.51667 10.65-0.75 4.2333-1.1667 7.8667-3.3667 10.9-6.6 0.65892-9.1634-8.735-18.255-15.835-20.122-4.7667-1.2-7.5316 2.7717-10.965 6.8717z" fill="#401"/>
    <path d="m35.35 71.15q-0.7 2.45 0 5.4 5.15-6.15 12.3-4.35 10.65 2.8 14.5 17.6 2-1.65 1.2-6.85-0.75-4.9-4.95-10.1-8.05-9.85-17.7-7.35-4.1 1.2-5.35 5.65z" fill="#201"/>
   </g>
   <g>
    <path d="m59.9 92.3q-1.5-0.3-3.3 0.15-2.15 0.6-3.4 1.95-0.8 0.85-0.9 1.7 4.85-1.45 7.6-3.8m-21.6 0.3q-2.05 0-3.5 0.7 2.1 3 5.8 3.85 0.55 0.1 1.15 0.2 0.15-0.05 0.3-0.15 1.55-0.8 1.55-1.9t-1.55-1.9-3.75-0.8z" fill="#d38"/>
    <path d="m49.6 94.45q-1.75 1.7-2.85 3 2.2-0.25 4.5-1.05 0.55-0.15 1.05-0.3 0.1-0.85 0.9-1.7 1.25-1.35 3.4-1.95 1.8-0.45 3.3-0.15 1.2-1 2-2.1-6.25-0.85-12.3 4.25m-14.8-1.15q1.45-0.7 3.5-0.7 2.2 0 3.75 0.8t1.55 1.9-1.55 1.9q-0.15 0.1-0.3 0.15 2.45 0.4 5 0.1 1.1-1.3 2.85-3-8.6-5.95-15.8-3.6 0 0.9 0.35 1.45 0.3 0.5 0.65 1z" fill="#a15"/>
   </g>
   <path d="m46.75 97.45q1.1-1.3 2.85-3-8.6-5.95-15.8-3.6m15.8 3.6q6.05-5.1 12.3-4.25" fill="none" stroke="#000" stroke-linecap="round" stroke-linejoin="round" stroke-width="1.5"/>
   <path d="m46.75 97.45q-2.55 0.3-5-0.1m-7.95-6.5q0 0.9 0.35 1.45 0.3 0.5 0.65 1 2.1 3 5.8 3.85 0.55 0.1 1.15 0.2m-7.95-6.5q0-2.9 3.6-9.2-3.35-6.05-2.05-10.5 1.25-4.45 5.35-5.65 9.65-2.5 17.7 7.35 4.2 5.2 4.95 10.1 0.65 4.15-1.45 7.25-0.8 1.1-2 2.1-2.75 2.35-7.6 3.8-0.5 0.15-1.05 0.3-2.3 0.8-4.5 1.05" fill="none" stroke="#000" stroke-linecap="round" stroke-linejoin="round" stroke-width="3"/>
   <path d="m37.4 81.65q-3.35-6.05-2.05-10.5 1.25-4.45 5.35-5.65 9.65-2.5 17.7 7.35 4.2 5.2 4.95 10.1 1.5 9.75-12.1 13.45-5.45 1.9-10.65 0.75-4.3-1-6.45-4.85-1.45-2.5 3.25-10.65z" fill="none" stroke="#000" stroke-linecap="round" stroke-linejoin="round" stroke-width="4"/>
  </g>
 </g>
</svg>
