<svg xmlns="http://www.w3.org/2000/svg" viewBox="0 0 8.29 10.328"><path fill="#FFF" d="M3.954.008c-.163 0-.266.01-.286.029-.035.037-.14.064-.228.064s-.159.04-.159.092c0 .048-.113.13-.246.18-.16.067-.3.173-.41.307a1.946 1.946 0 00-.254.494c-.05.149-.071.395-.05.543.027.198.01.272-.058.272a.183.183 0 00-.14.072c-.027.042.007.137.076.212.114.127.114.145.008.264-.108.12-.1.138.114.35.127.121.27.222.317.222s.286.188.53.415c.21.2.438.38.682.537.13.066.408.177.62.246s.574.122.806.122v.003c.23 0 .52-.038.636-.083s.29-.145.388-.222c.095-.077.23-.225.3-.33s.16-.334.206-.511l.082-.317.476.423c.394.35.497.41.582.34.077-.063.09-.176.056-.475a4.628 4.628 0 00-.08-.519c-.032-.114-.016-.119.12-.045.102.053.177.059.224.011.045-.045.03-.206-.05-.479a3.527 3.527 0 00-.283-.693 2.773 2.773 0 00-.458-.55 3.444 3.444 0 00-.72-.466 6.346 6.346 0 00-.86-.31C5.658.146 5.076.07 4.6.037c-.26-.02-.482-.03-.645-.029zm.748.251c.166 0 .344.015.577.045.34.046.674.122 1 .228.217.079.545.256.73.389.185.133.352.288.498.463.113.167.206.347.278.537.063.174.116.341.116.368 0 .029-.069.05-.15.05-.144 0-.15.023-.11.486l.04.49-.452-.355c-.254-.2-.495-.338-.55-.317s-.12.159-.143.304a6.35 6.35 0 01-.106.516 1.087 1.087 0 01-.26.429c-.138.118-.3.206-.476.259a2.526 2.526 0 01-.558.074 2.42 2.42 0 01-.56-.095 4.341 4.341 0 01-.562-.233c-.24-.15-.46-.33-.653-.537-.207-.215-.431-.389-.497-.389-.067 0-.175-.06-.239-.132-.105-.117-.106-.138-.013-.217.058-.05.085-.125.058-.167a2.54 2.54 0 01-.03-.64c.001-.29.052-.579.15-.852.1-.23.18-.304.396-.37.328-.133.67-.228 1.019-.284.18-.033.332-.05.497-.05zm1.104 2.5c-.04 0-.122.096-.183.212-.058.117-.09.244-.066.28s.087.07.145.07v-.003c.056 0 .133-.082.172-.186.04-.103.056-.227.037-.28-.02-.05-.068-.093-.105-.093zm-4.943.28c-.188 0-.307.054-.458.204-.15.149-.206.273-.206.45.001.145.028.288.08.424.068.15.055.204-.11.397-.147.18-.182.283-.163.513.016.256.05.301.317.45.286.155.3.177.254.407-.031.18-.013.275.08.378a.45.45 0 00.272.138c.146 0 .148.024.122.727-.016.453.005.824.058.982.058.162.14.314.246.45l.167.193c-.873.904-.275 1.611.753 1.583 1.348-.046 1.507-.74 1.189-1.307l-.167-.17.355-.085a6.19 6.19 0 00.778-.257c.235-.092.77-.346 1.187-.563.421-.217.908-.521 1.086-.68.177-.156.41-.338.515-.404.156-.098.194-.175.194-.395 0-.145-.048-.373-.101-.503a1.555 1.555 0 00-.305-.434 1.587 1.587 0 00-.537-.296c-.177-.053-.418-.077-.529-.056s-.257.099-.323.17c-.095.106-.108.214-.074.545.037.363.024.423-.113.556-.125.104-.264.19-.413.253-.193.082-.336.093-.582.045a1.036 1.036 0 01-.566-.29 1.34 1.34 0 01-.31-.482 2.486 2.486 0 01-.069-.54c0-.161.038-.455.083-.65.068-.3.065-.374-.014-.424-.053-.032-.362-.127-.688-.206-.328-.082-.69-.217-.81-.3a6.88 6.88 0 01-.579-.486c-.296-.275-.41-.336-.619-.336zm.028.233c.1.012.202.089.4.281.18.175.503.413.72.524s.593.246.84.296l.44.09-.057.323c-.032.175-.056.51-.053.741a1.54 1.54 0 00.15.704c.106.184.247.344.416.47.199.123.416.213.643.265.286.061.445.061.683-.005a1.4 1.4 0 00.59-.376c.203-.209.27-.328.243-.429a3.283 3.283 0 01-.074-.349c-.021-.116-.008-.253.026-.304s.178-.098.315-.103a.748.748 0 01.45.14c.106.077.246.233.31.344s.137.315.164.452c.042.244.031.26-.503.683-.302.24-.85.59-1.214.778s-.863.42-1.104.519c-.238.097-.683.23-.979.296a2.749 2.749 0 00-.608.177c-.04.037.048.109.22.175.166.066.317.185.362.283.105.219.074.337-.041.525-.048.04-.336.328-.994.303-.712-.025-.78-.291-.828-.33-.178-.27.028-.531.193-.7.154-.153.278-.3.278-.333s-.045-.074-.1-.095-.17-.17-.252-.328c-.084-.167-.161-.487-.185-.756a3.13 3.13 0 01.077-.948c.063-.267.097-.5.076-.521s-.153 0-.29.053c-.21.074-.263.074-.31-.005-.035-.053-.043-.21-.021-.35.04-.243.029-.259-.212-.338C.525 5.379.38 5.28.34 5.212a.643.643 0 01-.069-.238c0-.058.096-.217.215-.35 0 0 .19-.137.211-.243.024-.121-.119-.36-.119-.36-.09-.278-.098-.397-.04-.529a.45.45 0 01.252-.211.286.286 0 01.102-.009z"/></svg>