<svg xmlns="http://www.w3.org/2000/svg" viewBox="0 0 248.57 248.57"><path fill="#333" d="M87.423 88.968a5.749 5.749 0 0 1-4.642 6.676l-33.956 6.102a5.749 5.749 0 0 1-6.676-4.642 5.749 5.749 0 0 1 4.642-6.676l33.956-6.102a5.749 5.749 0 0 1 6.676 4.642z"/><path fill="#EA3D4E" d="M248.57 124.286c.025 68.64-55.6 124.305-124.241 124.329S.024 193.013-.001 124.372v-.086C-.023 55.645 55.603-.02 124.244-.044 192.883-.065 248.548 55.56 248.57 124.2v.086z"/><path fill="#231F20" stroke="#231F20" stroke-width="6" d="M125.237 1.507c-2.583 27.364-8.65 40.05-11.06 50.922-1.203 5.436-1.467 10.432.095 16.466s4.943 13.107 11.027 22.808l.846-.518c-6.057-9.66-9.378-16.65-10.901-22.534-1.523-5.885-1.247-10.662-.063-16.008 2.369-10.694 8.465-23.57 11.058-51.044l-1.002-.092z"/><path fill="#C1BC9D" d="M70.336 99.72h105.71v60H70.336zm43.214 40c0 22.093-17.908 40-40 40-22.091 0-40-17.907-40-40 0-22.09 17.909-40 40-40 22.092 0 40 17.91 40 40zm102 0c0 22.093-17.908 40-40 40s-40-17.907-40-40c0-22.09 17.908-40 40-40s40 17.91 40 40z"/><path fill="#F2F2F2" d="M70.67 91.054h105.71v60H70.67zm43.214 40c0 22.092-17.91 40-40 40-22.092 0-40-17.908-40-40 0-22.091 17.908-40 40-40 22.09 0 40 17.909 40 40zm102 0c0 22.092-17.908 40-40 40s-40-17.908-40-40c0-22.091 17.908-40 40-40s40 17.909 40 40z"/><path fill="#C1BC9D" d="M177.49 104.09a9.163 9.163 0 0 0 .02344 18.324c5.06 0 9.1641-4.1021 9.1641-9.1621 0-5.061-4.1041-9.1621-9.1641-9.1621a9.163 9.163 0 0 0-.02344 0zm-104.58 7.8203a6.875 6.875 0 0 0-6.875 6.875v11.25H54.91a6.875 6.875 0 0 0 0 13.75h11.125v11.25a6.875 6.875 0 0 0 13.75 0v-11.25H91.16a6.875 6.875 0 0 0 6.875-6.875 6.875 6.875 0 0 0-6.875-6.875H79.785v-11.25a6.875 6.875 0 0 0-6.875-6.875zm85.799 11.064a9.163 9.163 0 0 0-9.0254 9.1621 9.162 9.162 0 0 0 9.1641 9.1641 9.163 9.163 0 0 0 9.1621-9.1641 9.163 9.163 0 0 0-9.3008-9.1621zm37.398.01953a9.1635 9.1635 0 0 0-9.0234 9.1621 9.163 9.163 0 0 0 18.326 0 9.1635 9.1635 0 0 0-9.3027-9.1621zm-18.475 18.492a9.164 9.164 0 0 0-9.1426 9.2988 9.163 9.163 0 1 0 18.326 0 9.164 9.164 0 0 0-9.1836-9.2988z"/><g fill="#121212"><path d="M186.67 112c0 5.06-4.104 9.163-9.164 9.163a9.163 9.163 0 0 1 0-18.326c5.06 0 9.164 4.102 9.164 9.163zm.144 37.534a9.163 9.163 0 1 1-18.326 0 9.164 9.164 0 1 1 18.326 0zm18.593-18.629a9.163 9.163 0 0 1-18.326 0 9.163 9.163 0 1 1 18.327 0zm-37.4-.02a9.163 9.163 0 0 1-9.163 9.164 9.162 9.162 0 0 1-9.163-9.164 9.163 9.163 0 0 1 18.326 0zm-69.971 3.151a6.875 6.875 0 0 1-6.875 6.875H54.91a6.875 6.875 0 1 1 0-13.75h36.25a6.875 6.875 0 0 1 6.875 6.875z"/><path d="M72.91 109.036a6.875 6.875 0 0 1 6.876 6.875v36.25a6.875 6.875 0 1 1-13.75 0v-36.25a6.875 6.875 0 0 1 6.875-6.875z"/></g><path fill="#333" d="M177.46 100.56a9.164 9.164 0 0 0-9.1191 9.0684 9.164 9.164 0 1 0 18.328 0 9.164 9.164 0 0 0-9.209-9.0684zm-104.55 4.9766a6.875 6.875 0 0 0-6.875 6.875v11.25H54.91a6.875 6.875 0 0 0 0 13.75h11.125v11.25a6.875 6.875 0 0 0 13.75 0v-11.25H91.16a6.875 6.875 0 0 0 6.875-6.875 6.875 6.875 0 0 0-6.875-6.875H79.785v-11.25a6.875 6.875 0 0 0-6.875-6.875zm85.799 13.814a9.163 9.163 0 0 0-9.0254 9.1621 9.162 9.162 0 0 0 9.1641 9.1641 9.163 9.163 0 0 0 9.1621-9.1641 9.163 9.163 0 0 0-9.3008-9.1621zm37.398.01953a9.1635 9.1635 0 0 0-9.0234 9.1621 9.163 9.163 0 0 0 18.326 0 9.1635 9.1635 0 0 0-9.3027-9.1621zm-18.475 18.492a9.164 9.164 0 0 0-9.1426 9.2988 9.163 9.163 0 1 0 18.326 0 9.164 9.164 0 0 0-9.1836-9.2988z"/></svg>