<svg xmlns="http://www.w3.org/2000/svg" viewBox="0 0 248.571 248.571"><path fill="#333" d="M87.423 88.968a5.749 5.749 0 01-4.642 6.676l-33.956 6.102a5.749 5.749 0 01-6.676-4.642 5.749 5.749 0 014.642-6.676l33.956-6.102a5.749 5.749 0 016.676 4.642z"/><path fill="#EA3D4E" d="M248.57 124.286c.025 68.64-55.6 124.305-124.241 124.329S.024 193.013-.001 124.372v-.086C-.023 55.645 55.603-.02 124.244-.044 192.883-.065 248.548 55.56 248.57 124.2v.086z"/><path fill="#231F20" stroke="#231F20" stroke-width="6" d="M125.237 1.507c-2.583 27.364-8.65 40.05-11.06 50.922-1.203 5.436-1.467 10.432.095 16.466s4.943 13.107 11.027 22.808l.846-.518c-6.057-9.66-9.378-16.65-10.901-22.534-1.523-5.885-1.247-10.662-.063-16.008 2.369-10.694 8.465-23.57 11.058-51.044l-1.002-.092h0z"/><g fill="#C1BC9D"><path d="M113.55 139.72c0 22.093-17.908 40-40 40-22.091 0-40-17.907-40-40 0-22.09 17.909-40 40-40 22.092 0 40 17.91 40 40zM215.55 139.72c0 22.093-17.908 40-40 40s-40-17.907-40-40c0-22.09 17.908-40 40-40s40 17.91 40 40z"/><path d="M70.336 99.72h105.713v60H70.336z"/></g><g fill="#F2F2F2"><path d="M113.884 131.054c0 22.092-17.91 40-40 40-22.092 0-40-17.908-40-40 0-22.091 17.908-40 40-40 22.09 0 40 17.909 40 40zM215.884 131.054c0 22.092-17.908 40-40 40s-40-17.908-40-40c0-22.091 17.908-40 40-40s40 17.909 40 40z"/><path d="M70.67 91.054h105.714v60H70.67z"/></g><g fill="#C1BC9D"><path d="M186.673 113.252c0 5.06-4.104 9.163-9.164 9.163a9.163 9.163 0 010-18.326c5.06 0 9.164 4.102 9.164 9.163zM186.817 150.786a9.163 9.163 0 11-18.326 0 9.164 9.164 0 1118.326 0zM205.41 132.157a9.163 9.163 0 01-18.326 0 9.163 9.163 0 1118.327 0zM168.01 132.137a9.163 9.163 0 01-9.163 9.164 9.162 9.162 0 01-9.163-9.164 9.163 9.163 0 0118.326 0z"/></g><g fill="#141212"><path d="M186.673 112.002c0 5.06-4.104 9.163-9.164 9.163a9.163 9.163 0 010-18.326c5.06 0 9.164 4.102 9.164 9.163zM186.817 149.536a9.163 9.163 0 11-18.326 0 9.164 9.164 0 1118.326 0zM205.41 130.907a9.163 9.163 0 01-18.326 0 9.163 9.163 0 1118.327 0zM168.01 130.887a9.163 9.163 0 01-9.163 9.164 9.162 9.162 0 01-9.163-9.164 9.163 9.163 0 0118.326 0z"/></g><path fill="#333" d="M186.673 109.627a9.164 9.164 0 11-18.327-.001 9.164 9.164 0 0118.327 0zM186.817 147.16a9.163 9.163 0 11-18.326 0 9.164 9.164 0 1118.326 0zM205.41 128.532a9.163 9.163 0 01-18.326 0 9.163 9.163 0 1118.327 0zM168.01 128.512a9.163 9.163 0 01-9.163 9.164 9.162 9.162 0 01-9.163-9.164 9.163 9.163 0 0118.326 0z"/><g fill="#C1BC9D"><path d="M98.036 136.91a6.875 6.875 0 01-6.875 6.876H54.91a6.875 6.875 0 110-13.75h36.25a6.875 6.875 0 016.875 6.875z"/><path d="M72.91 111.91a6.875 6.875 0 016.876 6.876v36.25a6.875 6.875 0 11-13.75 0v-36.25a6.875 6.875 0 016.875-6.875z"/></g><g fill="#141212"><path d="M98.036 134.036a6.875 6.875 0 01-6.875 6.875H54.91a6.875 6.875 0 110-13.75h36.25a6.875 6.875 0 016.875 6.875z"/><path d="M72.91 109.036a6.875 6.875 0 016.876 6.875v36.25a6.875 6.875 0 11-13.75 0v-36.25a6.875 6.875 0 016.875-6.875z"/></g><g fill="#333"><path d="M98.036 130.536a6.875 6.875 0 01-6.875 6.875H54.91a6.875 6.875 0 110-13.75h36.25a6.875 6.875 0 016.875 6.875z"/><path d="M72.91 105.536a6.875 6.875 0 016.876 6.875v36.25a6.875 6.875 0 11-13.75 0v-36.25a6.875 6.875 0 016.875-6.875z"/></g></svg>