<svg xmlns="http://www.w3.org/2000/svg" viewBox="0 0 193.71 52.917"><defs><linearGradient id="1" x1="-56.182" x2="-3.2653" y1="83.877" y2="30.96" gradientTransform="matrix(.99715 0 0 1 36.118 144.79)" gradientUnits="userSpaceOnUse"><stop offset="0" stop-color="red"/><stop offset="1"/></linearGradient></defs><path fill="#CCC" d="M71.438 16.54v19.84080159h3.99276007v-5.57164428L87.55563882 16.5403h-5.19314807l-6.93173068 8.37401626V16.5403zm18.33281667 0v11.99488005c0 1.05828942.21136789 2.08437916.6209038 3.05346946.39676602.93358067.96150038 1.77318227 1.68118318 2.49317507.7200628.7196828 1.5595844 1.28678713 2.49317507 1.6811832.9694803.4095259 1.99508005.62086378 3.05346946.62091378 1.05808942 0 2.08757913-.21136788 3.05666943-.62091379.93358067-.39710603 1.77318227-.96150038 2.49317507-1.68118319.7200528-.7200128 1.28678713-1.5594844 1.6811832-2.49317507.4095159-.9691103.61772381-1.99518004.61772381-3.05346946V16.54h-3.99276007v11.99488005c0 2.12417876-1.73168268 3.85276147-3.85586144 3.85276147s-3.85276147-1.72848271-3.85276147-3.85276147V16.54zm20.28579714 0v19.84080159h7.4793252c2.19287808 0 3.9201608-.53673463 5.13574865-1.59518405 1.16778832-1.0197898 1.78308217-2.4703753 1.78308217-4.20295797 0-1.45248547-.45769543-2.73397266-1.31498685-3.70316297-.37640624-.42227577-.82127179-.78227217-1.32768673-1.0698893.34881652-.300147.65242348-.64506355.90429096-1.03168968.55443446-.8497315.84696153-1.86718133.84696153-2.94837052 0-.88770112-.1705883-1.68598314-.50629494-2.37527624-.33326666-.68171319-.82681173-1.25648744-1.46778532-1.70668294-1.1399886-.80146198-2.73417266-1.20678793-4.74105259-1.20678793zm22.38677613 0-3.99596004 1.2704873v18.5698143h3.99596004zm4.95455045 0v19.84080159h3.99276008v-12.3898761l8.79761202 12.3898761h3.61706383V16.54h-3.99596004v12.50387496L140.93530502 16.54zm21.24478755 0v19.84080159h3.99596004v-5.57204428L174.76356673 16.5409h-5.19314806l-6.93173069 8.37401626V16.5409zm24.07475925 0-7.51782482 19.84080159h4.22855772l5.00214998-13.75186248 5.04674953 13.75186248h4.22855771L186.15935278 16.54zm-66.09033909 3.76346236c1.0505895 0 1.85378147.200508 2.32437676.57950421.1397286.11194888.5699543.45789542.5699543 1.37868621 0 .72245278-.2291577 1.23648764-.69731303 1.5696843-.4502355.3205168-1.12438875.4903251-1.9486805.4903251h-2.82427177v-3.99916zm-2.57587424 7.73412266h2.95157049c1.15468845 0 2.06127938.23478766 2.62367376.67501325.49611504.38916611.73234268.9403606.73234268 1.6907831 0 .72518274-.22910771 1.25188748-.7100429 1.60798391-.51129489.37916621-1.3097869.57950421-2.31487685.57950421h-3.28276718z"/><path fill="#D00000" d="m79.03222406 31.49285047 3.55336446 4.8908511h4.9797502l-3.57256427-4.8908511zm87.20712792 0 3.5502645 4.8908511h4.9797502l-3.57256428-4.8908511zm15.06684933 0 3.15866841 4.8908511 3.13316867-4.8908511z"/><path fill="url(#1)" d="M32.868 202.01c.0189 2.4572-.32958 4.9385-1.0566 6.4065-.23093.46625-.54367.91364-.69508.99418-.97923.52102-1.895-1.1685-2.3436-4.3224-.48054-3.3794.000261-7.6832 1.0593-9.48.61219-1.0385 1.26-.99006 1.8782.1406.74965 1.3708 1.1381 3.8038 1.1578 6.2613zm-4.4411 14.908c0 .17802-2.0632 2.7436-2.9804 3.7062-1.6952 1.7788-2.4959 2.0672-3.6754 1.3236-2.4116-1.5205-4.2703-7.5124-4.9158-15.849-.12813-1.6556.04392-8.85.25474-10.643.79111-6.7342 2.5693-11.701 4.6611-13.02 1.1791-.74337 1.9808-.45537 3.6713 1.3199.99371 1.0436 2.9846 3.519 2.9846 3.7108 0 .0389-.15156.0416-.33638.008-2.889-.54906-5.0814 5.801-5.0814 14.719 0 8.6206 2.063 14.948 4.8024 14.732.33903-.0265.61567-.0302.61567-.004zm-12.332 10.003c0 .27931-5.4601 1.7458-6.4858 1.7419-.67576-.002-1.6966-.60493-2.4764-1.4614-2.5703-2.8237-4.6074-9.8993-5.2609-18.274-.33147-4.7404-.37944-9.5666.0522-14.297 1.0769-10.476 3.6565-17.478 6.8914-18.706.57367-.2177.749-.22564 1.6876-.0752 1.7969.288 5.5924 1.3896 5.5924 1.623 0 .0427-.20259.15043-.45.23963-1.0529.37852-2.4121 1.9794-3.2959 3.881-1.4908 3.2078-2.5785 7.9504-3.1947 13.93-.23207 2.252-.23207 11.086 0 13.338.61623 5.9805 1.7039 10.723 3.1947 13.93.88364 1.9013 2.2429 3.5022 3.2959 3.881.24756.0888.45.20145.45.24983zm-15.923 1.3756-.47431-.10092c-.97427-.20674-3.695-1.1515-4.8032-1.6678-.76412-.35603-1.3538-.74616-1.7665-1.1683-2.5664-2.6253-4.5141-9.6986-5.1365-18.655-.12624-1.815.04309-10.134.24341-11.991.80998-7.4912 2.6441-13.392 4.872-15.67.66136-.67655 1.2904-1.0252 3.1863-1.7662.99453-.3887 3.5066-1.1533 3.7948-1.1552.02646-.00019-.20032.27061-.50764.60208-3.4634 3.7353-5.7057 13.744-5.7057 25.467 0 11.748 2.2414 21.73 5.7224 25.485zm-14.868-43.088c.03024.0302-.09899.43783-.28763.90623-3.1877 7.9218-3.1877 24.23 0 32.152.1886.46844.31673.87732.28498.90888-.08878.0884-1.8863-2.4377-2.5944-3.6466-2.8897-6.3672-3.2346-12.944-2.2727-19.576.51566-3.2958 1.158-5.2261 2.4615-7.3952.77539-1.2904 2.3186-3.4371 2.4076-3.3488z" transform="translate(20.048 -175.74)"/></svg>