<svg xmlns="http://www.w3.org/2000/svg" viewBox="0 0 14.001 14.001"><path fill="#D00000" d="M14 6.997c0-.34585-.0254-.68569-.0738-1.0181h-.00028c-.0483-.32889-.11777-.56551-.19251-.68692-.0374-.0607-.0752-.0904-.10822-.0941-.0331-.004-.0691.0163-.10856.0723-.0789.11197-.14905.34585-.19765.64983s-.0769.67876-.0769 1.0769c0 .39809.0283.77282.0769 1.0768.0486.30398.1188.53786.19765.64983.0394.056.0755.076.10856.0723.0331-.004.0708-.0334.10822-.0941.22668-.5136.26505-1.1472.26661-1.7048zm-.91502 3.4635c-.0324.0281-.0655.047-.0994.0568-.0451.013-.0912.008-.13522-.0119-.044-.0204-.0861-.0562-.12666-.10619-.16227-.20015-.30504-.6296-.41005-1.2613-.21002-1.2635-.21002-3.0186 0-4.2821.10501-.63174.24778-1.0611.41005-1.2613.0406-.05004.0827-.08587.12666-.10626.044-.02039.0901-.02493.13522-.01193.0338.0097.0668.02862.0991.05656-.28266-.4958-.62396-.95381-1.0147-1.3643l-.00007.00007c-.1048-.1101-.20424-.14048-.30382-.10413-.0996.03634-.2019.14431-.29916.32098-.19451.35333-.36854.97664-.4927 1.8187-.24833 1.6841-.24833 3.9012 0 5.5852.12416.84205.29819 1.4654.4927 1.8187.0973.17667.19958.28471.29916.32105.0996.0363.19902.006.30382-.10421l.00015.00015c.39088-.41059.73225-.86871 1.015-1.3647zM10.44678.9011c-.49579-.28114-1.0292-.50339-1.591-.65751l-.00035.0012c-.12928-.03555-.25611.01144-.38283.13916-.12673.12773-.25049.33619-.36626.61741-.23152.56242-.43141 1.4146-.57221 2.4915-.28159 2.1542-.28159 4.8537 0 7.0077.1408 1.0771.34068 1.9292.57221 2.4915.11577.2812.23954.48974.36626.61747s.25355.17465.38283.1391l.00035.001c.56168-.15412 1.0951-.37635 1.5908-.65745-.0809.006-.16142-.0208-.23824-.0772-.12629-.0928-.24526-.26368-.357-.50553-.22347-.4837-.4164-1.2522-.55349-2.2485-.27419-1.9926-.27419-4.5364 0-6.529.13709-.9963.33002-1.7648.55349-2.2485.11174-.24184.2307-.41274.357-.50552.0768-.05644.15736-.08276.2383-.07719zm-3.6071-.9048c-.58612.01315-1.1543.09861-1.6964.24735l.00034.0011C4.9593.29544 4.77718.51573 4.61233.878c-.16484.36227-.31308.86433-.43699 1.472-.24781 1.2154-.39895 2.8536-.39895 4.6468.00001 1.7933.15114 3.4314.39895 4.6468.12391.60767.27215 1.1097.43699 1.4719.16484.36228.34696.58256.53129.63325l-.00034.001c.54201.14871 1.1102.23412 1.6963.24728-.086-.0401-.16964-.11197-.25002-.21238-.12943-.16169-.25208-.39841-.36605-.70248-.22794-.60815-.42112-1.4865-.55692-2.5734-.27159-2.1738-.27159-4.8505 0-7.0243.1358-1.0869.32898-1.9653.55692-2.5734.11397-.30407.23662-.54073.36605-.70242.0804-.10047.16407-.17237.25015-.21246zm-3.6009 1.0933c-.47945.30604-.91918.66878-1.3096 1.0789l.00007.000071c-.23808.25012-.44915.87956-.59682 1.7344-.14766.85487-.23439 1.9359-.23439 3.0938s.0867 2.2388.23439 3.0937c.14767.85488.35874 1.4844.59682 1.7344l-.00015.00014c.39049.41017.83025.77289 1.3097 1.0789-.10922-.12648-.21104-.3121-.30581-.54838-.13895-.3464-.26194-.8022-.36448-1.3411-.20508-1.0779-.32794-2.4883-.32794-4.0177s.12286-2.9399.32794-4.0177c.10254-.53894.22551-.99466.36448-1.3411.0948-.23627.19659-.42189.30581-.54837zM.60548 9.8518C.40807 9.19819.28843 8.1439.28843 6.9968c0-1.1469.11957-2.2009.31691-2.8546-.3896.87186-.60647 1.8379-.60647 2.8546 0 1.0169.21693 1.983.60661 2.8549z"/></svg>