<svg xmlns="http://www.w3.org/2000/svg" viewBox="0 0 245.76 418.92"><path fill="#FFF" d="M105.795 389.028v-29.9h3.925c3.281 0 23.8-2.202 29.178-3.13l1.068-.185v63.115h-34.171zm-21.542-33.824c-7.963-1.4-15.572-2.879-16.91-3.285-9.83-2.986-17.59-11.031-20.353-21.101-1.09-3.978-1.306-8.1-1.315-25.17l-.009-16.188-2.288-4.677c-3.572-7.302-7.145-19.281-6.303-21.13.229-.501 2.001-1.88 4.485-3.49l4.106-2.66v-15.034l-.956.494c-.526.272-2.633 1.47-4.682 2.661-4.474 2.601-5.113 2.777-6.319 1.738-.753-.649-1.044-1.441-1.852-5.04-1.286-5.728-1.276-5.902.42-7.477 1.594-1.48 7.939-5.797 11.197-7.618L45.667 226v-15.074l-1.068.543c-2.985 1.518-8.668 4.741-11.622 6.591-1.83 1.146-3.632 2.083-4.007 2.083s-1.054-.333-1.51-.74c-.68-.605-1.002-1.535-1.785-5.16-.73-3.381-.88-4.638-.633-5.344.667-1.915 9.393-8.426 17.257-12.877l3.368-1.906v-7.358c0-4.047-.097-7.358-.216-7.358-.263 0-6.856 3.484-10.462 5.529-1.446.82-4.662 2.81-7.148 4.423-6.264 4.064-6.787 3.887-8.256-2.798-1.033-4.702-1.06-4.558 1.344-7.4 3.33-3.935 11.845-9.912 21.813-15.309l2.825-1.53.191-4.05c.221-4.676.92-7.181 2.802-10.042.668-1.014 1.327-2.02 1.465-2.233.488-.76-1.609.136-8.528 3.638-7.789 3.943-15.784 8.641-20.197 11.868-3.818 2.791-4.255 2.99-5.475 2.485-1.197-.496-1.433-1.02-2.339-5.19l-.73-3.36.766-1.55c.975-1.971 5.566-6.817 8.978-9.478 5.258-4.1 13.688-9.228 21.853-13.295 2.259-1.125 4.527-2.437 5.04-2.916 4.43-4.128 1.642-11.407-4.348-11.359-1.627.013-2.421.307-6.813 2.524-9.494 4.79-18.823 10.503-24.248 14.848-1.735 1.39-2.536 1.824-3.368 1.824-1.267 0-2.292-.873-2.596-2.21a199.22 199.22 0 0 0-.665-2.766c-1.053-4.259-.458-5.639 4.59-10.645 6.667-6.612 13.48-11.328 25.837-17.887 5.738-3.046 6.052-3.275 6.977-5.087 2.496-4.89-1.989-10.652-7.299-9.378-1.819.436-12.53 6.192-18.16 9.76-5.926 3.754-10.911 7.542-14.774 11.224-1.78 1.696-1.602 1.9-2.535-2.91C.125 96.513-.424 89.107.302 83.34c1.197-9.506 6.405-22.746 12.07-30.681C24.096 36.23 47.956 19.885 77.415 8.1c5.847-2.34 6.45-2.514 8.706-2.512 3.097.003 8.019.748 10.966 1.661 10.923 3.384 16.953 12.034 20.04 28.75.94 5.091 1.128 5.63 2.352 6.757 1.464 1.35 2.368 1.683 4.568 1.683 3.605 0 6.515-2.23 7.183-5.503.111-.542-.173-3.117-.632-5.72-1.913-10.863-4.315-17.778-8.239-23.716-1.849-2.797-6.02-6.772-8.704-8.293l-2.11-1.195 3.45.001c7.474.003 14.434 1.582 19.711 4.472 11.208 6.14 18.519 18.177 21.493 35.388.776 4.489 2.048 6.086 5.081 6.377 2.374.228 3.839-.14 5.16-1.3 2.444-2.147 2.575-3.373 1.121-10.543-3.07-15.143-9.406-25.99-18.768-32.128L145.716.262l2.629.165c5.482.345 12.423 2.946 16.917 6.341 9.21 6.958 15.241 18.124 18.236 33.758.45 2.345 1.049 4.617 1.332 5.049.846 1.29 2.442 2.065 4.257 2.066 3.22.001 5.422-2.003 5.422-4.94 0-3.615-2.307-12.526-4.593-17.743a403.76 403.76 0 0 1-1.565-3.6c-.418-1.017 2.997 3.244 5.135 6.406 5.297 7.835 8.158 14.79 10.715 26.05 1.52 6.694 1.396 6.972-2.577 5.826-2.536-.73-8.881-1.757-15.24-2.465-6.553-.728-8.01-.524-9.857 1.384-2.638 2.726-2.702 6.556-.154 9.238 1.473 1.552 2.466 1.853 8.294 2.52 19.646 2.245 24.597 4.901 26.264 14.09.413 2.282.251 3.2-.615 3.475-.324.102-2.091-.11-3.928-.472-6.277-1.237-17.769-2.49-20.462-2.232-2.27.218-4.089 1.523-5.074 3.64-.437.937-.794 2.22-.794 2.853 0 1.833 1.39 4.428 2.91 5.434 1.413.935 1.672.979 11.54 1.969 12.849 1.288 18.74 3.552 21.055 8.091.882 1.728 1.617 4.72 1.617 6.578 0 2.305-.413 2.427-5.52 1.632-6.843-1.067-12.926-1.65-18.138-1.738-3.367-.058-5.114.666-6.436 2.663-1.773 2.679-1.678 5.689.253 8.03 1.623 1.97 2.414 2.204 9.12 2.707 12.548.94 19.419 2.296 22.327 4.402 2.491 1.805 4.071 5.072 4.504 9.315.182 1.78.125 2.082-.493 2.64-.68.614-.81.617-5.047.079-5.256-.667-12.15-1.172-17.514-1.284-3.897-.081-3.992-.066-5.56.903-4.085 2.525-4.216 8.51-.241 11.03 1.707 1.084 1.997 1.126 10.845 1.606 6.827.37 12.587 1.004 15.404 1.694 5.322 1.304 8.143 4.869 8.563 10.822.248 3.512-.042 3.762-4.003 3.46-9.086-.696-11.73-.824-17.195-.836-5.33-.011-6.151.06-7.27.63-4.079 2.082-4.821 7.447-1.465 10.594 1.64 1.538 3.024 1.907 7.166 1.907 5.201 0 14.8.598 18.7 1.165 6.882 1 9.702 4.015 10.283 10.992.294 3.536-.493 3.942-6.9 3.56-2.014-.12-7.4-.232-11.968-.247-6.8-.023-8.528.065-9.525.481-4.927 2.058-5.555 8.634-1.116 11.678l1.155.792 14.81.336c17.027.386 16.446.28 17.771 3.22.833 1.846 4.784 19.142 5.623 24.612.99 6.465.244 14.52-1.846 19.918-6.193 15.986-24.53 28.066-56.679 37.343-26.34 7.598-64.205 13.754-89.288 14.516l-6.817.207V171.168l.904.462c2.035 1.042 3.312.96 7.31-.467 16.062-5.734 22.86-7.912 31.7-10.153 13.217-3.35 24.046-4.896 38.943-5.556 6.526-.289 7.267-.474 8.934-2.23 2.532-2.664 2.524-6.353-.02-9.094-1.708-1.84-2.407-2.022-7.437-1.939-23.725.393-47.58 5.516-75.935 16.308-2.188.833-4.056 1.514-4.15 1.514-.095 0-.24-1.441-.324-3.203-.177-3.765-.953-6.08-2.783-8.309-3.957-4.817-10.198-7.455-18.335-7.751l-3.943-.143 2.049.788c4.592 1.768 7.55 4.277 9.619 8.16 2.081 3.905 1.956-2.076 1.962 93.79.007 96.593-.134 90.148 2.096 96.083 1.885 5.02 4.914 9.252 9.19 12.844 2.136 1.794 6.088 4.088 8.684 5.041 2.253.828-.022.506-14.892-2.11zm56.863-56.167c4.955-1.313 14.129-5.46 19.378-8.763 14.407-9.064 18.815-20.451 16.081-41.545-.703-5.425-2.053-13.362-2.598-15.28-.511-1.795-2.287-3.812-3.886-4.414-2.484-.935-6.03.006-7.555 2.004-1.697 2.225-1.74 3.296-.448 10.955.64 3.794 1.329 8.99 1.53 11.547 1.095 13.991-2.625 22.009-13.466 29.021-2.966 1.919-10.214 5.465-15.115 7.397-4.932 1.943-6.242 3.005-6.242 5.055 0 1.694 1.41 3.404 3.382 4.103 1.952.691 6.17.654 8.939-.08zm36.306-7.176c2.526-.709 8.125-3.124 11.828-5.101 16.023-8.556 22.34-19.246 21.554-36.48-.394-8.63-2.278-20.44-3.63-22.746-2.67-4.557-9.91-3.12-10.862 2.156-.124.69.064 2.638.46 4.764 2.012 10.8 2.745 19.918 2.032 25.282-.444 3.341-1.902 8.016-3.21 10.298-1.282 2.234-3.824 5.378-5.783 7.15-2.69 2.434-8.029 5.8-13.16 8.297-4.853 2.362-6.786 3.819-6.786 5.114 0 2.037 3.012 2.542 7.557 1.266zm25.166-5.028c3.301-1.134 10.963-5.065 14.755-7.57 4.604-3.043 9.534-7.938 11.753-11.672 1.955-3.287 3.62-7.897 4.31-11.938.609-3.558.708-12.012.195-16.617-.674-6.056-2.007-13.125-2.682-14.22-1.978-3.214-7.234-3.065-9.102.257-.922 1.641-.89 2.412.432 10.241 1.565 9.28 1.942 13.562 1.743 19.78-.134 4.208-.339 5.947-.994 8.446-2.171 8.288-7.604 14.768-16.497 19.675-3.044 1.679-6.079 3.674-6.079 3.995 0 .38-.072.392 2.166-.377zm-85.967-58.628c25.531-8.362 46.293-12.972 64.957-14.424 6.59-.513 7.58-.87 9.265-3.353 1.021-1.506 1.09-1.774.977-3.792-.137-2.447-.933-3.941-2.77-5.2-1.607-1.101-2.854-1.263-7.368-.956-19.884 1.355-42.571 6.35-70.484 15.522-6.834 2.246-7.67 2.6-8.76 3.723-1.467 1.51-1.9 2.587-1.9 4.724 0 3.57 2.836 6.488 6.341 6.524.71.008 4.912-1.186 9.74-2.768zm-7.192-29.112c27-9.292 46.304-13.453 67.83-14.621 3.37-.183 4.174-.338 5.529-1.065 4.493-2.413 4.449-9.066-.076-11.456-1.682-.888-3.623-.964-11.038-.432-19.917 1.428-41.875 6.39-66.73 15.078-7.921 2.769-9.182 3.493-10.195 5.854-1.467 3.417.43 7.655 3.981 8.896 1.837.642 2.985.4 10.699-2.254zm-13.88-58.448c17.612-6.788 30.688-10.442 44.58-12.458 6.772-.982 11.488-1.354 21.099-1.661 8.485-.272 8.635-.289 10.095-1.145 3.807-2.23 4.433-7.135 1.31-10.258-2.161-2.161-2.749-2.239-13.61-1.804-18.404.738-29.962 2.59-46.657 7.481-10.357 3.034-26.96 9.262-28.484 10.685-3.458 3.227-2.46 9.042 1.874 10.921 2.106.914 3.505.662 9.793-1.761zm-7.66-29c18.868-7.762 32.598-11.49 48.79-13.252 2.775-.302 9.018-.581 14.95-.67 5.603-.083 10.971-.308 11.932-.5a6.593 6.593 0 0 0 4.705-3.74c1.797-3.955-.834-8.574-5.26-9.238-1.776-.266-16.718.09-22.877.546-19.048 1.41-34.829 5.41-56.678 14.367-5.227 2.142-5.972 2.615-7.063 4.476-.944 1.61-1.107 4.138-.38 5.875.649 1.55 2.898 3.445 4.384 3.694.688.115 1.394.245 1.568.288.675.168 2.132-.286 5.926-1.847zm-6.736-29.353c16.018-7.112 28.21-10.704 42.222-12.442 6.953-.863 13.345-1.176 23.975-1.176 11.448 0 11.83-.057 13.905-2.065 1.298-1.256 2.18-3.925 1.86-5.63-.359-1.909-1.874-3.956-3.518-4.752-1.3-.63-2.221-.736-7.841-.91-7.124-.218-20.327.29-27.363 1.054-15.545 1.688-28.44 5.194-44.883 12.202-3.163 1.348-6.375 2.813-7.138 3.256-3.073 1.783-4.038 5.998-2.081 9.084 1.347 2.123 3.69 3.294 6.098 3.045.723-.074 2.867-.824 4.764-1.666zm26.778 264.844c-2.575-.472-5.572-1.61-7.58-2.879-1.578-.996-4.978-4.067-4.741-4.282.09-.082 10.045-1.435 22.122-3.007 23.573-3.068 25.534-3.444 30.448-5.835 2.217-1.078 3.338-1.907 5.437-4.018 4.01-4.036 6.137-8.767 6.612-14.71.11-1.386.291-2.65.401-2.81s2.196-.704 4.635-1.211c5.516-1.146 14.651-3.393 20.828-5.123 2.58-.723 4.803-1.314 4.943-1.314s.183 3.66.097 8.132c-.171 8.933-.36 10.069-2.397 14.487-3.455 7.491-10.937 13.829-18.442 15.621-2.536.606-56.904 7.447-58.82 7.402-.684-.017-2.28-.22-3.545-.452z"/></svg>