<?xml version="1.0" encoding="UTF-8"?>
<!-- Created with Inkscape (http://www.inkscape.org/) -->
<svg width="32.147mm" height="32.107mm" version="1.1" viewBox="0 0 32.147 32.107" xmlns="http://www.w3.org/2000/svg">
 <g transform="translate(-89.127 -133.3)">
  <g transform="matrix(.26458 0 0 .26458 86.706 131.95)">
   <g>
    <path d="m33.35 76.65-0.05-0.05-0.05 1.2 0.05-0.05v-0.8q0-0.2 0.05-0.3m2.5 3.3h-0.05l-0.15 0.45-0.2 0.2-0.4 0.25h-0.05l-0.15 0.15h-0.1l-0.05 0.1-0.15 0.1-0.1 0.1-0.35 0.1q-0.45 0.1-0.75-0.2l-0.15-0.05-0.2-0.25-0.1-0.65h0.05q-0.05-0.1 0.05-0.3-0.05-0.2-0.05-0.4l0.1-0.7 0.05-0.1q0.2-0.45 0.15-0.95-0.3-5.15-3.4-5.05-3.55-0.6-3.75 8.5 0.2 0.05 0.35 0.2l0.2 0.2 0.2 0.35q0.2 0.3 0.1 0.65-0.05 0.1-0.1 0.2l0.1 0.05q-0.85 7.6 5.4 7.3 6.25-0.1 6.05-9.25h0.45q0.15-0.4 0.5-0.55 0.05 0.2 0.25 0.45 0.3 0.2 0.45 0.2l0.4 0.05h3.8q-0.05 0.05-0.1 0.1-0.1 0-0.1 0.15l-0.1 0.1q0-0.45-0.05-0.2-0.1 0.25-0.15 0.55l-0.15 0.25q-0.75 2.7 0.55 5.75 2.3 1.85 4.75 0 6.5 0.8 10.35-2.45 0.3-2.4 0.1-4.45l-0.3-0.15q-0.35-0.45-0.3-0.9l0.05-0.05 0.05-0.25 0.05-0.1 0.1-0.05q0-0.15 0.15-0.15l0.45-0.25h0.35q0.5 0 0.8 0.05l1.95 0.4 0.3 0.1q0.7 0.2 1 0.45 0.15 0.15 0.1 0.2l0.1 0.1q0.15 0.4-0.1 0.85 0 0.05-0.05 0.1-0.7 8.85 7.8 7.35 9 0.3 8.3-6.45-0.1-1-0.4-2.1-3.6-0.1-5.85-0.45-0.45-0.05-0.8-0.15l-6.4 0.4-1 2-0.8-2.5q1.75-0.25 3.4-0.7-0.1-4.3-6.9-3.75-5.95 0.45-6.15 3.2-0.2 0.4 0 0.7 0.2 0.25 0.4 0.4 0.15 0.15-0.15 0.55-0.25 0.15-0.45 0.2l-0.1-0.15-0.15-0.1q-0.5-0.3-1.1-0.15h-0.1l-0.15-0.1-0.2-0.1-0.4-0.1-0.3 0.05-0.3 0.15v0.05q-0.15 0-0.15 0.15-0.25 0-0.1 0.15h-0.05v0.1l-0.8 0.45q-0.05-0.15-0.05-0.4l-0.9-0.3q1.65-5.75-6.2-6.65-6.95-0.45-5.55 7.55l-0.9 0.25q-1-0.3-1.7-0.85m10.05 0.15q-0.15 0.05-0.3 0.15l-0.2 0.1v-0.05q0.05-0.15 0.05-0.25h0.2q0.75-0.5 1.5-1.15 0.25 0.5 0.55 0.95l-1.7 0.2-0.1 0.05m1.25-0.05h0.85q0.7 0 0.95 0.15 0.5 0.35 0.5 0.85 0 0.05 0 0.1t0 0.15l-0.15 0.05q0.05 0.05 0.1 0.05v0.05q-0.1 0.2-0.25 0.35-0.05-0.15-0.15-0.3l-0.05-0.05-0.15-0.3q-0.65-0.45-1.15-0.65l-0.2-0.1-0.15-0.25q-0.05-0.05-0.15-0.1m1.9 1.8-0.05 0.05h-0.05q0.05-0.05 0.1-0.05m57.7 1.35v0.7q-0.3 6.45 1.95 6.35 2.65-0.25 2.45-7.15l-4.4 0.1m2.1-13.7q-2.5-0.25-5.8 0.65-3.75-0.5-5.3-2.75-1.35 5.7-0.5 13.05 0.15 0.3 0.3 0.55l0.6 0.15q-0.2 0.1-0.45 0.2-2.45 1.2-6.3 0.35l-0.75 0.95q-0.7-0.85-1.2-1.8l1.95 0.85 0.5-0.65q0.15-6.2-0.65-11.5-8.5 3.85-17.05 4.5-0.85 2.3-0.25 5.05l12.45 0.7-0.4 0.2q-0.4 0-0.8 0.05v0.8q-0.7 3.85 0.7 7.65 8.8 1.55 10.35-1.1 1.25 1.75 3.45 2.4 2-1.6 1.8-6.9l-1.4-1.35q1.05-1.75 2.85-2.95l3.05 4h5.3q1-7.2-2.45-13.1m-22 10.1 1.55-0.85q0.4 1.1 1 2.1z" fill="#fff"/>
    <path d="m49 81.9 0.05-0.05q-0.05 0-0.1 0.05h0.05m-1-1.85h-0.85q0.1 0.05 0.15 0.1l0.15 0.25 0.2 0.1q0.5 0.2 1.15 0.65l0.15 0.3 0.05 0.05q0.1 0.15 0.15 0.3 0.15-0.15 0.25-0.35v-0.05q-0.05 0-0.1-0.05l0.15-0.05q0-0.1 0-0.15t0-0.1q0-0.5-0.5-0.85-0.25-0.15-0.95-0.15m-2.4 0.2q0.15-0.1 0.3-0.15l0.1-0.05-0.4 0.05 0.05-0.05h-0.2q0 0.1-0.05 0.25v0.05l0.2-0.1m39.6-0.2q-1.15 0-2.15 0.05l-0.85 10.5 0.6 1.8 9.65 0.6q-2.4-0.35 0-0.55v0.55l7.5 0.25q-1.7-0.1-0.9-0.15h0.05q0.2 0.05 0.45 0.05 1.3 0.1 2.6 0.2l13.4 0.15q0.25-0.05 0.5-0.05 0.95-0.1 2-0.25 1.05-8.35-2.35-10.25l-4.55 0.15q0.2 6.9-2.45 7.15-2.25 0.1-1.95-6.35v-0.7l-1.5 0.05-1.8 1.45-1.95-1.8q0.2 5.3-1.8 6.9-2.2-0.65-3.45-2.4-1.55 2.65-10.35 1.1-1.4-3.8-0.7-7.65v-0.8m17.85-9.9q3.3-0.9 5.8-0.65 3.45 5.9 2.45 13.1h3.55q2.5-1.5 2.25-10.55-0.05-1.7-0.2-3.7-11.15-6.4-22.6-4.75-5.2 0.7-10.45 3.05-5.95 2.65-13.1 3.55-0.5 0.1-1 0.15-8.15 1.2-17.05 0.1-2.8-0.35-5.65-0.95-6-1.75-11.3-1.9-0.15 0-0.25 0l-0.9-0.05q-7.8-0.25-13.4 2.7-0.1 0.7-0.8 3.55-0.35 4.55 1.4 6 1.15 1.3 3.3 2-0.15 0.05-0.3 0.15-1.75 0.95-2.5 3.05-1.1 2.95-0.25 8.05h41.35q0.5 0 1 0l1.25-0.05q0.55 0.05 1.35 0.05 0.15-0.05 0.35-0.05 0.1 0 0.2 0 2-0.05 6.3-0.25t8.35-0.55v-1.6l-0.8-10.5q-0.85-0.05-1.65-0.05 0.3 1.1 0.4 2.1 0.7 6.75-8.3 6.45-8.5 1.5-7.8-7.35 0.05-0.05 0.05-0.1 0.25-0.45 0.1-0.85l-0.1-0.1q0.05-0.05-0.1-0.2-0.3-0.25-1-0.45l-0.3-0.1-1.95-0.4q-0.3-0.05-0.8-0.05h-0.35l-0.45 0.25q-0.15 0-0.15 0.15l-0.1 0.05-0.05 0.1-0.05 0.25-0.05 0.05q-0.05 0.45 0.3 0.9l0.3 0.15q0.2 2.05-0.1 4.45-3.85 3.25-10.35 2.45-2.45 1.85-4.75 0-1.3-3.05-0.55-5.75l0.15-0.25q0.05-0.3 0.15-0.55 0.05-0.25 0.05 0.2l0.1-0.1q0-0.15 0.1-0.15 0.05-0.05 0.1-0.1h-3.8l-0.4-0.05q-0.15 0-0.45-0.2-0.2-0.25-0.25-0.45-0.35 0.15-0.5 0.55h-0.45q0.2 9.15-6.05 9.25-6.25 0.3-5.4-7.3l-0.1-0.05q0.05-0.1 0.1-0.2 0.1-0.35-0.1-0.65l-0.2-0.35-0.2-0.2q-0.15-0.15-0.35-0.2 0.2-9.1 3.75-8.5 3.1-0.1 3.4 5.05l0.05-1.2 0.05 0.05q-0.05 0.1-0.05 0.3v0.8l-0.05 0.05q0.05 0.5-0.15 0.95l-0.05 0.1-0.1 0.7q0 0.2 0.05 0.4-0.1 0.2-0.05 0.3h-0.05l0.1 0.65 0.2 0.25 0.15 0.05q0.3 0.3 0.75 0.2l0.35-0.1 0.1-0.1 0.15-0.1 0.05-0.1h0.1l0.15-0.15h0.05l0.4-0.25 0.2-0.2 0.15-0.45h0.05q-0.2-0.2-0.35-0.35-0.25 0.75-1 1.25l1-3v-1.75l2.05 4.7 0.9-0.25q-1.4-8 5.55-7.55 7.85 0.9 6.2 6.65l0.9 0.3q0 0.25 0.05 0.4l0.8-0.45v-0.1h0.05q-0.15-0.15 0.1-0.15 0-0.15 0.15-0.15v-0.05l0.3-0.15 0.3-0.05 0.4 0.1 0.2 0.1 0.15 0.1h0.1q0.6-0.15 1.1 0.15l0.15 0.1 0.1 0.15q0.2-0.05 0.45-0.2 0.3-0.4 0.15-0.55-0.2-0.15-0.4-0.4-0.2-0.3 0-0.7 0.2-2.75 6.15-3.2 6.8-0.55 6.9 3.75 0.85-0.25 1.7-0.55v-0.3q0.2 0.65 1.3 1.15l2.65 0.15q-0.6-2.75 0.25-5.05 8.55-0.65 17.05-4.5 0.8 5.3 0.65 11.5l2.7-3.55q1.8 1.55 2.65 2.95-0.85-7.35 0.5-13.05 1.55 2.25 5.3 2.75z" fill="#ddd"/>
   </g>
   <g>
    <path d="m20.4 73.8 0.4-3.45q-3 0.55-5.85 1.5-3.35 1.1 5.45 1.55v0.4m83.05 10.9 1.8-1.45 0.75-0.65-3.05-4q-1.8 1.2-2.85 2.95l3.35 3.15m-5.75-3.35-0.15-0.35q-0.8-1.65-2.95-3.5l-3.2 4.2q3.85 0.85 6.3-0.35m19.4-9.3 0.75-0.2q2.4-1.4 9-2.5 2.15-0.45-9.95-1 0.15 2 0.2 3.7z"/>
    <path d="m92.45 92.45q-2.4 0.2 0 0.55v-0.55m-9.65-0.05-0.6-0.2q-4.05 0.35-8.35 0.55t-6.3 0.25q-0.1 0-0.2 0-0.2 0-0.35 0.05-5.15 0.2 6.25 0.3 11.95 0.1 19.2-0.05v-0.3z" fill="#f00"/>
   </g>
   <g fill="none" stroke-linecap="round" stroke-linejoin="round">
    <g stroke="#000">
     <path d="m117.1 72.05q0.25 9.05-2.25 10.55 0.45 0.15 0.85 0.35 3.4 1.9 2.35 10.25m-0.95-21.15q-0.05-1.7-0.2-3.7m-34.7 23.85 0.6 0.2m34.1-24.05q12.1 0.55 9.95 1-6.6 1.1-9 2.5m-97.45 1.95q0.7-2.85 0.8-3.55-0.2 0.05-0.4 0.1-3 0.55-5.85 1.5-3.35 1.1 5.45 1.55m4.7 8.4q-2.15-0.7-3.3-2l0.5 5.2q0.8-2.25 2.8-3.2zm-3.05 11.25q-0.3-1.95-0.35-3.55-0.1-2.65 0.6-4.5" stroke-width="2"/>
     <path d="m99.15 81.35-0.85-1.8-0.55 1.05m-10.9-1 2.55 1.25m0.05 0 1.95 0.85m13.85 1.55 10.45-0.3m-23.25 10.35q1.95-0.05 9.6 0.05m-53.4-12.45q0.1 0.05 0.2 0.15l1.4 2.45 0.2-1.75 0.05-0.4m-4.6-1 0.55 0.85 0.6-1.25m19.95 13.1q0.15-0.05 0.35-0.05 0.1 0 0.2 0m-0.55 0.05q-5.15 0.2 6.25 0.3 11.95 0.1 19.2-0.05m-21.15-14.35 15.1 0.85"/>
     <path d="m116.3 93.45q-0.15 0-0.25 0-0.25 0-0.5 0.05t-0.45 0.05m-12.05 0h-8.15l13.05 1m-13.65-30.95 0.3 13.9q2.15 1.85 2.95 3.5l0.6 0.15 1 0.2m-1-0.2q-0.2 0.1-0.45 0.2-2.45 1.2-6.3 0.35l-0.75 0.95q-0.7-0.85-1.2-1.8h-0.05m-2.55-1.25-0.45 0.2-0.4 0.2q-1.55 0.05-2.95 0.1l-0.85 10.5v1.6m20.7 1.15 0.55-8.65-3.35-3.15-0.95-0.2m-7.75 0.35 3.2-4.2m-7.75 2.1 1.55-0.85q0.4 1.1 1 2.1m-18.1-1.9q0.7 0.3 1.8 0.5 2.85 0.6 8.3 0.65 0.8 0 1.65 0m-1.6 0.6 0.75 9.9m21.25-5.9 1.8-1.45 0.75-0.65-3.05-4q-1.8 1.2-2.85 2.95m2.95 12h12.05m-9.1-10.95h8.85m-89.75-0.8q7.1 0.5 9.4-0.95l1-3v-10.25m0 10.25v1.75q0.75 0.8 2.05 1.2l-2.05-4.7m-1 4.75q0.75-0.5 1-1.25m13.35 1.45q0.2 0.15 0.45 0.3l2.95-1.65q0.15-0.3 0.3-0.6l0.15-8.65m-15.15 10.35q1.35 0.4 3.35 0.4 2.4 0.3 4.65-1.1 0.8-0.5 1.6-1.2 0.25 0.5 0.55 0.95 0.4 0.55 0.95 1.05m1.8 0.85q-0.1 0.05-0.25 0.1-0.5-0.2-0.9-0.5m-3.75-1.25 1.5-0.15 0.65-0.1m-6.8 1.35 0.25 11.85h21.2l-0.65-13.45q-4.5 0.1-9.15-0.5m-2.1 2.65q0.9-0.45 1.8-2.05m19.05-0.75q-1.1-0.5-1.3-1.15v0.3q-2.4 0.85-5.1 1.25l0.8 2.5 1-2 6.4-0.4m-11.4 0.15q1.65-0.05 3.2-0.25m-2.55 13.7h1.05q0.5 0 1 0l1.25-0.05q0.55 0.05 1.35 0.05m0.55-0.05q2-0.05 6.3-0.25t8.35-0.55m-12.2-14.4-0.25-7.45m-47.7 22.7h19.1m-19.1 0.5h72.85" stroke-width="1.5"/>
    </g>
    <path d="m99.95 93.25q-1.7-0.1-0.9-0.15h0.05" stroke="#f00"/>
    <path d="m99.1 93.1q0.2 0.05 0.45 0.05 1.25 0.1 2.5 0.2" stroke="#f00" stroke-width="2"/>
    <g stroke="#000">
     <path d="m94.3 63.6q11.45-1.65 22.6 4.75m-95.7 1.9q5.95-3.15 14.3-2.65 5.45 0.1 11.55 1.9 2.85 0.6 5.65 0.95 8.9 1.1 17.05-0.1 0.5-0.05 1-0.15 7.15-0.9 13.1-3.55 5.25-2.35 10.45-3.05m-72.25 29.45-1.95-0.55-0.6-0.15m2.2-2.85-1 0.8m-0.6 2.2 0.25-1.95-1.3 1" stroke-width="1.8"/>
     <path d="m21.8 79.8q-1.75-1.45-1.4-6" stroke-width="2.2"/>
     <path d="m116.3 93.45q0.85-0.1 1.75-0.25m-2.95 0.35q-5.9 0.65-8.8 0.45-2.65-0.2-3.25-0.45m-20.25-1.15 9.65 0.6 7.5 0.25m2.1 0.1q0.05 0 0.1 0 0.35 0 0.75 0l12.65 0.15m-12.65-0.15q-0.05 0.1 0.15 0.2m-1-0.2-2.1-0.1" stroke-width="2.4"/>
    </g>
   </g>
  </g>
 </g>
</svg>
