<?xml version="1.0" encoding="UTF-8"?><svg viewBox="0 0 49.463 49.462" xmlns="http://www.w3.org/2000/svg"><style>linearGradient:not(:first-child) stop {stop-color: white}</style><defs><linearGradient id="linearGradient2639" x1="46.732" x2="-2.7297" y1="274.77" y2="225.31" gradientTransform="translate(1.2031 59.735)" gradientUnits="userSpaceOnUse"><stop stop-color="#F8A529" offset="0"/><stop stop-color="#F4A32E" offset=".23028"/><stop stop-color="#6B57A8" offset=".50287"/><stop stop-color="#0095FF" offset="1"/></linearGradient><linearGradient id="linearGradient-1-2" x1="-2.7239" x2="75.373" y1="73.647" y2="-.019597" gradientTransform="scale(.99596 1.0041)" gradientUnits="userSpaceOnUse"><stop stop-opacity="0" offset=".00057365"/><stop offset=".3"/><stop offset=".5"/><stop offset=".7"/><stop stop-opacity="0" offset="1"/></linearGradient><linearGradient id="linearGradient-2-3" x1="8.9435" x2="77.863" y1="76.029" y2="11.094" gradientTransform="scale(.99625 1.0038)" gradientUnits="userSpaceOnUse"><stop stop-opacity="0" offset=".00057365"/><stop offset=".3"/><stop offset=".5"/><stop offset=".7"/><stop stop-opacity="0" offset="1"/></linearGradient><linearGradient id="linearGradient-3-9" x1="20.951" x2="80.058" y1="78.261" y2="22.192" gradientTransform="scale(.99456 1.0055)" gradientUnits="userSpaceOnUse"><stop stop-opacity="0" offset=".00057365"/><stop offset=".3"/><stop offset=".5"/><stop offset=".7"/><stop stop-opacity="0" offset="1"/></linearGradient><linearGradient id="linearGradient-4-6" x1="32.597" x2="82.555" y1="80.628" y2="33.273" gradientTransform="scale(.99474 1.0053)" gradientUnits="userSpaceOnUse"><stop stop-opacity="0" offset=".00057365"/><stop offset=".3"/><stop offset=".5"/><stop offset=".7"/><stop stop-opacity="0" offset="1"/></linearGradient><linearGradient id="linearGradient-5-4" x1="44.424" x2="84.947" y1="82.885" y2="44.296" gradientTransform="scale(.9936 1.0064)" gradientUnits="userSpaceOnUse"><stop stop-opacity="0" offset=".00057365"/><stop offset=".3"/><stop offset=".5"/><stop offset=".7"/><stop stop-opacity="0" offset="1"/></linearGradient><linearGradient id="linearGradient-6-26" x1="57.04" x2="87.222" y1="84.601" y2="54.978" gradientTransform="scale(.98612 1.0141)" gradientUnits="userSpaceOnUse"><stop stop-opacity="0" offset=".00057365"/><stop offset=".3"/><stop offset=".5"/><stop offset=".7"/><stop stop-opacity="0" offset="1"/></linearGradient><linearGradient id="linearGradient-7-86" x1="69.732" x2="90.02" y1="86.049" y2="65.302" gradientTransform="scale(.97605 1.0245)" gradientUnits="userSpaceOnUse"><stop stop-opacity="0" offset=".00057365"/><stop offset=".3"/><stop offset=".5"/><stop offset=".7"/><stop stop-opacity="0" offset="1"/></linearGradient><linearGradient id="linearGradient-8-8" x1="-.028187" x2="73.551" y1="19.199" y2="96.835" gradientTransform="scale(1.0052 .99478)" gradientUnits="userSpaceOnUse"><stop stop-opacity="0" offset="0"/><stop offset=".3"/><stop offset=".5"/><stop offset=".7"/><stop stop-opacity="0" offset=".99943"/></linearGradient><linearGradient id="linearGradient-9-9" x1="11.072" x2="75.93" y1="16.67" y2="85.181" gradientTransform="scale(1.005 .99506)" gradientUnits="userSpaceOnUse"><stop stop-opacity="0" offset="0"/><stop offset=".3"/><stop offset=".5"/><stop offset=".7"/><stop stop-opacity="0" offset=".99943"/></linearGradient><linearGradient id="linearGradient-10-2" x1="22.157" x2="78.16" y1="14.62" y2="73.377" gradientTransform="scale(1.0067 .99338)" gradientUnits="userSpaceOnUse"><stop stop-opacity="0" offset="0"/><stop offset=".3"/><stop offset=".5"/><stop offset=".7"/><stop stop-opacity="0" offset=".99943"/></linearGradient><linearGradient id="linearGradient-11-7" x1="33.225" x2="80.524" y1="12.093" y2="61.754" gradientTransform="scale(1.0065 .99356)" gradientUnits="userSpaceOnUse"><stop stop-opacity="0" offset="0"/><stop offset=".3"/><stop offset=".5"/><stop offset=".7"/><stop stop-opacity="0" offset=".99943"/></linearGradient><linearGradient id="linearGradient-12-8" x1="44.235" x2="82.778" y1="9.795" y2="50.077" gradientTransform="scale(1.0076 .99242)" gradientUnits="userSpaceOnUse"><stop stop-opacity="0" offset="0"/><stop offset=".3"/><stop offset=".5"/><stop offset=".7"/><stop stop-opacity="0" offset=".99943"/></linearGradient><linearGradient id="linearGradient-13-7" x1="54.904" x2="84.492" y1="8.2229" y2="38.226" gradientTransform="scale(1.0153 .98495)" gradientUnits="userSpaceOnUse"><stop stop-opacity="0" offset="0"/><stop offset=".3"/><stop offset=".5"/><stop offset=".7"/><stop stop-opacity="0" offset=".99943"/></linearGradient><linearGradient id="linearGradient-14-2" x1="65.216" x2="85.938" y1="6.3941" y2="26.562" gradientTransform="scale(1.0258 .97489)" gradientUnits="userSpaceOnUse"><stop stop-opacity="0" offset="0"/><stop offset=".3"/><stop offset=".5"/><stop offset=".7"/><stop stop-opacity="0" offset=".99943"/></linearGradient><linearGradient id="linearGradient-15-6" x1="19.192" x2="96.827" y1="93.514" y2="19.935" gradientTransform="scale(.99479 1.0052)" gradientUnits="userSpaceOnUse"><stop stop-opacity="0" offset="0"/><stop offset=".3"/><stop offset=".5"/><stop offset=".7"/><stop stop-opacity="0" offset="1"/></linearGradient><linearGradient id="linearGradient-16-1" x1="16.665" x2="85.172" y1="82.439" y2="17.581" gradientTransform="scale(.99507 1.005)" gradientUnits="userSpaceOnUse"><stop stop-opacity="0" offset="0"/><stop offset=".3"/><stop offset=".5"/><stop offset=".7"/><stop stop-opacity="0" offset="1"/></linearGradient><linearGradient id="linearGradient-17-8" x1="14.614" x2="73.369" y1="71.195" y2="15.193" gradientTransform="scale(.99338 1.0067)" gradientUnits="userSpaceOnUse"><stop stop-opacity="0" offset="0"/><stop offset=".3"/><stop offset=".5"/><stop offset=".7"/><stop stop-opacity="0" offset="1"/></linearGradient><linearGradient id="linearGradient-18-78" x1="12.087" x2="61.747" y1="60.145" y2="12.846" gradientTransform="scale(.99356 1.0065)" gradientUnits="userSpaceOnUse"><stop stop-opacity="0" offset="0"/><stop offset=".3"/><stop offset=".5"/><stop offset=".7"/><stop stop-opacity="0" offset="1"/></linearGradient><linearGradient id="linearGradient-19-21" x1="9.7901" x2="50.071" y1="49.027" y2="10.484" gradientTransform="scale(.99242 1.0076)" gradientUnits="userSpaceOnUse"><stop stop-opacity="0" offset="0"/><stop offset=".3"/><stop offset=".5"/><stop offset=".7"/><stop stop-opacity="0" offset="1"/></linearGradient><linearGradient id="linearGradient-20-9" x1="8.217" x2="38.219" y1="37.657" y2="8.0688" gradientTransform="scale(.98496 1.0153)" gradientUnits="userSpaceOnUse"><stop stop-opacity="0" offset="0"/><stop offset=".3"/><stop offset=".5"/><stop offset=".7"/><stop stop-opacity="0" offset="1"/></linearGradient><linearGradient id="linearGradient-21-6" x1="6.3879" x2="26.555" y1="26.399" y2="5.6772" gradientTransform="scale(.9749 1.0258)" gradientUnits="userSpaceOnUse"><stop stop-opacity="0" offset="0"/><stop offset=".3"/><stop offset=".5"/><stop offset=".7"/><stop stop-opacity="0" offset="1"/></linearGradient><linearGradient id="linearGradient-22-16" x1="19.965" x2="93.632" y1="-2.7311" y2="75.366" gradientTransform="scale(1.0041 .99596)" gradientUnits="userSpaceOnUse"><stop stop-opacity="0" offset="0"/><stop offset=".3"/><stop offset=".5"/><stop offset=".7"/><stop stop-opacity="0" offset="1"/></linearGradient><linearGradient id="linearGradient-23-1" x1="17.61" x2="82.545" y1="8.9377" y2="77.856" gradientTransform="scale(1.0038 .99625)" gradientUnits="userSpaceOnUse"><stop stop-opacity="0" offset="0"/><stop offset=".3"/><stop offset=".5"/><stop offset=".7"/><stop stop-opacity="0" offset="1"/></linearGradient><linearGradient id="linearGradient-24-2" x1="15.219" x2="71.288" y1="20.945" y2="80.051" gradientTransform="scale(1.0055 .99456)" gradientUnits="userSpaceOnUse"><stop stop-opacity="0" offset="0"/><stop offset=".3"/><stop offset=".5"/><stop offset=".7"/><stop stop-opacity="0" offset="1"/></linearGradient><linearGradient id="linearGradient-25-9" x1="12.869" x2="60.224" y1="32.592" y2="82.548" gradientTransform="scale(1.0053 .99474)" gradientUnits="userSpaceOnUse"><stop stop-opacity="0" offset="0"/><stop offset=".3"/><stop offset=".5"/><stop offset=".7"/><stop stop-opacity="0" offset="1"/></linearGradient><linearGradient id="linearGradient-26-20" x1="10.505" x2="49.094" y1="44.42" y2="84.942" gradientTransform="scale(1.0064 .99359)" gradientUnits="userSpaceOnUse"><stop stop-opacity="0" offset="0"/><stop offset=".3"/><stop offset=".5"/><stop offset=".7"/><stop stop-opacity="0" offset="1"/></linearGradient><linearGradient id="linearGradient-27-01" x1="8.0864" x2="37.709" y1="57.034" y2="87.215" gradientTransform="scale(1.0141 .98612)" gradientUnits="userSpaceOnUse"><stop stop-opacity="0" offset="0"/><stop offset=".3"/><stop offset=".5"/><stop offset=".7"/><stop stop-opacity="0" offset="1"/></linearGradient><linearGradient id="linearGradient-28-36" x1="5.6918" x2="26.439" y1="69.725" y2="90.013" gradientTransform="scale(1.0245 .97605)" gradientUnits="userSpaceOnUse"><stop stop-opacity="0" offset="0"/><stop offset=".3"/><stop offset=".5"/><stop offset=".7"/><stop stop-opacity="0" offset="1"/></linearGradient></defs><g transform="translate(1.5269 -285.05)"><rect x="-1.5266" y="285.05" width="49.462" height="49.462" rx="24.731" ry="24.731" fill="url(#linearGradient2639)" paint-order="markers stroke fill"/><g transform="matrix(.21931 0 0 .21932 2.79 289.33)" fill="none"><path d="m93.129 0.18906c-12.063 1.4066-23.814 4.7293-34.795 9.8385-21.727 10.259-39.051 27.762-48.893 49.399-4.8959 10.932-7.9642 22.571-9.0866 34.465-1.1166-12.253 0.57638-24.596 4.9542-36.119 8.8497-23.613 27.475-42.423 51.242-51.749 11.595-4.6121 24.095-6.6059 36.578-5.8345z" fill="url(#linearGradient-1-2)"/><path d="m11.739 93.892c-1.1125-10.806 0.29877-21.72 4.1261-31.908 7.7316-20.916 24.216-37.564 45.27-45.721 10.256-4.0349 21.316-5.7047 32.33-4.8813-10.593 1.3679-20.9 4.3721-30.54 8.9015-19.019 9.0795-34.21 24.414-42.943 43.349-4.3499 9.5972-7.132 19.81-8.2437 30.26z" fill="url(#linearGradient-2-3)"/><path d="m23.125 93.892c-1.1163-9.3315-8.55e-4 -18.79 3.2575-27.623 6.5752-18.169 20.844-32.639 39.108-39.658 8.8783-3.4758 18.462-4.8552 27.98-4.0276-9.0897 1.3609-17.916 4.0726-26.177 8.0422-16.23 7.9382-29.212 21.095-36.792 37.288-3.7828 8.2422-6.2701 17.002-7.3767 25.979z" fill="url(#linearGradient-3-9)"/><path d="m34.51 93.892c-1.1192-7.8825-0.28798-15.914 2.4231-23.413 5.4608-15.469 17.593-27.774 33.146-33.619 7.5396-2.8977 15.681-3.9558 23.727-3.0839-7.6176 1.3139-15.002 3.7046-21.923 7.098-13.518 6.7631-24.363 17.757-30.829 31.249-3.2379 6.908-5.4421 14.24-6.5441 21.769z" fill="url(#linearGradient-4-6)"/><path d="m45.895 93.892c-1.1228-6.4168-0.58228-13.009 1.5716-19.165 4.3252-12.744 14.282-22.879 27.084-27.568 6.1853-2.3304 12.87-3.0817 19.43-2.1835-6.1263 1.2829-12.051 3.3657-17.615 6.1931-10.768 5.6024-19.445 14.428-24.777 25.199-2.6846 5.5656-4.5995 11.46-5.6937 17.525z" fill="url(#linearGradient-5-4)"/><path d="m57.28 93.892c-2.3431-9.6271 1.2956-20.51 8.466-27.914 7.1253-7.4431 17.997-11.598 27.897-9.7839-4.5696 1.3047-8.9721 3.1201-13.121 5.4107-7.8948 4.4865-14.3 11.125-18.443 19.113-2.1071 4.1962-3.7173 8.6166-4.7988 13.174z" fill="url(#linearGradient-6-26)"/><path d="m68.666 93.892c-2.3357-6.659 0.02515-14.583 5.0439-19.896 4.9599-5.3607 12.806-8.3339 19.749-6.5691-3.0113 1.2821-5.9048 2.8169-8.6483 4.5873-5.0684 3.3191-9.2541 7.7847-12.206 13.022-1.57 2.8345-2.8877 5.7974-3.9381 8.8555z" fill="url(#linearGradient-7-86)"/><g transform="translate(0 93)"><path d="m0.18041 0.94777c1.4068 12.035 4.7297 23.758 9.839 34.712 10.259 21.675 27.762 38.958 49.399 48.777 10.932 4.8845 22.571 7.9456 34.465 9.0651-12.253 1.1144-24.596-0.57441-36.119-4.9419-23.613-8.8292-42.422-27.41-51.749-51.12-4.6121-11.568-6.606-24.039-5.8345-36.492z" fill="url(#linearGradient-8-8)"/><path d="m93.884 82.144c-10.806 1.1101-21.72-0.29782-31.909-4.1163-20.916-7.7131-37.564-24.158-45.721-45.163-4.0351-10.232-5.7051-21.265-4.8819-32.253 1.3681 10.568 4.3723 20.85 8.9015 30.467 9.0796 18.974 24.414 34.129 43.349 42.841 9.5974 4.3397 19.81 7.1152 30.261 8.2241z" fill="url(#linearGradient-9-9)"/><path d="m93.884 70.786c-9.3315 1.1134-18.79 5.85e-4 -27.623-3.2497-18.169-6.5598-32.638-20.794-39.659-39.015-3.4753-8.8576-4.8547-18.418-4.0276-27.915 1.3612 9.0683 4.0729 17.874 8.0422 26.116 7.9384 16.191 21.096 29.142 37.288 36.704 8.2422 3.7738 17.002 6.2552 25.979 7.3592z" fill="url(#linearGradient-10-2)"/><path d="m93.884 59.427c-7.8825 1.1165-15.914 0.28748-23.413-2.4168-15.469-5.4481-27.774-17.551-33.62-33.068-2.8977-7.5217-3.9557-15.644-3.0833-23.671 1.3138 7.5995 3.7046 14.966 7.098 21.871 6.7631 13.486 17.757 24.305 31.249 30.755 6.9079 3.2304 14.24 5.4294 21.769 6.5286z" fill="url(#linearGradient-11-7)"/><path d="m93.884 48.067c-6.4169 1.12-13.009 0.58052-19.165-1.5684-12.745-4.3141-22.88-14.247-27.569-27.02-2.3302-6.1707-3.0814-12.84-2.1835-19.384 1.2833 6.1117 3.3663 12.022 6.1936 17.574 5.6029 10.742 14.428 19.398 25.199 24.719 5.5657 2.6783 11.46 4.5887 17.525 5.6802z" fill="url(#linearGradient-12-8)"/><path d="m93.884 36.71c-9.6277 2.3375-20.51-1.2925-27.914-8.4453-7.4431-7.109-11.599-17.955-9.7839-27.831 1.3046 4.5588 3.12 8.9508 5.4107 13.09 4.4864 7.8762 11.124 14.267 19.113 18.4 4.1966 2.1017 8.6171 3.7078 13.175 4.7868z" fill="url(#linearGradient-13-7)"/><path d="m93.884 25.352c-6.659 2.3296-14.584-0.02566-19.896-5.032-5.3613-4.9482-8.3339-12.777-6.5696-19.703 1.2825 3.0043 2.8175 5.891 4.5879 8.6284 3.3192 5.0564 7.7847 9.2321 13.022 12.177 2.8347 1.566 5.7976 2.8805 8.8555 3.9288z" fill="url(#linearGradient-14-2)"/></g><g transform="translate(93 93)"><path d="m0.94093 93.794c12.034-1.4057 23.758-4.7274 34.712-9.8356 21.676-10.259 38.959-27.762 48.777-49.399 4.8843-10.932 7.9454-22.571 9.0651-34.465 1.1141 12.253-0.57492 24.596-4.9425 36.119-8.8288 23.613-27.41 42.422-51.12 51.749-11.568 4.6111-24.038 6.604-36.492 5.8317z" fill="url(#linearGradient-15-6)"/><path d="m82.138 0.091261c1.1099 10.806-0.29804 21.72-4.1163 31.908-7.7133 20.916-24.158 37.564-45.163 45.721-10.232 4.0349-21.265 5.7047-32.253 4.8813 10.568-1.3679 20.85-4.3721 30.467-8.9015 18.974-9.0796 34.129-24.414 42.841-43.349 4.3396-9.5972 7.1151-19.81 8.2241-30.26z" fill="url(#linearGradient-16-1)"/><path d="m70.779 0.091261c1.1137 9.3315 8.73e-4 18.79-3.2497 27.623-6.5596 18.169-20.794 32.638-39.016 39.658-8.8572 3.4758-18.418 4.8552-27.914 4.0276 9.0682-1.3608 17.874-4.0725 26.115-8.0422 16.191-7.9381 29.143-21.095 36.705-37.288 3.7738-8.2422 6.2552-17.002 7.3592-25.979z" fill="url(#linearGradient-17-8)"/><path d="m59.421 0.091261c1.1165 7.8825 0.2873 15.914-2.4174 23.413-5.4479 15.469-17.551 27.774-33.068 33.619-7.5217 2.8977-15.644 3.9558-23.671 3.0839 7.5995-1.3139 14.966-3.7046 21.871-7.098 13.486-6.7631 24.306-17.757 30.756-31.249 3.2302-6.908 5.4292-14.24 6.5286-21.769z" fill="url(#linearGradient-18-78)"/><path d="m48.062 0.091261c1.1201 6.4168 0.5809 13.009-1.5679 19.165-4.315 12.744-14.248 22.879-27.02 27.568-6.1706 2.3304-12.84 3.0817-19.384 2.1835 6.1117-1.2829 12.022-3.3657 17.574-6.1931 10.742-5.6024 19.399-14.428 24.719-25.199 2.6782-5.5656 4.5886-11.46 5.6802-17.525z" fill="url(#linearGradient-19-21)"/><path d="m36.704 0.091261c2.3375 9.6271-1.2925 20.51-8.4459 27.914-7.1084 7.4431-17.955 11.598-27.831 9.7839 4.5587-1.3047 8.9508-3.1201 13.09-5.4107 7.8761-4.4865 14.266-11.125 18.399-19.113 2.1021-4.1962 3.7084-8.6166 4.7874-13.174z" fill="url(#linearGradient-20-9)"/><path d="m25.345 0.091261c2.3301 6.659-0.025085 14.583-5.032 19.896-4.9482 5.3607-12.776 8.3339-19.702 6.5691 3.0042-1.2821 5.8908-2.8169 8.6278-4.5873 5.0564-3.3191 9.2322-7.7847 12.177-13.022 1.5663-2.8345 2.8808-5.7974 3.9288-8.8555z" fill="url(#linearGradient-21-6)"/></g><g transform="translate(93)"><path d="m93.803 93.122c-1.4068-12.063-4.7297-23.814-9.839-34.795-10.259-21.727-27.762-39.051-49.399-48.893-10.932-4.8961-22.571-7.9645-34.465-9.0866 12.253-1.1171 24.596 0.57571 36.119 4.9536 23.613 8.8501 42.422 27.475 51.749 51.242 4.6122 11.595 6.606 24.096 5.8345 36.579z" fill="url(#linearGradient-22-16)"/><path d="m0.09934 11.733c10.806-1.1127 21.72 0.29852 31.909 4.1261 20.916 7.7314 37.564 24.216 45.721 45.27 4.0351 10.256 5.7051 21.316 4.8819 32.33-1.3681-10.593-4.3723-20.899-8.9015-30.54-9.0795-19.019-24.414-34.21-43.349-42.943-9.5974-4.35-19.81-7.1321-30.261-8.2437z" fill="url(#linearGradient-23-1)"/><path d="m0.09934 23.118c9.3315-1.1161 18.79-6.27e-4 27.623 3.2575 18.169 6.5754 32.638 20.844 39.659 39.108 3.4753 8.8786 4.8547 18.462 4.0276 27.981-1.3612-9.0898-4.0729-17.917-8.0422-26.178-7.9384-16.23-21.096-29.211-37.288-36.792-8.2422-3.7828-17.002-6.2701-25.979-7.3767z" fill="url(#linearGradient-24-2)"/><path d="m0.09934 34.503c7.8825-1.1192 15.914-0.28818 23.413 2.4225 15.469 5.461 27.774 17.593 33.62 33.146 2.8977 7.5396 3.9557 15.681 3.0833 23.727-1.3138-7.6176-3.7046-15.002-7.098-21.923-6.7631-13.518-17.757-24.363-31.249-30.828-6.9079-3.238-14.24-5.4422-21.769-6.5441z" fill="url(#linearGradient-25-9)"/><path d="m0.09934 45.89c6.4169-1.1226 13.009-0.5819 19.165 1.5722 12.745 4.3245 22.88 14.281 27.569 27.084 2.3302 6.1853 3.0814 12.87 2.1835 19.43-1.2833-6.1262-3.3663-12.051-6.1936-17.615-5.6029-10.767-14.428-19.444-25.199-24.777-5.5657-2.6847-11.46-4.5996-17.525-5.6937z" fill="url(#linearGradient-26-20)"/><path d="m0.09934 57.274c9.6277-2.3431 20.51 1.2956 27.914 8.4654 7.4431 7.1258 11.599 17.997 9.7839 27.898-1.3046-4.5696-3.12-8.9721-5.4107-13.121-4.4864-7.8949-11.124-14.301-19.113-18.444-4.1966-2.1067-8.6171-3.7166-13.175-4.7982z" fill="url(#linearGradient-27-01)"/><path d="m0.09934 68.659c6.659-2.3351 14.584 0.02572 19.896 5.0439 5.3613 4.9599 8.3339 12.807 6.5696 19.749-1.2825-3.0114-2.8175-5.905-4.5879-8.6488-3.3192-5.0684-7.7847-9.2541-13.022-12.206-2.8347-1.5697-5.7976-2.8873-8.8555-3.9381z" fill="url(#linearGradient-28-36)"/></g></g></g></svg>