<?xml version="1.0" encoding="UTF-8"?>
<!-- Created with Inkscape (http://www.inkscape.org/) -->
<svg width="32.147mm" height="32.107mm" version="1.1" viewBox="0 0 32.147 32.107" xmlns="http://www.w3.org/2000/svg">
 <g transform="translate(-12.933 -244.49)">
  <g transform="matrix(.26458 0 0 .26458 9.9958 243.14)">
   <g>
    <path d="m57.75 94.2q-0.35 1.2-0.25 2.45l13.2-1q0-0.4 0-0.8-0.1-1.2-0.7-2.1-1 0.25-1.95 0.5-1.8 0.3-3.55 0.65-1.55 0.2-3.1 0.4-1.75 0.2-3.65-0.1m-15.5 1.3-0.7 1.85 14.15-1.75-0.4-1.8q-1.05 0.35-2.05 0.7-1 0.25-1.95 0.55-1.8 0.3-3.55 0.65-1.5 0.05-3 0.2-1.25-0.25-2.5-0.4m16.2-22-2.5-0.55q0.1 1.8 0.3 3.65 0.15 1.5 0.45 3 0.4 2 1.55 3.5 0.3 0.4 0.65 0.85 1.1 0.35 2.3 0.45 1.05 0.35 2.15 0.55 2.2-0.4 4.35-0.95 1.6-0.25 2.85-1.4 0.4-0.45 0.8-0.85v-5.35l-1.8-0.15q-0.15 0.7-0.4 1.4-0.35 1.15-1.05 2.1-0.6 0.85-1.5 1.3-1.55 0.95-3.2 0.7-1.95 0.05-3.15-1.25-1.35-1.4-1.55-3.5-0.2-1.75-0.25-3.5m-13.85-1.8-2.05-0.4q0.05 0.95 0.2 1.95 0.25 1.75 0.65 3.45 0.4 1.65 1.3 2.9 0.8 1.15 1.95 1.9 1.4 0.8 3.3 1 2.1 0.2 3.55-1.15 0.4-0.4 0.7-0.9 1.15-1.55 1.35-3.45 0.15-1.55 0.35-3.05l-0.35-0.15-2.4-0.45q0.1 0.7 0.1 1.4-0.05 1.1-0.4 2.15-0.55 1.85-2.5 2.05-1.9 0.2-3.45-0.95-1.3-0.95-1.9-2.55-0.65-1.8-0.4-3.75m-18.7 26.3 0.75 0.8 5.75 0.5-0.05-0.05q0.2-0.1 0.5-0.2 0.9-0.2 1.85-0.4 0.65-0.2 1.35-0.35 1.85-0.45 3.75-0.85l-0.35-2.3q-1.7 1.1-3.7 1.25-1.95 0.3-3.65-0.75-1.45-0.95-2.15-2.6-1.15 1.05-2.1 2.25-1.05 1.3-1.95 2.7m6.95-25.3q-0.7-1.1-1.35-2.2l-2.6 1.2q0.75 1.35 1.65 2.7 1.2 1.8 2.55 3.6 0.6 0.7 1.3 1.35 0.5 0.55 1.1 1.1 1.3 1.2 3.15 1.6 0.65-0.1 1.3-0.15 0.45-0.4 0.85-0.9 0.35-0.35 0.6-0.8 0.15-0.25 0.2-0.5 0.2-0.7 0.35-1.35 0.45-1.75 0.5-3.5t0.05-3.5l-2.35-0.7q0.5 2.25 0.2 4.5-0.15 0.95-0.45 1.85-0.2 0.5-0.45 0.95-0.85 0.6-1.75 0.1-1.9-0.9-2.95-2.45-0.95-1.45-1.9-2.9m73.3 23q-0.8-0.2-1.5-0.55l-0.35 2.3 7.5 1.7q0.05 0.05 0.05 0.1-0.1-0.05-0.2-0.05 0 0.05 0.05 0.1l5.75-0.5 0.75-0.8q-0.9-1.4-1.9-2.65t-2.15-2.3q-0.55 1.7-2.1 2.6-0.55 0.3-1.15 0.4-0.8 0.25-1.65 0.35-1.6-0.3-3.1-0.7m-19.55 0.95q0.2-1.25-0.25-2.45-1.85 0.15-3.6 0.1-1.55-0.2-3.05-0.4-1.8-0.35-3.6-0.65-1-0.25-2-0.5-0.45 0.9-0.65 2.1-0.05 0.4-0.05 0.8l13.2 1m2.2-2.85-0.4 1.8 14.15 1.75-0.7-1.85q-1.9 0.5-3.9 0.35-1.65-0.2-3.2-0.65-1.95-0.25-3.85-0.7-1.05-0.35-2.1-0.7m-0.65-20.85-2.5 0.55q0.25 1.9-0.05 3.55-0.3 2-1.65 3.45-1.45 1.4-3.25 1.25-1.65 0.25-3.2-0.55-1.5-0.75-2.05-2.35-0.5-1.3-0.9-2.6l-1.8 0.15v5.35q0.4 0.4 0.85 0.85 1.25 1.15 2.75 1.6 2.2 0.35 4.45 0.7 1.1-0.15 2.2-0.25 1.1-0.35 2.2-0.7 0.35-0.45 0.7-0.9 1.2-1.45 1.6-3.45 0.25-1.5 0.4-3.05 0.2-1.8 0.25-3.6m13.25 0.25q0.1-0.95 0.15-1.9l-2.05 0.4q0.15 1.85-0.45 3.7-0.25 0.75-0.7 1.45-0.95 1.4-2.5 1.9-1.9 0.7-3.55-0.55-0.65-0.55-0.95-1.35-0.35-1-0.4-2.1-0.05-0.7 0-1.4l-2.4 0.45-0.35 0.15q0.3 1.9 0.75 3.8 0.15 0.8 0.5 1.55 0.55 1.1 1.4 1.95 0.65 0.65 1.6 1 0.8 0.15 1.8 0.25 1.85-0.15 3.35-1 1.2-0.8 1.95-1.9 1.15-1.65 1.5-3.7 0.2-1.35 0.35-2.7m2.45-0.85q0-0.85 0.1-1.7l-2.35 0.7q0 1.2 0.1 2.35 0.15 1.95 0.45 3.8 0.25 1.4 0.85 2.65 0.35 0.8 1.1 1.25 0.6 0.45 1.35 0.2 1.05 0.05 2-0.5 1.25-0.75 2.35-1.75 0.65-0.65 1.2-1.4 1.35-1.75 2.55-3.6 0.85-1.3 1.65-2.65l-2.6-1.2q-0.65 1.1-1.35 2.2-0.9 1.45-1.85 2.85-1.05 1.45-2.5 2.35-1.85 1.1-2.6-0.9-0.35-0.9-0.4-1.9-0.1-1.35-0.05-2.75z" fill="#ddd"/>
    <path d="m60.1 91.4q-1.65 0.95-2.35 2.8 1.9 0.3 3.65 0.1 1.55-0.2 3.1-0.4 1.75-0.35 3.55-0.65 0.95-0.25 1.95-0.5-0.2-0.25-0.4-0.5-1.4-1.4-3.35-1.6-1.6-0.2-3.2-0.1t-2.95 0.85m-15.35 4.5q1.5-0.15 3-0.2 1.75-0.35 3.55-0.65 0.95-0.3 1.95-0.55 1-0.35 2.05-0.7-0.65-1.75-2.4-2.5-1.3-0.5-2.7-0.6-1.35 0.3-2.7 0.6-1.8 0.5-3.15 1.65-1.25 1-2.1 2.55 1.25 0.15 2.5 0.4m13.95-18.9q0.2 2.1 1.55 3.5 1.2 1.3 3.15 1.25 1.65 0.25 3.2-0.7 0.9-0.45 1.5-1.3 0.7-0.95 1.05-2.1 0.25-0.7 0.4-1.4l1.8 0.15-0.35-1.85q-0.65 0-1.3 0-1.4-0.05-2.8-0.05-1.4-0.1-2.8-0.2-1.4-0.15-2.8-0.3-1.45-0.25-2.85-0.5 0.05 1.75 0.25 3.5m-5.55-3.65-8.55-1.65q-0.25 1.95 0.4 3.75 0.6 1.6 1.9 2.55 1.55 1.15 3.45 0.95 1.95-0.2 2.5-2.05 0.35-1.05 0.4-2.15 0-0.7-0.1-1.4m2.75 0.6 0.05-1q-1.55-0.4-3.1-0.8-0.6-0.25-1.15-0.45l3.85 2.1 0.35 0.15m-20.15 22.45q2-0.15 3.7-1.25-0.3-1.6-1.45-2.7-0.95-0.85-2.05-1.55-2.4 0.35-4.65 1.35-0.7 0.4-1.35 0.8 0.7 1.65 2.15 2.6 1.7 1.05 3.65 0.75m-4.25-25.9q0.65 1.1 1.35 2.2 0.95 1.45 1.9 2.9 1.05 1.55 2.95 2.45 0.9 0.5 1.75-0.1 0.25-0.45 0.45-0.95 0.3-0.9 0.45-1.85 0.3-2.25-0.2-4.5l-2.65-0.35q1.35-0.05 2.75-0.1 0.8 0.15 1.7-0.2 0.2-0.1 0.45-0.2-1-0.25-2-0.45-3.65-0.4-7.05 0.5-0.95 0.3-1.85 0.65m73.15 24.65q0.7 0.35 1.5 0.55 1.5 0.4 3.1 0.7 0.85-0.1 1.65-0.35 0.6-0.1 1.15-0.4 1.55-0.9 2.1-2.6-0.65-0.4-1.35-0.75-2.15-1.15-4.65-1.4-1.1 0.7-1.95 1.6-1.1 1.1-1.55 2.65m-21.9-0.85q1.75 0.05 3.6-0.1-0.6-1.9-2.3-2.8-1.35-0.8-2.9-0.85-1.6-0.15-3.25 0.1-1.85 0.1-3.35 1.6-0.25 0.25-0.45 0.5 1 0.25 2 0.5 1.8 0.3 3.6 0.65 1.5 0.2 3.05 0.4m6.05-0.5q1.05 0.35 2.1 0.7 1.9 0.45 3.85 0.7 1.55 0.45 3.2 0.65 2 0.15 3.9-0.35-0.65-1.4-2-2.55-1.35-1.2-3.2-1.65-1.4-0.3-2.75-0.6-1.35 0.1-2.55 0.6-1.7 0.8-2.55 2.5m10.7-22.1-8.55 1.65q-0.05 0.7 0 1.4 0.05 1.1 0.4 2.1 0.3 0.8 0.95 1.35 1.65 1.25 3.55 0.55 1.55-0.5 2.5-1.9 0.45-0.7 0.7-1.45 0.6-1.85 0.45-3.7m-11.35 1.25 0.05 1 0.35-0.15 3.85-2.1q-0.6 0.2-1.15 0.45-1.55 0.4-3.1 0.8m-2.5 0.55q-1.4 0.25-2.8 0.5-1.4 0.15-2.8 0.3-1.4 0.1-2.8 0.25-1.45-0.05-2.85 0-0.65 0-1.3 0l-0.35 1.85 1.8-0.15q0.4 1.3 0.9 2.6 0.55 1.6 2.05 2.35 1.55 0.8 3.2 0.55 1.8 0.15 3.25-1.25 1.35-1.45 1.65-3.45 0.3-1.65 0.05-3.55m18.3-2.85q-0.1 0.85-0.1 1.7-0.05 1.4 0.05 2.75 0.05 1 0.4 1.9 0.75 2 2.6 0.9 1.45-0.9 2.5-2.35 0.95-1.4 1.85-2.85 0.7-1.1 1.35-2.2-0.9-0.35-1.8-0.65-1.65-0.3-3.3-0.55-2 0.1-3.8 0.05-1 0.2-1.95 0.45l4.85 0.5z" fill="#fff"/>
   </g>
   <g>
    <path d="m110.2 99.4q-5.55-0.45-2.85 0.15l2.85-0.15q0.45 0 0.95 0.05l-0.5-0.1-0.45 0.05m-73.25 0.15q2.7-0.6-2.85-0.15l2.85 0.15m-2.85-0.15-0.45-0.05-0.5 0.1q0.5-0.05 0.95-0.05m-7.2-0.45-0.25-0.15 0.15 0.15h0.1m90.6 0 0.15-0.15-0.25 0.15z" fill="#fff"/>
    <path d="m107.6 99.6q-0.1-0.05-0.25-0.05l-2.9 0.15 3.1 0.1h1q-0.5-0.1-0.95-0.2m-71.85 0.2h1l3.1-0.1-2.9-0.15q-0.15 0-0.25 0.05-0.45 0.1-0.95 0.2m-6.85-28.1q-0.1 0.05-0.15 0.1-6.9 3.9-8.2 12.3-0.55 9.6 4.6 14.55h0.05q0 0.05 0.1 0.1l0.45-0.55 0.15-0.2q3.15-6.5 10.05-7.1 3.35 0.85 3.85 6.55-8.85 1.85-7.35 1.75l-0.05 0.1 1.25 0.05 0.45 0.05q5.55-0.45 2.85 0.15l2.9 0.15 0.95 0.05 0.15 0.8q2.65-0.65 5.85-1.55 4.45-1.3 9.15-2.1l-0.25-1.25v-0.05l-14 1.8-0.15 0.05v-0.1q1.45-5.8 8.65-6.65 5.2 0.35 5.5 4.9l1.7 0.3q0.7-5.8 6.8-5.4 6.55-0.2 6.5 5.15 0.4 0 0.85 0v-14.15q-0.1 0.1-0.2 0.25-1.6 1.7-3.6 2.45-4.4 1.5-8.85-0.25-3.05-3.2-2.95-11-0.55 9.75-5.25 9.5-7.75 0.15-8.15-11.1h-0.05q0.05 10-2.95 10.6-3.6 0.65-9.1-7.5-0.5-0.8-1.05-1.65l-0.5-1.1m72.9-0.35h-0.05q-0.4 11.25-8.15 11.1-4.7 0.25-5.25-9.5 0.1 7.8-2.95 11-4.45 1.75-8.85 0.25-2-0.75-3.6-2.45-0.1-0.15-0.2-0.25v14.15q0.45 0 0.85 0-0.05-5.35 6.5-5.15 6.1-0.4 6.8 5.4l1.7-0.3q0.3-4.55 5.5-4.9 7.2 0.85 8.65 6.65v0.1l-0.15-0.05-14-1.8v0.05l-0.25 1.25q4.7 0.8 9.15 2.1 3.2 0.9 5.85 1.55l0.15-0.8 0.95-0.05 2.9-0.15q-2.7-0.6 2.85-0.15l0.45-0.05 1.25-0.05-0.05-0.1q1.5 0.1-7.35-1.75 0.5-5.7 3.85-6.55 6.9 0.6 10.05 7.1l0.15 0.2 0.45 0.55q0.1-0.05 0.1-0.1h0.05q5.15-4.95 4.6-14.55-1.3-8.4-8.2-12.3-0.05-0.05-0.15-0.1l-0.5 1.1q-0.55 0.85-1.05 1.65-5.5 8.15-9.1 7.5-3-0.6-2.95-10.6z"/>
   </g>
   <g fill="none" stroke="#000" stroke-linecap="round" stroke-linejoin="round">
    <path d="m101.8 71.35q2.3-0.9 5-1.05-4.9764 0-5-0.75-2e-4 0.90332-0.05 1.75v0.05m0.05 0q-0.05 10 2.95 10.6 3.6 0.65 9.1-7.5 0.5-0.8 1.05-1.65m-26.55 0.15q0.55 9.75 5.25 9.5 7.75 0.15 8.15-11.1m7.3-1.1q-1.25 0.05-2.25 0.05m-4.05 27.15v-0.1q-1.45-5.8-8.65-6.65-5.2 0.35-5.5 4.9l14 1.8m-14-1.75v-0.05m-1.7 0.3q0.05 0.35 0.05 0.75 0.05 0 0.1 0m16.45 3.1 0.95-0.05 2.9-0.15q-2.7-0.6 2.85-0.15l0.45-0.05 1.25-0.05m-7.4-1.85q0.5-5.7 3.85-6.55 6.9 0.6 10.05 7.1m-0.75 0.8-0.25 0.15h0.1m1.05-0.75-0.9 0.6m-15.9-27.5-13 2.5m-0.4-0.85q0.1 7.8-2.95 11-4.45 1.75-8.85 0.25-2-0.75-3.6-2.45-0.1-0.15-0.2-0.25m0.85 14.15q-0.05-5.35 6.5-5.15 6.1-0.4 6.8 5.4m-57.5-23.1q0.55 0.85 1.05 1.65 5.5 8.15 9.1 7.5 3-0.6 2.95-10.6-2.3-0.9-5-1.05-1 0-2.25-0.05m-9.35 27.75q3.15-6.5 10.05-7.1 3.35 0.85 3.85 6.55m-7.4 1.85 1.25 0.05 0.45 0.05q5.55-0.45 2.85 0.15l2.9 0.15 0.95 0.05m14.9-4.1v-0.05l-14 1.8m-0.15 0.05v-0.1q1.45-5.8 8.65-6.65 5.2 0.35 5.5 4.9m1.7 0.3q0.7-5.8 6.8-5.4 6.55-0.2 6.5 5.15m0.85-14.15q-0.1 0.1-0.2 0.25-1.6 1.7-3.6 2.45-4.4 1.5-8.85-0.25-3.05-3.2-2.95-11-0.55 9.75-5.25 9.5-7.75 0.15-8.15-11.1m-15.9 27.45 0.25 0.15 5.5 0.35m-6.65-1.1 0.9 0.6m0.15 0.15h0.1m15.6-29.4q1.95e-4 0.90332 0.05 1.75l13 2.5m-13-2.5v0.05m-5.05-1.05q4.9762 0 5-0.75m14.75 27.1q0.05 0 0.1 0 0-0.4 0.05-0.75m-29.35 3.85 7.55 0.05q0.05 0 0.15 0 0.5-0.1 0.95-0.2 0.1-0.05 0.25-0.05l-2.85-0.15q-0.45 0-0.95 0.05l0.5-0.1m2.1 0.45h1m73.9-0.45 0.5 0.1q-0.5-0.05-0.95-0.05l-2.85 0.15q0.15 0 0.25 0.05 0.45 0.1 0.95 0.2 0.1 0 0.15 0l7.55-0.05m-8.7 0.05h1m8.85-0.85-5.5 0.35"/>
    <path d="m115.4 71.7q-2.75-1.55-6.45-2.4-3.75-0.1-7.15 0.25-5.05 0.5-9.2 2.15-0.6 0.2-1.15 0.45-1.55 0.45-3.1 0.8m30.65 25.8q0.1-0.05 0.1-0.1h0.05q5.15-4.95 4.6-14.55-1.3-8.4-8.2-12.3-0.05-0.05-0.15-0.1m-28.35 24.95q0.65 0.1 1.3 0.25 4.7 0.8 9.15 2.1 3.2 0.9 5.85 1.55m15.65-1.8q-0.45 0.45-1 0.85l-0.05 0.05q-0.55 0.4-1.2 0.85-0.05 0-0.05 0.05-0.9 0.5-1.85 0.95-2.8 0.55-7.45-0.2h-0.1q-1.4-0.2-3-0.55-0.05 0-0.1 0-0.4-0.1-0.85-0.2m-29.75-4.9h0.75q6.4 0.05 12.45 1 0.1 0 0.15 0m-14.2-1q0.45 0 0.85 0m-31.1-26.1q-3.4-0.35-7.15-0.25-3.7 0.85-6.45 2.4-0.1 0.05-0.15 0.1-6.9 3.9-8.2 12.3-0.55 9.6 4.6 14.55h0.05q0 0.05 0.1 0.1m15.65 1.8q2.65-0.65 5.85-1.55 4.45-1.3 9.15-2.1m14.75-1.25q0.4 0 0.85 0m-15.6-22.7q-1.55-0.35-3.1-0.8-0.55-0.25-1.15-0.45-4.15-1.65-9.2-2.15m13.45 27.35q0.65-0.15 1.3-0.25m0.1 0q0.05 0 0.15 0 6.45-1 13.2-1m17.65-22.7q-7.55 1.75-15.05 1.6h-2.3q-7.5 0.15-15.05-1.6m15.6 22.7h1.2m-47.45 3.1q0.45 0.45 1 0.85l0.05 0.05q0.55 0.4 1.2 0.85 0.05 0 0.05 0.05 0.9 0.5 1.85 0.95 2.8 0.55 7.45-0.2h0.1q1.4-0.2 3-0.55 0.05 0 0.1 0 0.4-0.1 0.85-0.2" stroke-width="3"/>
    <path d="m72.05 75.45 0.1 20.2" stroke-width="2"/>
   </g>
  </g>
 </g>
</svg>
