<?xml version="1.0" encoding="UTF-8"?>
<!-- Created with Inkscape (http://www.inkscape.org/) -->
<svg width="31.856mm" height="31.829mm" version="1.1" viewBox="0 0 31.856 31.829" xmlns="http://www.w3.org/2000/svg" xmlns:xlink="http://www.w3.org/1999/xlink">
 <defs>
  <linearGradient id="linearGradient15966" x1="57.1" x2="57.1" y1=".35" y2="113.85" gradientUnits="userSpaceOnUse">
   <stop stop-color="#0df" offset="0"/>
   <stop stop-color="#03b" offset="1"/>
  </linearGradient>
  <linearGradient id="linearGradient15994" x1="57.1" x2="57.1" y1=".35" y2="113.85" gradientUnits="userSpaceOnUse">
   <stop stop-color="#f7d" offset="0"/>
   <stop stop-color="#f5e" offset=".48235"/>
   <stop stop-color="#c0e" offset="1"/>
  </linearGradient>
 </defs>
 <g transform="translate(3.9065 -214.97)">
  <g transform="matrix(.26458 0 0 .26458 -3.1127 215.76)">
   <path d="m97.2 97.2q16.65-16.6 16.65-40.1t-16.65-40.15q-16.6-16.6-40.1-16.6t-40.15 16.6q-8.75 8.8-12.9 19.5-3.7 9.55-3.7 20.65t3.7 20.65q4.15 10.7 12.9 19.45 16.65 16.65 40.15 16.65t40.1-16.65z" fill="url(#linearGradient15994)"/>
   <path d="m113.7 57.1q-1.5 20.55-17.3 36.65-15.8 16.05-39.3 16.1t-39.3-16.05q-9.45-9.65-13.75-20.85-2.9-7.55-3.5-15.85-0.1-1.15-0.15-2.3-0.05 1.15-0.05 2.3 0 11.1 3.7 20.65 4.15 10.7 12.9 19.45 16.65 16.65 40.15 16.65t40.1-16.65q16.65-16.6 16.65-40.1 0-1.15-0.05-2.3-0.05 1.15-0.1 2.3z" fill="#80a"/>
   <g>
    <path d="m0.35 57.1q0 1.15 0.05 2.25 0.05-1.15 0.15-2.25h-0.2m113.35 0q0.05 1.1 0.1 2.25 0.05-1.1 0.05-2.25z" fill="url(#linearGradient15966)"/>
    <path d="m113.7 57.1h0.15q0-23.5-16.65-40.15-16.6-16.6-40.1-16.6t-40.15 16.6q-8.75 8.8-12.9 19.5-3.7 9.55-3.7 20.65h0.2q0.55-8.35 3.5-15.85 4.35-11.1 13.8-20.45 15.85-15.7 39.35-15.75t39.3 15.7q15.75 15.75 17.2 36.35z" fill="#fbe"/>
   </g>
   <path d="m114.4 57.15q0 23.7-16.85 40.4-16.7 16.75-40.4 16.75-23.65 0-40.45-16.75-8.5-8.5-12.65-18.75-4.05-10-4.05-21.65t4.05-21.6q4.15-10.3 12.65-18.85 16.8-16.7 40.45-16.7 23.7 0 40.4 16.7 16.85 16.8 16.85 40.45z" fill="none" stroke="#000" stroke-linecap="round" stroke-linejoin="round" stroke-width="6"/>
   <path d="m44.8 88.6q0.7 0.1 1.55 0.1 1.75 0 3.15-0.5-2.35 0.15-4.7 0.4z" fill="#d38"/>
  </g>
 </g>
</svg>
