<?xml version="1.0" encoding="UTF-8"?>
<!-- Created with Inkscape (http://www.inkscape.org/) -->
<svg width="31.856mm" height="31.829mm" version="1.1" viewBox="0 0 31.856 31.829" xmlns="http://www.w3.org/2000/svg">
 <g transform="translate(-24.379 -271.89)">
  <g transform="matrix(.26458 0 0 .26458 25.173 272.69)">
   <g>
    <path d="m46 43.45q0-5.9-4.2-10.1-4.15-4.15-10.05-4.15t-10.1 4.15q-4.15 4.2-4.15 10.1 0 4.6 2.55 8.15 11.7-1.6 23.4 0 2.55-3.55 2.55-8.15m-20.35-10.5q1.85 0 3.15 1.3t1.3 3.15q0 1.9-1.3 3.2t-3.15 1.3q-1.9 0-3.2-1.3t-1.3-3.2q0-1.85 1.3-3.15t3.2-1.3m71.25 10.5q0-5.9-4.2-10.1-4.15-4.15-10.05-4.15t-10.1 4.15q-4.15 4.2-4.15 10.1 0 4.6 2.55 8.15 11.7-1.6 23.4 0 2.55-3.55 2.55-8.15m-20.35-10.5q1.85 0 3.15 1.3t1.3 3.15q0 1.9-1.3 3.2t-3.15 1.3q-1.9 0-3.2-1.3t-1.3-3.2q0-1.85 1.3-3.15t3.2-1.3z"/>
    <path d="m28.8 34.25q-1.3-1.3-3.15-1.3-1.9 0-3.2 1.3t-1.3 3.15q0 1.9 1.3 3.2t3.2 1.3q1.85 0 3.15-1.3t1.3-3.2q0-1.85-1.3-3.15m50.9 0q-1.3-1.3-3.15-1.3-1.9 0-3.2 1.3t-1.3 3.15q0 1.9 1.3 3.2t3.2 1.3q1.85 0 3.15-1.3t1.3-3.2q0-1.85-1.3-3.15z" fill="#fff"/>
   </g>
  </g>
 </g>
</svg>
