<?xml version="1.0" encoding="UTF-8"?>
<!-- Created with Inkscape (http://www.inkscape.org/) -->
<svg width="31.856mm" height="31.829mm" version="1.1" viewBox="0 0 31.856 31.829" xmlns="http://www.w3.org/2000/svg">
 <g transform="translate(-24.379 -271.89)">
  <g transform="matrix(.26458 0 0 .26458 25.173 272.69)">
   <path d="m87.9 88.7q12.2-12.15 15.2-29.1-45.2 10.35-91.6 0 0.15 1.05 0.4 2.05 3.15 15.65 14.55 27.05 11.6 11.6 27.6 12.65 1.55 0.1 3.15 0.1 18 0 30.7-12.75z" fill="#401"/>
   <path d="m87.9 88.7q12.2-12.15 15.2-29.1-45.2 10.35-91.6 0 0.15 1.05 0.4 2.05 20.55 7.55 49.4 8.1 2.3 13.35-7.25 31.6 1.55 0.1 3.15 0.1 18 0 30.7-12.75z" fill="#201"/>
   <g>
    <path d="m54.75 91.35q1.15-1.15 2.9-2.85-15.4-10.7-26.3 5.4 11.15 7.75 25.75 7.75 15.25-0.05 26.7-8.5-13.55-15.35-26.15-4.65-1.75 1.7-2.9 2.85m-8.4-4.7q2.2 0 3.75 0.8t1.55 1.9-1.55 1.9-3.75 0.8-3.75-0.8-1.55-1.9 1.55-1.9 3.75-0.8m22.15-0.15q1.75 0.5 2.1 1.75t-0.9 2.6q-1.25 1.3-3.35 1.85-2.15 0.6-3.9 0.1-1.7-0.55-2.05-1.8t0.85-2.55q1.25-1.35 3.4-1.95 2.1-0.55 3.85 0z" fill="#a15"/>
    <path d="m70.6 88.25q-0.35-1.25-2.1-1.75-1.75-0.55-3.85 0-2.15 0.6-3.4 1.95-1.2 1.3-0.85 2.55t2.05 1.8q1.75 0.5 3.9-0.1 2.1-0.55 3.35-1.85 1.25-1.35 0.9-2.6m-20.5-0.8q-1.55-0.8-3.75-0.8t-3.75 0.8-1.55 1.9 1.55 1.9 3.75 0.8 3.75-0.8 1.55-1.9-1.55-1.9z" fill="#d38"/>
   </g>
   <path d="m54.75 91.35q1.15-1.15 2.9-2.85-15.4-10.7-26.3 5.4m26.3-5.4q12.6-10.7 26.15 4.65" fill="none" stroke="#000" stroke-linecap="round" stroke-linejoin="round" stroke-width="1.5"/>
   <path d="m31.35 93.9q11.15 7.75 25.75 7.75 15.25-0.05 26.7-8.5" fill="none" stroke="#000" stroke-linecap="round" stroke-linejoin="round" stroke-width="2.5"/>
   <path d="m88.25 89.4q-2.15 2.05-4.4 3.75-11.45 8.45-26.75 8.5-14.6 0-25.8-7.75-2.85-2-5.5-4.5-12.95-12.2-14.3-29.8 46.4 10.35 91.6 0-2.05 17.6-14.85 29.8z" fill="none" stroke="#000" stroke-linecap="round" stroke-linejoin="round" stroke-width="2.5"/>
  </g>
 </g>
</svg>
