<svg xmlns="http://www.w3.org/2000/svg" viewBox="0 0 122.27 19.844"><path fill="#CCC" d="M0 0v19.84080159h3.99276007v-5.57164428L16.11763882.0003h-5.19314807L3.99276007 8.37431626V.0003zm18.33281667 0v11.99488005c0 1.05828942.21136789 2.08437916.6209038 3.05346946.39676602.93358067.96150038 1.77318227 1.68118318 2.49317507.7200628.7196828 1.5595844 1.28678713 2.49317507 1.6811832.9694803.4095259 1.99508005.62086378 3.05346946.62091378 1.05808942 0 2.08757913-.21136788 3.05666943-.62091379.93358067-.39710603 1.77318227-.96150038 2.49317507-1.68118319.7200528-.7200128 1.28678713-1.5594844 1.6811832-2.49317507.4095159-.9691103.61772381-1.99518004.61772381-3.05346946V0h-3.99276007v11.99488005c0 2.12417876-1.73168268 3.85276147-3.85586144 3.85276147s-3.85276147-1.72848271-3.85276147-3.85276147V0zm20.28579714 0v19.84080159h7.4793252c2.19287808 0 3.9201608-.53673463 5.13574865-1.59518405 1.16778832-1.0197898 1.78308217-2.4703753 1.78308217-4.20295797 0-1.45248547-.45769543-2.73397266-1.31498685-3.70316297-.37640624-.42227577-.82127179-.78227217-1.32768673-1.0698893.34881652-.300147.65242348-.64506355.90429096-1.03168968.55443446-.8497315.84696153-1.86718133.84696153-2.94837052 0-.88770112-.1705883-1.68598314-.50629494-2.37527624-.33326666-.68171319-.82681173-1.25648744-1.46778532-1.70668294C49.01127988.40612594 47.41709582.0008 45.4102159.0008zm22.38677613 0L57.0094299 1.2704873v18.5698143h3.99596004zm4.95455045 0v19.84080159h3.99276008V7.45092549l8.79761202 12.3898761h3.61706383V0h-3.99596004v12.50387496L69.49730502 0zm21.24478755 0v19.84080159h3.99596004v-5.57204428L103.32556673.0009h-5.19314806l-6.93173069 8.37401626V.00089999zm24.07475925 0-7.51782482 19.84080159h4.22855772l5.00214998-13.75186248 5.04674953 13.75186248h4.22855771L114.72135278 0zM45.1891481 3.76346237c1.0505895 0 1.85378147.20050799 2.32437676.5795042.1397286.11194888.5699543.45789542.5699543 1.37868621 0 .72245278-.2291577 1.23648764-.69731303 1.5696843-.4502355.3205168-1.12438875.4903251-1.9486805.4903251h-2.82427177v-3.99916zm-2.57587424 7.73412265h2.95157049c1.15468845 0 2.06127938.23478766 2.62367376.67501325.49611504.38916611.73234268.9403606.73234268 1.6907831 0 .72518274-.22910771 1.25188748-.7100429 1.60798391-.51129489.37916621-1.3097869.57950421-2.31487685.57950421h-3.28276718z"/><path fill="#D00000" d="m7.59422406 14.95285047 3.55336446 4.8908511h4.9797502l-3.57256427-4.8908511zm87.20712792 0 3.5502645 4.8908511h4.9797502l-3.57256428-4.8908511zm15.06684933 0 3.15866841 4.8908511 3.13316867-4.8908511z"/></svg>