<svg xmlns="http://www.w3.org/2000/svg" viewBox="0 0 9.525 9.525"><path fill="#303030" d="M1.058 0C0 0 0 1.058 0 1.058v7.409c0 1.058 1.058 1.058 1.058 1.058h7.409c1.058 0 1.058-1.058 1.058-1.058v-6.88c0-.264-.265-.529-.265-.529L8.467.265S8.202 0 7.937 0z"/><path fill="#D3D3D3" d="M2.9102.5293c-.264-1e-8-.26367.26562-.26367.26562v2.6445c0 .264.26367.26367.26367.26367h4.7637c.264 0 .26367-.26367.26367-.26367V.79492S7.950898.5293 7.6739.5293zm2.9102.26562h1.3223v2.6445H5.8204zM4.629 4.23242c-3.2983.79179-.0009865.00109-3.3066.79492v3.4453s-.0007031.52344.5293.52344h5.5566c.529 0 .5293-.5293.5293-.5293v-3.4395c-3.3057-.79383-.00836-.00314-3.3066-.79492h-.00195z"/><path fill="#DB0000" d="M1.323 5.027v-.265s0-.529.53-.529h5.555c.53 0 .53.53.53.53v.264z"/></svg>