<?xml version="1.0" encoding="UTF-8"?>
<!-- Created with Inkscape (http://www.inkscape.org/) -->
<svg width="31.856mm" height="31.829mm" version="1.1" viewBox="0 0 31.856 31.829" xmlns="http://www.w3.org/2000/svg">
 <g transform="translate(3.9065 -214.97)">
  <g transform="matrix(.26458 0 0 .26458 -3.1127 215.76)">
   <g>
    <path d="m47.3 44.95q0-5.3-3.8-9.1-3.7-3.75-9.05-3.75-5.3 0-9.1 3.75-3.75 3.8-3.75 9.1 0 4.15 2.2 6.55 10.55-1.85 21.2 0.15 2.3-2.55 2.3-6.7m-21.25-8.3q1.2-1.15 2.9-1.15 1.65 0 2.85 1.15 1.15 1.2 1.15 2.85 0 1.75-1.15 2.9-1.2 1.15-2.85 1.15-1.7 0-2.9-1.15-1.15-1.15-1.15-2.9 0-1.65 1.15-2.85m67.15 8.3q0-5.3-3.8-9.1-3.7-3.75-9.05-3.75-5.3 0-9.1 3.75-3.75 3.8-3.75 9.1 0 4.15 2.2 6.55 10.55-1.85 21.2 0.15 2.3-2.55 2.3-6.7m-21.25-8.3q1.2-1.15 2.9-1.15 1.65 0 2.85 1.15 1.15 1.2 1.15 2.85 0 1.75-1.15 2.9-1.2 1.15-2.85 1.15-1.7 0-2.9-1.15-1.15-1.15-1.15-2.9 0-1.65 1.15-2.85z"/>
    <path d="m28.95 35.5q-1.7 0-2.9 1.15-1.15 1.2-1.15 2.85 0 1.75 1.15 2.9 1.2 1.15 2.9 1.15 1.65 0 2.85-1.15 1.15-1.15 1.15-2.9 0-1.65-1.15-2.85-1.2-1.15-2.85-1.15m45.9 0q-1.7 0-2.9 1.15-1.15 1.2-1.15 2.85 0 1.75 1.15 2.9 1.2 1.15 2.9 1.15 1.65 0 2.85-1.15 1.15-1.15 1.15-2.9 0-1.65-1.15-2.85-1.2-1.15-2.85-1.15z" fill="#fff"/>
   </g>
  </g>
 </g>
</svg>
