<?xml version="1.0" encoding="UTF-8"?>
<!-- Created with Inkscape (http://www.inkscape.org/) -->
<svg width="31.856mm" height="31.829mm" version="1.1" viewBox="0 0 31.856 31.829" xmlns="http://www.w3.org/2000/svg">
 <g transform="translate(3.9065 -214.97)">
  <g transform="matrix(.26458 0 0 .26458 -3.1127 215.76)">
   <path d="m88.7 81.6q-1.25-5.4-3.55-9.15-5.65-9.15-13.15-13.8-7.1-4.4-15.05-4.35-7.5 0.05-14.2 3.9-7.15 4.1-12.6 12.25l0.35 1.25q-1.25 1.35-2.75 3.4-2.85 6.75-4.3 17.75 16.15-4.7 32.1-4.9 17.5-0.25 34.75 4.9-0.6-6.9-1.6-11.25z" fill="#401"/>
   <path d="m88.7 81.6q-1.25-5.4-3.55-9.15-5.65-9.15-13.15-13.8-7.1-4.4-15.05-4.35-7.5 0.05-14.2 3.9-7.15 4.1-12.6 12.25l0.35 1.25q10.8-11.7 25.95-13 7.3 16.05-0.9 28.5v0.75q17.5-0.25 34.75 4.9-0.6-6.9-1.6-11.25z" fill="#201"/>
   <g>
    <path d="m60.4 87.65q0.05 0.15 0.15 0.35 3.95 0.1 7.9 0.5 0.7-0.45 1.25-1 1.25-1.35 0.9-2.6t-2.1-1.75q-1.75-0.55-3.85 0-2.15 0.6-3.4 1.95-1.2 1.3-0.85 2.55m-10.3-3.55q-1.55-0.8-3.75-0.8t-3.75 0.8-1.55 1.9 1.55 1.9q0.95 0.5 2.2 0.7 2.35-0.25 4.7-0.4 0.3-0.15 0.6-0.3 1.55-0.8 1.55-1.9t-1.55-1.9z" fill="#d36"/>
    <path d="m44.8 88.6q0.7 0.1 1.55 0.1 1.75 0 3.15-0.5-2.35 0.15-4.7 0.4z" fill="#d38"/>
    <path d="m31.35 90.55q0.15 0.1 0.3 0.2 6.6-1.45 13.15-2.15-1.25-0.2-2.2-0.7-1.55-0.8-1.55-1.9t1.55-1.9 3.75-0.8 3.75 0.8 1.55 1.9-1.55 1.9q-0.3 0.15-0.6 0.3 2.65-0.2 5.3-0.25 1.15-1.15 2.85-2.8-15.4-10.7-26.3 5.4m51.1 0.25q0.65-0.5 1.6-0.55-13.3-16.1-26.4-5.1-1.7 1.65-2.85 2.8 2.85-0.05 5.75 0.05-0.1-0.2-0.15-0.35-0.35-1.25 0.85-2.55 1.25-1.35 3.4-1.95 2.1-0.55 3.85 0 1.75 0.5 2.1 1.75t-0.9 2.6q-0.55 0.55-1.25 1 7 0.7 14 2.3z" fill="#a14"/>
   </g>
   <path d="m82.45 90.8q3.9 0.85 7.85 2.05m-66.85 0q4.1-1.2 8.2-2.1 6.6-1.45 13.15-2.15m10-0.65q-2.65 0.05-5.3 0.25-2.35 0.15-4.7 0.4m23.65-0.1q7 0.7 14 2.3m-27.65-2.85q2.85-0.05 5.75 0.05 3.95 0.1 7.9 0.5" fill="none" stroke="#000" stroke-linecap="round" stroke-miterlimit="3" stroke-width="2"/>
   <path d="m31.35 90.55q10.9-16.1 26.3-5.4 13.1-11 26.4 5.1m-29.25-2.3q1.15-1.15 2.85-2.8" fill="none" stroke="#000" stroke-linecap="round" stroke-linejoin="round" stroke-width="1.5"/>
   <path d="m23.45 92.85q33.9-9.85 66.85 0-0.6-6.9-1.6-11.25-1.25-5.4-3.55-9.15-5.65-9.15-13.15-13.8-7.1-4.4-15.05-4.35-7.5 0.05-14.2 3.9-7.15 4.1-12.6 12.25-4.7 7.1-6.7 22.4z" fill="none" stroke="#000" stroke-linecap="round" stroke-miterlimit="3" stroke-width="2.5"/>
  </g>
 </g>
</svg>
