<?xml version="1.0" encoding="UTF-8" standalone="no"?>
<!-- Created with Inkscape (http://www.inkscape.org/) -->
<svg width="18.224281mm" height="21.835878mm" viewBox="0 0 18.224281 21.835879" version="1.1" id="svg5" xml:space="preserve" inkscape:version="1.2.2 (732a01da63, 2022-12-09)" sodipodi:docname="cube.svg" inkscape:export-filename="cube.png" inkscape:export-xdpi="96" inkscape:export-ydpi="96" xmlns:inkscape="http://www.inkscape.org/namespaces/inkscape" xmlns:sodipodi="http://sodipodi.sourceforge.net/DTD/sodipodi-0.dtd" xmlns="http://www.w3.org/2000/svg" xmlns:svg="http://www.w3.org/2000/svg"><script xmlns=""/><sodipodi:namedview id="namedview7" pagecolor="#ffffff" bordercolor="#000000" borderopacity="0.25" inkscape:showpageshadow="2" inkscape:pageopacity="0.0" inkscape:pagecheckerboard="0" inkscape:deskcolor="#d1d1d1" inkscape:document-units="mm" showgrid="false" inkscape:zoom="8" inkscape:cx="11.9375" inkscape:cy="47.3125" inkscape:window-width="1920" inkscape:window-height="1001" inkscape:window-x="-9" inkscape:window-y="-9" inkscape:window-maximized="1" inkscape:current-layer="layer1"/><defs id="defs2"/><g inkscape:label="Warstwa 1" inkscape:groupmode="layer" id="layer1" transform="translate(-60.890837,-102.11078)"><g id="path410-9-3" transform="translate(-47.490247,11.746027)"><path style="color:#000000;fill:#babac5;fill-opacity:0.85;stroke-linecap:round;-inkscape-stroke:none;paint-order:fill markers stroke" d="m 108.88135,98.574712 8.67733,7.306688 8.54586,-7.306688 -8.54586,-6.915475 z" id="path4429" sodipodi:nodetypes="ccccc"/></g><g id="path410-9-3-7" transform="translate(-31.471017,16.879148)"><path id="path4429-4" style="color:#000000;fill:#babac5;fill-opacity:0.85;stroke-linecap:round;-inkscape-stroke:none;paint-order:fill markers stroke" d="m 101.53856,99.440096 -5.166107,-3.548087 -2.879927,-2.423625 -0.63045,-0.02687 0.14418,5.13302 8.129214,7.987106 8.67544,-7.223846 0.009,-0.412894 0.4098,-0.350366 -0.39584,-0.320394 0.10645,-5.108216 -3.13056,2.66082 z" sodipodi:nodetypes="ccccccccccccc"/></g><g id="path4412" transform="translate(-31.614962,11.093224)"><path id="path4710" style="color:#000000;fill:#ffffff;stroke-linecap:round;-inkscape-stroke:none;paint-order:fill markers stroke" d="m 101.6856,91.017602 -0.50178,0.399975 v 5.17e-4 l -3.162595,2.52026 -0.676444,0.538985 -1.10846,0.883667 -1.324467,1.055749 -0.975134,0.777214 -0.921908,0.734322 -0.509013,0.40566 v 0.240295 4.399214 2.15129 10e-4 l 0.490927,0.41342 5.16e-4,-5.2e-4 4.187342,3.52588 1.06195,0.894 0.09974,0.0837 3.339326,2.8112 3.06131,-2.6169 v 5.2e-4 l 2.93006,-2.50424 h -0.002 l 3.05459,-2.61121 5.2e-4,-1.72599 v -5.058608 l -0.50902,-0.411862 -2.6448,-2.140437 -2.0562,-1.663465 h 0.001 l -3.33778,-2.70061 -0.49764,-0.403076 z m -0.50178,1.679484 v 5.039485 l -4.313946,3.438029 -3.074231,-2.588985 z m 0.99994,0.0098 7.26571,5.878195 -3.02411,2.585889 -4.2416,-3.432866 z m -0.50281,5.910751 3.97185,3.213753 -3.9703,3.39463 -4.032828,-3.39514 z m -8.175212,1.030944 2.566769,2.161109 -2.566769,2.04587 z m 16.224852,0.01137 v 4.185789 l -2.51509,-2.03554 z m -12.878286,2.806549 4.331006,3.64628 v 5.01158 l -7.3887,-6.2208 z m 9.590626,0.004 3.00602,2.43241 -7.26519,6.21047 v -5.00228 z"/></g><path style="fill:#babac5;fill-opacity:0.421965;stroke:none;stroke-width:1;stroke-linecap:round;stroke-linejoin:miter;stroke-dasharray:none;stroke-opacity:1;paint-order:fill markers stroke" d="m 65.254912,112.26782 4.313946,-3.43803 v -5.03948 l 0.499575,-0.38505 0.500365,0.40491 v 5.01626 l 4.245083,3.43479 -0.776043,0.66339 -3.97185,-3.21375 -4.031278,3.21324 z" id="path8093"/></g></svg>