<svg xmlns="http://www.w3.org/2000/svg" xml:space="preserve" viewBox="0 0 19.423828 19.423828"><script xmlns=""/><path fill="#D74734" d="M9.7128906 4e-8A9.712 9.712 0 0 0 4e-8 9.7128906 9.712 9.712 0 0 0 9.7128906 19.423828a9.712 9.712 0 0 0 9.7109374-9.7109374A9.712 9.712 0 0 0 9.7128906 4e-8ZM8.3515625 1.5957031h2.7226565v2.0371094a6.2454834 6.2454834 0 0 1 4.236328 3.3144531l-.742188.3671875-1.18164.5839844a4.0978665 4.0978665 0 0 0-2.3125-2.046875v7.7187495a4.0978665 4.0978665 0 0 0 2.310547-2.044921l1.183593.585937.742188.367188a6.2454834 6.2454834 0 0 1-4.236328 3.3125v2.037109H8.3515625v-2.037109a6.2454834 6.2454834 0 0 1-4.8847656-6.0781254 6.2454834 6.2454834 0 0 1 4.8847656-6.0800781Zm0 4.2519531a4.0978665 4.0978665 0 0 0-2.7382813 3.8652344 4.0978665 4.0978665 0 0 0 2.7382813 3.8632814Z"/></svg>