<?xml version="1.0" encoding="UTF-8"?><svg width="688.51mm" height="50.912mm" version="1.1" viewBox="0 0 688.51 50.912" xml:space="preserve" xmlns="http://www.w3.org/2000/svg"><g transform="translate(261.21 -374.7)"><g transform="matrix(.53374 0 -.33672 .58321 371.56 -449.73)" stroke-width="0" style="paint-order:stroke fill markers;shape-inside:url(#rect368);white-space:pre" aria-label="VECTORIER"><path d="m-289.02 1413.6c-2.048 0-2.9431 0.8957-2.9431 2.0477 0 0.64 0.25627 1.5358 1.1523 2.3038l10.438 10.624h63.654l-12.013-12.416c-1.664-1.664-3.7114-2.5598-6.6554-2.5598zm168.19 0c-2.816 0-4.8635 0.8958-6.6555 2.5598l-12.477 12.416h17.12l10.717-10.752c0.768-0.768 1.0245-1.5366 1.0245-2.0486 0-1.28-1.0245-2.1753-2.4325-2.1753zm50.311 0c-13.926 0-25.255 5.6803-32.627 14.975h122.1c2.304 0 3.4568-1.1516 3.4568-3.4556l-1.75e-4 -8.1926c0-2.176-1.1524-3.3272-3.4564-3.3272zm149.51 0c-13.926 0-25.255 5.6803-32.626 14.975h119.79c2.304 0 3.4568-1.1516 3.4568-3.4556l-1.7e-4 -8.1926c0-2.176-1.1524-3.3272-3.4564-3.3272zm103.05 0c-1.664 0-2.4324 0.5111-2.4324 1.6631l6.8e-4 11.904c0 1.024 0.76755 1.4079 2.4316 1.4079h125.57c1.664 0 2.4327-0.3839 2.4327-1.4079l-6.8e-4 -11.904c0-1.152-0.76782-1.6631-2.4318-1.6631zm174.73 0c-14.051 0-25.449 5.6424-32.832 14.975h128.37c-7.4007-9.2766-18.774-14.975-32.814-14.975zm124.42 0c-2.304 0-3.4556 1.1512-3.4556 3.3272l-1.5e-4 11.648h141.14c-3.4517-9.1194-13.39-14.975-25.814-14.975zm166.92 0c-2.176 0-3.3287 1.1512-3.3287 3.3272l-1.4e-4 11.648h50.816l1.5e-4 -11.648c0-2.176-1.1517-3.3272-3.3277-3.3272zm106.25 0c-13.926 0-25.255 5.6803-32.627 14.975h122.1c2.304 0 3.4558-1.1516 3.4558-3.4556l-1.8e-4 -8.1926c0-2.176-1.1515-3.3272-3.4555-3.3272zm113.16 0c-2.304 0-3.4556 1.1512-3.4556 3.3272l-1.4e-4 11.648h50.816l-1e-4 -8.2661 55.017 16.242-47.336 15.784-2.5e-4 0.8161c0 2.304 0.76749 3.328 2.1755 4.736l38.528 39.552c2.304 2.432 5.2472 3.4557 8.4472 3.4557h43.776c1.536 0 2.304-1.0237 2.304-2.0477 0-0.64-0.2558-1.5357-0.8958-2.0477l-35.328-36.224c13.696-2.048 24.959-10.24 24.959-24.704 0-13.184-11.648-22.271-27.136-22.271zm-1134.4 28.667 55.085 56.068c1.536 1.664 3.328 2.5599 5.632 2.5599h8.4485c2.048 0 3.8395-0.8959 5.3755-2.5599l55.891-56.068h-17.231l-25.347 25.221-24.403-25.221zm156.66 0c-1.4371 4.6297-2.2382 9.6446-2.2382 14.981 0 25.344 17.791 43.648 41.983 43.648h89.856c2.304 0 3.4558-1.1517 3.4558-3.4557l3.84e-4 -8.1917c0-2.304-1.1518-3.4565-3.4557-3.4565h-59.905c-10.496 0-15.104-5.8876-15.104-23.296l4.1e-5 -13.952c0-2.3714 0.1247-4.4032 0.31568-6.2769zm149.51 0c-1.437 4.6296-2.2373 9.6447-2.2373 14.981 0 25.344 17.791 43.648 41.982 43.648h87.68c2.176 0 3.328-1.1517 3.328-3.4557l3.8e-4 -8.1917c0-2.304-1.1519-3.4565-3.3279-3.4565h-57.728c-10.496 0-15.104-5.8876-15.104-23.296l4.1e-5 -13.952c0-2.3714 0.1247-4.4032 0.31568-6.2769zm180.17 0 2.7e-4 56.964c0 1.152 0.76644 1.664 2.4304 1.664h45.953c1.536 0 2.3041-0.512 2.3041-1.664l-2.7e-4 -56.964zm97.445 0c-1.4181 4.6177-2.2063 9.6292-2.2063 14.981 0 24.704 17.151 43.648 42.111 43.648h62.72c25.216 0 42.24-19.072 42.24-43.648 0-5.3282-0.80638-10.345-2.2562-14.981h-49.132c0.19097 1.8736 0.31559 3.9055 0.31559 6.2769l-5e-5 13.952c0 17.408-4.6078 23.296-15.104 23.296h-17.407c-9.728 0-14.081-6.0156-14.081-23.296l5e-5 -13.952c0-2.3687 0.12806-4.3998 0.32149-6.2769zm160.87 0-1.3e-4 55.173c0 2.304 1.1512 3.4557 3.4552 3.4557h43.904c2.304 0 3.4568-1.1517 3.4568-3.4557l1.2e-4 -55.173zm89.836 0c-1.8987 2.315-5.3966 3.5886-10.476 3.5886h-17.536c-2.304 0-3.3282 1.1521-3.3282 3.3281l3.6e-4 3.9678c0 2.304 0.76749 3.328 2.1755 4.736l38.528 39.552c2.304 2.432 5.2472 3.4557 8.4472 3.4557h43.776c1.536 0 2.305-1.0237 2.305-2.0477 0-0.64-0.2568-1.5357-0.8968-2.0477l-35.328-36.224c11.522-1.7229 21.294-7.8127 24.115-18.309zm77.21 0-1.3e-4 55.173c0 2.304 1.1524 3.4557 3.3284 3.4557h44.16c2.176 0 3.328-1.1517 3.328-3.4557l1.3e-4 -55.173zm69.829 0c-1.4371 4.6297-2.2382 9.6446-2.2382 14.981 0 25.344 17.791 43.648 41.983 43.648h89.856c2.304 0 3.4568-1.1517 3.4568-3.4557l3.9e-4 -8.1917c0-2.304-1.1527-3.4565-3.4567-3.4565h-59.904c-10.496 0-15.104-5.8876-15.104-23.296l4e-5 -13.952c0-2.3714 0.12471-4.4032 0.31568-6.2769zm149.45 0-1.3e-4 55.173c0 2.304 1.1512 3.4557 3.4552 3.4557h43.904c2.304 0 3.4558-1.1517 3.4558-3.4557l1e-3 -42.544 3e-5 -12.629zm-907.18 3.5886c-2.304 0-3.456 1.1521-3.456 3.3281l3.09e-4 8.3201c0 2.176 1.1511 3.3281 3.4551 3.3281h61.185c2.176 0 3.3276-0.7678 3.3276-2.3038l8.2e-4 -10.369c0-1.536-1.1518-2.3038-3.3278-2.3038zm824.87 0c-2.304 0-3.4569 1.1521-3.4569 3.3281l3.1e-4 8.3201c0 2.176 1.152 3.3281 3.456 3.3281h61.184c2.176 0 3.3286-0.7678 3.3286-2.3038l8.2e-4 -10.369c0-1.536-1.1528-2.3038-3.3288-2.3038z"/></g></g></svg>
