<?xml version="1.0" encoding="UTF-8"?>
<!-- Created with Inkscape (http://www.inkscape.org/) -->
<svg width="31.856mm" height="31.829mm" version="1.1" viewBox="0 0 31.856 31.829" xmlns="http://www.w3.org/2000/svg" xmlns:xlink="http://www.w3.org/1999/xlink">
 <defs>
  <linearGradient id="linearGradient9440" x1="57.1" x2="57.1" y1=".35" y2="113.85" gradientUnits="userSpaceOnUse">
   <stop stop-color="#23FFCE" offset="0"/>
   <stop stop-color="#00E5FF" offset=".49412"/>
   <stop stop-color="#018AD3" offset="1"/>
  </linearGradient>
 </defs>
 <g transform="translate(4.9672 -45.253)">
  <g transform="matrix(.26458 0 0 .26458 -4.1735 46.047)">
   <path d="m99.5 19.35q-1.1-1.2-2.3-2.4-0.15-0.15-0.3-0.3-16.5-16.3-39.8-16.3-23.5 0-40.15 16.6-3.2 3.2-5.8 6.7-10.8 14.5-10.8 33.45t10.8 33.45q2.6 3.45 5.8 6.65 5.1 5.1 10.9 8.65 12.95 8 29.25 8t29.3-8q5.7-3.55 10.8-8.65 16.65-16.6 16.65-40.1 0-21.85-14.35-37.75z" fill="url(#linearGradient9440)"/>
   <g>
    <path d="m0.55 57.1q-0.1-1.15-0.15-2.3-0.05 1.15-0.05 2.3h0.2m113.15 0h0.15q0-1.15-0.05-2.3-0.05 1.15-0.1 2.3z" fill="#0053b4"/>
    <path d="m97.2 97.2q16.65-16.6 16.65-40.1h-0.15q-1.5 20.55-16.5 35.5-9.1 9.15-20.25 13.25-9.25 3.4-19.85 3.4t-19.85-3.4q-11.15-4.1-20.3-13.25-3.2-3.2-5.8-6.65-9.45-12.7-10.6-28.85h-0.2q0 18.95 10.8 33.45 2.6 3.45 5.8 6.65 5.1 5.1 10.9 8.65 12.95 8 29.25 8t29.3-8q5.7-3.55 10.8-8.65z" fill="#005ca0"/>
   </g>
   <path d="m99.5 19.35q-1.1-1.2-2.3-2.4-0.15-0.15-0.3-0.3-16.5-16.3-39.8-16.3-23.5 0-40.15 16.6-3.2 3.2-5.8 6.7-10.8 14.5-10.8 33.45 0 1.15 0.05 2.25 0.05-1.15 0.15-2.25 1.05-15.8 10.6-28.5 2.9-3.85 6.55-7.4 15.75-15.3 39.25-15.35t39.4 15.3 17.35 35.95q0.05 1.1 0.1 2.25 0.05-1.1 0.05-2.25 0-21.85-14.35-37.75z" fill="#6dffe4"/>
   <path d="m114.4 57.15q0 2.6-0.2 5.1-1.65 20.4-16.65 35.3-4.85 4.85-10.25 8.3-13.3 8.45-30.15 8.45-16.8 0-30.15-8.45-5.45-3.45-10.3-8.3-3.05-3.05-5.55-6.35-11.15-14.7-11.15-34.05 0-19.3 11.15-34.05 2.5-3.35 5.55-6.4 16.8-16.7 40.45-16.7 23.25 0 39.75 16.05 0.35 0.35 0.65 0.65 1.3 1.3 2.55 2.65 12.6 14.1 14.1 32.75 0.2 2.45 0.2 5.05z" fill="none" stroke="#000" stroke-linecap="round" stroke-linejoin="round" stroke-width="6"/>
  </g>
 </g>
</svg>
