<?xml version="1.0" encoding="UTF-8"?>
<!-- Created with Inkscape (http://www.inkscape.org/) -->
<svg width="31.856mm" height="31.829mm" version="1.1" viewBox="0 0 31.856 31.829" xmlns="http://www.w3.org/2000/svg">
 <g transform="translate(4.9672 -45.253)">
  <g transform="matrix(.26458 0 0 .26458 -4.1735 46.047)">
   <g>
    <path d="m46.6 44.5q0-5.9-4.2-10.1-1.05-1.05-2.15-1.8-2.45-1.65-5.4-2.15-1.2-0.2-2.5-0.2t-2.5 0.2q-2.95 0.5-5.4 2.15-1.15 0.75-2.2 1.8-4.15 4.2-4.15 10.1t4.15 10.05q4.2 4.2 10.1 4.2t10.05-4.2q4.2-4.15 4.2-10.05m-20.15-9.7q1.8 0 3.05 1.25 1.1 1.15 1.2 2.7 0 0.15 0 0.3 0 1.8-1.2 3.05-1.25 1.25-3.05 1.25t-3.05-1.25q-0.3-0.3-0.55-0.65-0.7-1.05-0.7-2.4 0-1.75 1.25-3t3.05-1.25m71.05 9.7q0-5.9-4.2-10.1-1.05-1.05-2.15-1.8-2.45-1.65-5.4-2.15-1.2-0.2-2.5-0.2t-2.5 0.2q-2.95 0.5-5.4 2.15-1.15 0.75-2.2 1.8-4.15 4.2-4.15 10.1t4.15 10.05q4.2 4.2 10.1 4.2t10.05-4.2q4.2-4.15 4.2-10.05m-15.9-6.5q0.1 0.5 0.1 1.05 0 1.8-1.2 3.05-1.25 1.25-3.05 1.25t-3.05-1.25q-0.1-0.1-0.2-0.2-1.05-1.2-1.05-2.85 0-1.75 1.25-3t3.05-1.25 3.05 1.25q0.8 0.85 1.1 1.95z"/>
    <path d="m29.5 36.05q-1.25-1.25-3.05-1.25t-3.05 1.25-1.25 3q0 1.35 0.7 2.4 0.25 0.35 0.55 0.65 1.25 1.25 3.05 1.25t3.05-1.25q1.2-1.25 1.2-3.05 0-0.15 0-0.3-0.1-1.55-1.2-2.7m52.2 3q0-0.55-0.1-1.05-0.3-1.1-1.1-1.95-1.25-1.25-3.05-1.25t-3.05 1.25-1.25 3q0 1.65 1.05 2.85 0.1 0.1 0.2 0.2 1.25 1.25 3.05 1.25t3.05-1.25q1.2-1.25 1.2-3.05z" fill="#fff"/>
   </g>
  </g>
 </g>
</svg>
