<?xml version="1.0" encoding="UTF-8"?>
<!-- Created with Inkscape (http://www.inkscape.org/) -->
<svg width="31.856mm" height="31.829mm" version="1.1" viewBox="0 0 31.856 31.829" xmlns="http://www.w3.org/2000/svg">
 <g transform="translate(4.9672 -45.253)">
  <g transform="matrix(.26458 0 0 .26458 -4.1735 46.047)">
   <path d="m84.7 80.15q12.4-8.75 7.2-13.6-38.55 6.4-68.5 0 0.05 0.45-3.25 0.95 4.3 8.4 13.25 14.65 10.05 7 24.25 7 0.6 0 1.15 0 13.5-0.3 25.9-9z" fill="#401"/>
   <path d="m84.7 80.15q12.4-8.75 7.2-13.6-38.55 6.4-68.5 0 0.05 0.45-3.25 0.95 14.65 7.2 40.3 11.05 3.65 9.8-1.65 10.6 13.5-0.3 25.9-9z" fill="#201"/>
   <g>
    <path d="m61.25 89.05q5.45-0.4 10.25-1.85 0.1-0.5-0.05-0.95-0.35-1.25-2.1-1.75-1.75-0.55-3.85 0-2.15 0.6-3.4 1.95-1.2 1.3-0.85 2.55v0.05m-14.05-4.4q-2.2 0-3.75 0.8-1 0.5-1.35 1.2 4.45 1.6 9.55 2.2 0.85-0.7 0.85-1.5 0-1.1-1.55-1.9t-3.75-0.8z" fill="#d38"/>
    <path d="m55.85 89.15q0.9 0 1.8 0 1.85 0 3.6-0.1v-0.05q-0.35-1.25 0.85-2.55 1.25-1.35 3.4-1.95 2.1-0.55 3.85 0 1.75 0.5 2.1 1.75 0.15 0.45 0.05 0.95 3.1-0.95 6-2.4-9.75-6.15-19 1.7-1.6 1.55-2.65 2.65m-12.4-3.7q1.55-0.8 3.75-0.8t3.75 0.8 1.55 1.9q0 0.8-0.85 1.5 1.95 0.2 3.95 0.3 0.1-0.05 0.25 0 1.05-1.1 2.65-2.65-11.2-7.8-20-1.35 1.7 0.8 3.6 1.5 0.35-0.7 1.35-1.2z" fill="#a15"/>
   </g>
   <path d="m55.85 89.15q1.05-1.1 2.65-2.65-11.2-7.8-20-1.35m20 1.35q9.25-7.85 19-1.7" fill="none" stroke="#000" stroke-linecap="round" stroke-linejoin="round" stroke-width="1.5"/>
   <path d="m81.95 82.15q-10.05 7-24.3 7-14.2 0-24.25-7-9.4-6.55-13.85-15.75 38 8.2 75.75 0.15-4 9.05-13.35 15.6z" fill="none" stroke="#000" stroke-linecap="round" stroke-miterlimit="3" stroke-width="3"/>
  </g>
 </g>
</svg>
