<?xml version="1.0" encoding="UTF-8"?>
<!-- Created with Inkscape (http://www.inkscape.org/) -->
<svg width="32.147mm" height="32.107mm" version="1.1" viewBox="0 0 32.147 32.107" xmlns="http://www.w3.org/2000/svg">
 <g transform="translate(-27.115 -262.34)">
  <g transform="matrix(.26458 0 0 .26458 22.525 259.78)">
   <g>
    <path d="m101.6 71.55-0.05 0.05q-3.7 1.3-7.45 3.8-0.3 0.15-0.6 0.4l-0.75 0.2q-1.3 0.35-2.6 0.6h-0.05q-2.25 0.45-5.45 0.6-1.8037 0.05469-4.05 0.05-2.185 0.03281-2.7 0-0.53203 0.03281-2.65 0-2.1047 0.0047-3.9-0.05-3.2-0.15-5.45-0.65h-0.05q-1.3125-0.20488-2.65-0.6l-0.7-0.2q-0.31484-0.18223-0.65-0.35-3.6869-2.5086-7.4-3.85-0.03789 0.01309-0.1 0-1.0371-0.41914-2.25-0.75-0.15606-0.1002-0.4-0.15-0.90176-0.21328-1.75-0.4l0.1 0.05-1.75-0.3q-0.48672-0.09121-0.95-0.1-0.35996-0.04805-0.7-0.05-0.8252-0.09492-1.65-0.1h-0.1q-4.0625 0.16992-7.3 1.55-0.90332 0.39356-1.75 0.9l-0.75 0.45q-23.628 21.541-5.4 42.15 0.05176 0.0424 0.05 0.05 2.4395 3.3676 6.3 4.45 0.925 0.30234 1.95 0.4 4.5186 1.082 15.6-4.15 3.5021-1.0721 6.9-1.85l4.05-0.85q6.85-1.4961 10.5-1.65 1.8566-0.0363 2.85-0.15 1.0668 0.11855 3.05 0.2 3.65 0.1 10.45 1.65l4.1 0.8q3.4 0.8 6.9 1.85 11.1 5.25 15.6 4.2 1-0.15 1.95-0.4h-0.05q3.9-1.15 6.3-4.45 0.05-0.05 0.05-0.1 18.3-20.6-5.4-42.15l-0.7-0.45q-0.85-0.5-1.75-0.9h-0.05q-3.2-1.4-7.3-1.55h-0.05q-0.8 0-1.65 0.1-0.35 0-0.75 0.05-0.4 0-0.9 0.1l-1.75 0.3h0.05q-0.8 0.15-1.75 0.35-0.2 0.05-0.4 0.15-1.15 0.35-2.25 0.75m3.1 2.4q0.9-0.3 0.85 0 0.1 2.4-0.05 4.45l-0.05 1.65q-0.25 3.2-1.4 5.1l-0.75 0.9-0.55 0.45q-0.1 0.1-0.95 0.45-1 0.4-1.6 0.45-2.55 0.25-4.35-1.6-1.75-1.85-0.7-7.3 6.95-3.7 9.55-4.55m2.9 0.15-0.05-0.55q1.65-0.2 1.8-0.2h0.05q1.45 0.1 3.15 0.3 3.35 0.4 4.45 0.85 1.35 0.6 1.75 1 0.1 0.05 0.15 0.15 0 0.05 0 0.1-0.45 12.05-9.75 13.95-1.1 0.05-1.65-0.75-0.6-1.25-0.4-3.7 0.25-2.6 0.4-6.4 0.15-3.45 0.1-4.75m-15.35 5.6q0 0.75-0.05 1.45v0.1q-0.05 1.5-0.3 2.8-1 6.75-6.2 6.7-6.05-0.15-6.5-4.65-0.10742-1.217-0.2-2.25v-0.1l0.2-2.95 0.15 0.05q5.7 0.35 11.3-0.8l1.6-0.35m-53.25-5.2h-0.05q1.15-0.45 4.5-0.85 1.7-0.2 3.15-0.3h0.05q0.15 0 1.75 0.15v0.6q-0.05 1.3 0.1 4.75 0.15 3.8 0.4 6.35 0.19551 2.516-0.45 3.7-0.48106 0.86367-1.6 0.8-9.2914-1.9014-9.75-13.95-0.0031-0.06856-0.05-0.15 0.09629-0.0416 0.15-0.1 0.45-0.4 1.8-1m11.4-0.6q-0.01602-0.24961 0.9 0.05 2.6115 0.86699 9.55 4.55 1.059 5.4447-0.75 7.3-1.759 1.8543-4.35 1.6-0.55-0.05-1.55-0.45-0.85-0.35-1-0.5l-0.55-0.45-0.7-0.9q-1.1697-1.8645-1.4-5.1l-0.05-1.65q-0.13106-2.0225-0.1-4.45m26.25 6.9 0.35 2.8q-0.08965 1.1424-0.2 2.45-0.4748 4.5324-6.55 4.7-5.1506 0.03027-6.15-6.7l-0.05-0.05q-0.20488-1.2459-0.25-2.75v-0.1q-0.04238-0.69766-0.05-1.45l1.55 0.35q5.6715 1.1285 11.35 0.75m-0.9 24.85q0.52461 1.123 0.8 2.6-5.7766 0.058-11.75 1.05-0.01211-0.0545-0.05-0.1 0.46719-3.5004 2.05-5.25 1.3414-1.2607 4.4-1.05 3.0562 0.22285 4.6 2.75v0.05l-0.05-0.05m3.7 2.6q0.3-1.5 0.75-2.6 1.55-2.55 4.6-2.75t4.4 1.05q1.6 1.75 2 5.25 0 0.05 0 0.1-5.95-1-11.75-1.05m-18.3-2.55 1.65 3.9q-6.6885 1.3264-14 3.6 0.1-1.25 0.7-3.6l0.55-2.15q1.4609-2.8715 6.2-3.4 3.1725-0.0625 4.9 1.65m-15.35 3.4q0.125 2.1209 0.05 4.85l-7.8 2.25q-0.51856-0.0875-1-0.25h-0.05q-2.648-0.75547-4.35-3.05 1.8295-4.1053 4.1-6.35 0.13906-0.12441 0.25-0.25v-0.05q2.7062-2.4496 6.6-4 1.1576-0.43574 1.65 0.45 0.55 1.1 0.55 6.4m66.55-6.8q3.95 1.5 6.6 4 0.15 0.15 0.3 0.25 2.25 2.25 4.05 6.35-1.65 2.3-4.35 3.1-0.5 0.1-1 0.2l-7.8-2.25q-0.1-2.75 0-4.85 0.05-5.3 0.55-6.35 0.55-0.95 1.65-0.45m-6.4 5.15 0.55 2.15q0.6 2.35 0.7 3.65-7.3-2.3-14.05-3.6l1.7-3.95q1.75-1.7 4.9-1.65 4.75 0.55 6.2 3.4z"/>
    <path d="m99.75 104.05q-3.15-0.05-4.9 1.65 5.6 3.35 11.1 1.75-1.45-2.85-6.2-3.4m19.2 2.25q-2.65-2.5-6.6-4-1.1-0.5-1.65 0.45-0.5 1.05-0.55 6.35 2.6 1.7 6.1 0.7 2.45-0.85 3-3.25-0.15-0.1-0.3-0.25m-73.15 2.8q0-5.3-0.55-6.4-0.49238-0.88574-1.65-0.45-3.8938 1.5504-6.6 4v0.05q-0.11094 0.12559-0.25 0.25 0.54902 2.4033 3 3.25 3.5158 1.0045 6.05-0.7m10.45-5.05q-4.7391 0.52852-6.2 3.4 5.4783 1.5832 11.1-1.75-1.7275-1.7125-4.9-1.65m32.95-0.1q-1.35-1.25-4.4-1.05t-4.6 2.75q4.75 0.65 9-1.7m-13.45 1.7h0.05q-1.5438-2.5272-4.6-2.75-3.0586-0.21074-4.4 1.05 4.2529 2.3305 8.95 1.7m-5.45-16.75q4.9332 0.64551 6.35-8.1-5.6785 0.37852-11.35-0.75-0.02324 8.1643 5 8.85m-14.65-3.65q2.7 0.85 4.35-4.45 0.15-0.95 0.85-2.3-6.9385-3.683-9.55-4.55 0.09473 10.009 4.35 11.3m-16.7-10.75h0.05q-1.35 0.6-1.8 1 2.5943 9.5486 7.05 10.85 2.9881 0.81562 2.35-13-1.45 0.1-3.15 0.3-3.35 0.4-4.5 0.85m46.75 14.4q5-0.7 4.95-8.85-5.6 1.15-11.3 0.8 1.4 8.7 6.35 8.05m26.85-15.25q-1.7-0.2-3.15-0.3-0.65 13.8 2.35 13 4.45-1.3 7-10.85-0.4-0.4-1.75-1-1.1-0.45-4.45-0.85m-17.4 4.85q0.7 1.35 0.85 2.3 1.65 5.3 4.35 4.45 4.25-1.3 4.35-11.3-2.6 0.85-9.55 4.55z" fill="#fff"/>
    <path d="m106.5 109.6-0.55-2.15q-5.5 1.6-11.1-1.75l-1.7 3.95q6.75 1.3 14.05 3.6-0.1-1.3-0.7-3.65m12.75-3.05q-0.55 2.4-3 3.25-3.5 1-6.1-0.7-0.1 2.1 0 4.85l7.8 2.25q0.5-0.1 1-0.2 2.7-0.8 4.35-3.1-1.8-4.1-4.05-6.35m-73.4 7.4q0.075-2.7291-0.05-4.85-2.5342 1.7045-6.05 0.7-2.451-0.84668-3-3.25-2.2705 2.2447-4.1 6.35 1.702 2.2945 4.35 3.05h0.05q0.48144 0.1625 1 0.25l7.8-2.25m16.95-4.35-1.65-3.9q-5.6217 3.3332-11.1 1.75l-0.55 2.15q-0.6 2.35-0.7 3.6 7.3115-2.2736 14-3.6m17.4-3.95q-0.45 1.1-0.75 2.6 5.8 0.05 11.75 1.05 0-0.05 0-0.1-0.4-3.5-2-5.25-4.25 2.35-9 1.7m-4.4 0h-0.05l0.05 0.05v-0.05m0.75 2.6q-0.27539-1.477-0.8-2.6-4.6971 0.63047-8.95-1.7-1.5828 1.7496-2.05 5.25 0.03789 0.0455 0.05 0.1 5.9734-0.99199 11.75-1.05m0.45-24.65-0.35-2.8q-1.4168 8.7455-6.35 8.1-5.0232-0.68574-5-8.85l-1.55-0.35q0.0076 0.75234 0.05 1.45v0.1q0.04512 1.5041 0.25 2.75l0.05 0.05q0.99941 6.7303 6.15 6.7 6.0752-0.16758 6.55-4.7 0.11035-1.3076 0.2-2.45m-25.7-9.65q-0.91602-0.29961-0.9-0.05-0.03106 2.4275 0.1 4.45l0.05 1.65q0.23027 3.2355 1.4 5.1l0.7 0.9 0.55 0.45q0.15 0.15 1 0.5 1 0.4 1.55 0.45 2.591 0.2543 4.35-1.6 1.809-1.8553 0.75-7.3-0.7 1.35-0.85 2.3-1.65 5.3-4.35 4.45-4.2553-1.291-4.35-11.3m-14.1 1.55q-0.05371 0.0584-0.15 0.1 0.04687 0.08145 0.05 0.15 0.45859 12.049 9.75 13.95 1.1189 0.06367 1.6-0.8 0.64551-1.184 0.45-3.7-0.25-2.55-0.4-6.35-0.15-3.45-0.1-4.75v-0.6q-1.6-0.15-1.75-0.15h-0.05q0.63809 13.816-2.35 13-4.4557-1.3014-7.05-10.85m55 5.65q0.05-0.7 0.05-1.45l-1.6 0.35q0.05 8.15-4.95 8.85-4.95 0.65-6.35-8.05l-0.15-0.05-0.2 2.95v0.1q0.09258 1.033 0.2 2.25 0.45 4.5 6.5 4.65 5.2 0.05 6.2-6.7 0.25-1.3 0.3-2.8v-0.1m15.35-7.6 0.05 0.55q0.05 1.3-0.1 4.75-0.15 3.8-0.4 6.4-0.2 2.45 0.4 3.7 0.55 0.8 1.65 0.75 9.3-1.9 9.75-13.95 0-0.05 0-0.1-0.05-0.1-0.15-0.15-2.55 9.55-7 10.85-3 0.8-2.35-13h-0.05q-0.15 0-1.8 0.2m-2 0.4q0.05-0.3-0.85 0-0.1 10-4.35 11.3-2.7 0.85-4.35-4.45-0.15-0.95-0.85-2.3-1.05 5.45 0.7 7.3 1.8 1.85 4.35 1.6 0.6-0.05 1.6-0.45 0.85-0.35 0.95-0.45l0.55-0.45 0.75-0.9q1.15-1.9 1.4-5.1l0.05-1.65q0.15-2.05 0.05-4.45z" fill="#ddd"/>
   </g>
  </g>
 </g>
</svg>
