<svg version="1.0" viewBox="0 0 2536.5 2536.5" xmlns="http://www.w3.org/2000/svg">
	<style>
	:root {
		--rot-1: 28.5deg;
		--rot-2: 55.425deg;
		--rot-3: 117.5deg;
		--rot-4: 147.5deg;
		--anim-time: 1s;
	}
	
	@keyframes rot {
		0% {transform: rotate(calc(var(--rot-4) * -1))}
		to {transform: rotate(var(--rot-1))}
	}
	@keyframes rot1 {
		0% {transform: rotate(var(--rot-3))}
		to {transform: rotate(calc(var(--rot-2) * -1))}
	}
	@keyframes rot2 {
		0% {transform: rotate(var(--rot-4))}
		to {transform: rotate(calc(var(--rot-1) * -1))}
	}
	@keyframes rot3 {
		0% {transform: rotate(calc(var(--rot-3) * -1))}
		to {transform: rotate(var(--rot-2))}
	}
	#rot {animation: rot calc(var(--anim-time)) ease-in-out infinite alternate}
	#rot1 {animation: rot1 calc(var(--anim-time) * 1.75) ease-in-out infinite alternate}
	#rot2 {animation: rot2 calc(var(--anim-time) * 1.25) ease-in-out infinite alternate}
	#rot3 {animation: rot3 calc(var(--anim-time) * 1.5) ease-in-out infinite alternate}
	</style>
	<g transform="translate(-1573.5 1260.6)">
		<g transform="matrix(266.3 0 0 266.3 1573.5 -1260.6)">
			<path fill="#CCD6DD" d="m9.525 8.467c0 0.584-0.474 1.058-1.058 1.058h-7.409a1.058 1.058 0 0 1-1.058-1.058v-7.409c0-0.584 0.474-1.058 1.058-1.058h7.409c0.584 0 1.058 0.474 1.058 1.058z"/>
			<path fill="#67757F" d="m2.372 0.771a0.182 0.182 0 0 0-0.172 0.181 0.182 0.182 0 0 0 0.182 0.182 0.182 0.182 0 0 0 0.182-0.182 0.182 0.182 0 0 0-0.182-0.181 0.182 0.182 0 0 0-9e-3 0zm4.763 0a0.182 0.182 0 0 0-0.173 0.182 0.182 0.182 0 0 0 0.182 0.182 0.182 0.182 0 0 0 0.182-0.182 0.182 0.182 0 0 0-0.182-0.182 0.182 0.182 0 0 0-0.01 0zm-5.6 0.242a0.182 0.182 0 0 0-0.182 0.182 0.182 0.182 0 0 0 0.182 0.181 0.182 0.182 0 0 0 0.181-0.181 0.182 0.182 0 0 0-0.181-0.182zm1.693 0a0.182 0.182 0 0 0-0.182 0.182 0.182 0.182 0 0 0 0.182 0.181 0.182 0.182 0 0 0 0.182-0.181 0.182 0.182 0 0 0-0.182-0.182zm3.07 0a0.182 0.182 0 0 0-0.182 0.182 0.182 0.182 0 0 0 0.182 0.181 0.182 0.182 0 0 0 0.182-0.181 0.182 0.182 0 0 0-0.182-0.182zm1.692 0a0.182 0.182 0 0 0-0.181 0.182 0.182 0.182 0 0 0 0.181 0.181 0.182 0.182 0 0 0 0.182-0.181 0.182 0.182 0 0 0-0.182-0.182zm-7.06 0.604a0.182 0.182 0 0 0-0.182 0.182 0.182 0.182 0 0 0 0.182 0.182 0.182 0.182 0 0 0 0.181-0.182 0.182 0.182 0 0 0-0.181-0.182zm2.903 0a0.182 0.182 0 0 0-0.182 0.182 0.182 0.182 0 0 0 0.182 0.182 0.182 0.182 0 0 0 0.181-0.182 0.182 0.182 0 0 0-0.181-0.182zm1.86 0a0.182 0.182 0 0 0-0.182 0.182 0.182 0.182 0 0 0 0.181 0.182 0.182 0.182 0 0 0 0.182-0.182 0.182 0.182 0 0 0-0.182-0.182zm2.902 0a0.182 0.182 0 0 0-0.181 0.182 0.182 0.182 0 0 0 0.181 0.182 0.182 0.182 0 0 0 0.182-0.182 0.182 0.182 0 0 0-0.182-0.182zm-7.915 0.847a0.182 0.182 0 0 0-0.172 0.182 0.182 0.182 0 0 0 0.18 0.181 0.182 0.182 0 0 0 0.182-0.181 0.182 0.182 0 0 0-0.181-0.182 0.182 0.182 0 0 0-9e-3 0zm4.763 0a0.182 0.182 0 0 0-0.173 0.182 0.182 0.182 0 0 0 0.181 0.181 0.182 0.182 0 0 0 0.182-0.181 0.182 0.182 0 0 0-0.182-0.182 0.182 0.182 0 0 0-8e-3 0zm-3.071 2.806a0.182 0.182 0 0 0-0.172 0.181 0.182 0.182 0 0 0 0.181 0.182 0.182 0.182 0 0 0 0.182-0.182 0.182 0.182 0 0 0-0.182-0.181 0.182 0.182 0 0 0-9e-3 0zm4.763 0a0.182 0.182 0 0 0-0.173 0.181 0.182 0.182 0 0 0 0.182 0.182 0.182 0.182 0 0 0 0.181-0.182 0.182 0.182 0 0 0-0.181-0.181 0.182 0.182 0 0 0-0.01 0zm-5.6 0.242a0.182 0.182 0 0 0-0.182 0.182 0.182 0.182 0 0 0 0.182 0.181 0.182 0.182 0 0 0 0.181-0.181 0.182 0.182 0 0 0-0.181-0.182zm1.693 0a0.182 0.182 0 0 0-0.182 0.182 0.182 0.182 0 0 0 0.182 0.181 0.182 0.182 0 0 0 0.182-0.181 0.182 0.182 0 0 0-0.182-0.182zm3.07 0a0.182 0.182 0 0 0-0.183 0.182 0.182 0.182 0 0 0 0.182 0.181 0.182 0.182 0 0 0 0.182-0.181 0.182 0.182 0 0 0-0.182-0.182zm1.692 0a0.182 0.182 0 0 0-0.181 0.182 0.182 0.182 0 0 0 0.181 0.181 0.182 0.182 0 0 0 0.182-0.181 0.182 0.182 0 0 0-0.182-0.182zm-7.06 0.604a0.182 0.182 0 0 0-0.182 0.182 0.182 0.182 0 0 0 0.182 0.182 0.182 0.182 0 0 0 0.181-0.182 0.182 0.182 0 0 0-0.181-0.182zm2.903 0a0.182 0.182 0 0 0-0.181 0.182 0.182 0.182 0 0 0 0.18 0.182 0.182 0.182 0 0 0 0.182-0.182 0.182 0.182 0 0 0-0.181-0.182zm1.86 0a0.182 0.182 0 0 0-0.182 0.182 0.182 0.182 0 0 0 0.181 0.182 0.182 0.182 0 0 0 0.182-0.182 0.182 0.182 0 0 0-0.182-0.182zm2.902 0a0.182 0.182 0 0 0-0.181 0.182 0.182 0.182 0 0 0 0.181 0.182 0.182 0.182 0 0 0 0.182-0.182 0.182 0.182 0 0 0-0.182-0.182zm-7.915 0.846a0.182 0.182 0 0 0-0.172 0.182 0.182 0.182 0 0 0 0.181 0.181 0.182 0.182 0 0 0 0.181-0.181 0.182 0.182 0 0 0-0.181-0.182 0.182 0.182 0 0 0-9e-3 0zm4.763 0a0.182 0.182 0 0 0-0.173 0.182 0.182 0.182 0 0 0 0.181 0.181 0.182 0.182 0 0 0 0.182-0.181 0.182 0.182 0 0 0-0.182-0.182 0.182 0.182 0 0 0-8e-3 0z"/>
			<path fill="#DB0000" d="m4.066 2.464a0.182 0.182 0 0 0-0.172 0.182 0.182 0.182 0 0 0 0.182 0.182 0.182 0.182 0 0 0 0.182-0.182 0.182 0.182 0 0 0-0.182-0.182 0.182 0.182 0 0 0-0.01 0zm4.763 0a0.182 0.182 0 0 0-0.173 0.182 0.182 0.182 0 0 0 0.182 0.182 0.182 0.182 0 0 0 0.182-0.181 0.182 0.182 0 0 0-0.182-0.182 0.182 0.182 0 0 0-9e-3 0zm-4.762 4.498a0.182 0.182 0 0 0-0.182 0.182 0.182 0.182 0 0 0 0.182 0.182 0.182 0.182 0 0 0 0.181-0.181 0.182 0.182 0 0 0-0.181-0.182 0.182 0.182 0 0 0-0.01 0zm4.762 0a0.182 0.182 0 0 0-0.182 0.182 0.182 0.182 0 0 0 0.182 0.182 0.182 0.182 0 0 0 0.182-0.182 0.182 0.182 0 0 0-0.182-0.182 0.182 0.182 0 0 0-9e-3 0z"/>
			<path d="m7.129 5.852a1.291 1.291 0 0 0-1.278 1.292 1.291 1.291 0 0 0 1.292 1.291 1.291 1.291 0 0 0 1.291-1.291 1.291 1.291 0 0 0-1.292-1.292 1.291 1.291 0 0 0-0.014 0z"/>
			<path d="m2.367 5.852a1.291 1.291 0 0 0-1.278 1.292 1.291 1.291 0 0 0 1.292 1.291 1.291 1.291 0 0 0 1.291-1.291 1.291 1.291 0 0 0-1.292-1.292 1.291 1.291 0 0 0-0.014 0z"/>
			<path d="m7.129 1.354a1.291 1.291 0 0 0-1.278 1.292 1.291 1.291 0 0 0 1.292 1.291 1.291 1.291 0 0 0 1.291-1.291 1.291 1.291 0 0 0-1.292-1.292 1.291 1.291 0 0 0-0.014 0z"/>
			<path d="m2.367 1.354a1.291 1.291 0 0 0-1.278 1.292 1.291 1.291 0 0 0 1.292 1.291 1.291 1.291 0 0 0 1.291-1.291 1.291 1.291 0 0 0-1.292-1.292z"/>
			<g fill="#292F33">
				<path d="m7.129 6.087a1.057 1.057 0 0 0-1.042 1.057 1.057 1.057 0 0 0 1.057 1.057 1.057 1.057 0 0 0 1.056-1.057 1.057 1.057 0 0 0-1.056-1.057 1.057 1.057 0 0 0-0.015 0z"/>
				<path d="m2.367 6.087a1.057 1.057 0 0 0-1.042 1.057 1.057 1.057 0 0 0 1.057 1.057 1.057 1.057 0 0 0 1.056-1.057 1.057 1.057 0 0 0-1.056-1.057 1.057 1.057 0 0 0-0.015 0z"/>
				<path d="m7.129 1.589a1.057 1.057 0 0 0-1.042 1.057 1.057 1.057 0 0 0 1.057 1.057 1.057 1.057 0 0 0 1.056-1.057 1.057 1.057 0 0 0-1.056-1.057 1.057 1.057 0 0 0-0.015 0z"/>
				<path d="m2.367 1.589a1.057 1.057 0 0 0-1.042 1.057 1.057 1.057 0 0 0 1.057 1.057 1.057 1.057 0 0 0 1.056-1.057 1.057 1.057 0 0 0-1.056-1.057 1.057 1.057 0 0 0-0.015 0z"/>
			</g>
		</g>
		<g stroke="lightgray" stroke-linecap="round" stroke-linejoin="round" stroke-width="67.5">
			<path id="rot" style="transform-origin: 86.425% -21.75%" d="m2395.8-667.35-201.12 116.14"/>
			<path id="rot1" style="transform-origin: 137.175% -21.415%" d="m3362.8-742.51 120.12 198.77"/>
			<path id="rot2" style="transform-origin: 87.5% 25.75%" d="m2019.5 533.46 201.14 116.1"/>
			<path id="rot3" style="transform-origin: 136.75% 26.125%" d="m3587.3 455.51-119.34 199.24"/>
		</g>
	</g>
</svg>
