<svg xmlns="http://www.w3.org/2000/svg" viewBox="0 0 9.525 6.879"><path fill="#CCD6DD" d="M9.525 5.821a1.058 1.058 0 0 1-1.058 1.058H1.058A1.058 1.058 0 0 1 0 5.821V1.057A1.058 1.058 0 0 1 1.058 0h7.409a1.058 1.058 0 0 1 1.058 1.057z"/><path fill="#99AAB5" d="M.10546875.60270312A1.178 1.178 0 0 0 0 1.0577812v.2714844l2.5898438 2.5859375L.16992188 6.3331719l-.01757813.0273437a1.058 1.058 0 0 0 .3671875.3652344l.02539063-.015625L2.9648438 4.28825l.8789062.8789062c.504.5 1.3173125.5 1.8203125 0l.8886719-.8847656L8.9804688 6.710125l.0253906.015625a1.053 1.053 0 0 0 .3652344-.3652344l-.015625-.0234375-2.4277344-2.4296875 2.5957031-2.5839844v-.265625c0-.14499995-.050516-.33207807-.1035156-.45507808z"/><path fill="#E1E8ED" d="M8.467 0H1.058a1.058 1.058 0 0 0-.952.603l3.908 3.905a1.058 1.058 0 0 0 1.497 0L9.42.603A1.058 1.058 0 0 0 8.468 0Z"/><path fill="#66757F" d="M3.969 1.13c0-.193.095-.336.264-.336h.958c.222 0 .31.13.31.264 0 .133-.09.265-.273.265h-.714v.529h.666c.191 0 .284.13.284.265 0 .132-.098.264-.284.264h-.669v.53h.751c.186 0 .276.129.276.264a.26.26 0 0 1-.276.264h-.994c-.172 0-.3-.14-.3-.314z"/></svg>