<svg xmlns="http://www.w3.org/2000/svg" viewBox="0 0 9.525 6.879"><path fill="#CCD6DD" d="M9.525 5.814a1.058 1.058 0 01-1.058 1.058H1.058A1.058 1.058 0 010 5.814V1.05A1.058 1.058 0 011.058-.007h7.409A1.058 1.058 0 019.525 1.05z"/><path fill="#99AAB5" d="M3.162 3.337L.169 6.327l-.016.026a1.058 1.058 0 00.366.366l.026-.016 2.99-2.993a.265.265 0 00-.373-.373m6.21 3.016l-.016-.023-2.99-2.993a.265.265 0 10-.376.373l2.99 2.993.026.016a1.053 1.053 0 00.365-.366"/><path fill="#99AAB5" d="M.106.596A1.178 1.178 0 000 1.05v.273L3.844 5.16c.504.5 1.317.5 1.82 0l3.86-3.844V1.05c0-.145-.052-.332-.105-.455H.106z"/><path fill="#E1E8ED" d="M8.467-.007H1.058a1.058 1.058 0 00-.952.603l3.908 3.905a1.058 1.058 0 001.497 0L9.42.596a1.058 1.058 0 00-.952-.603z"/><path fill="#66757F" d="M3.969 1.123c0-.193.095-.336.264-.336h.958c.222 0 .31.13.31.264 0 .133-.09.265-.273.265h-.714v.529h.666c.191 0 .284.13.284.265 0 .132-.098.264-.284.264h-.669v.53h.751c.186 0 .276.129.276.264a.26.26 0 01-.276.264h-.994c-.172 0-.3-.14-.3-.314z"/></svg>