<svg xmlns="http://www.w3.org/2000/svg" viewBox="0 0 364.5 364.5"><defs><linearGradient id="a" x1="189.11" x2="589.05" y1="722.18" y2="374.95" gradientTransform="matrix(.91075 0 0 .91125 -64.958 -15.95)" gradientUnits="userSpaceOnUse"><stop offset="0" stop-color="#4E505D"/><stop offset="1" stop-color="#7A8597"/></linearGradient></defs><path fill="url(#a)" d="M456.92 388.86c-19.217-44.828-51.873-77.43-97.05-96.708-22.58-9.6354-46.036-14.557-70.751-14.557-24.71 0-48.191 4.8752-70.746 14.557-44.803 19.227-77.804 51.808-97.055 96.708-9.6467 22.495-14.349 46.061-14.349 70.785 0 24.728 4.7022 48.49 14.349 70.989 19.251 44.9 52.252 77.676 97.055 96.908 22.555 9.6819 46.036 14.552 70.746 14.552 24.715 0 48.171-4.9217 70.751-14.552 45.178-19.279 77.834-52.085 97.05-96.908 9.6765-22.572 14.549-46.261 14.549-70.989 0-24.723-4.8725-48.214-14.549-70.785zm-228.39-77.366c-15.744 19.938-27.299 45.262-34.676 75.97h-47.63c17.537-34.099 47.035-61.417 82.306-75.97zm-99.444 148.15c0-17.347 2.7891-38.095 8.1715-54.247h52.213c-2.5896 16.947-3.7879 37.7-3.7879 54.247 0 16.352 1.1989 38.905 3.7879 55.852h-52.613c-5.1822-16.152-7.7718-38.9-7.7718-55.852zm17.139 73.785h47.63c7.3764 31.304 18.933 55.027 34.676 74.77-35.871-14.957-65.368-40.275-82.306-74.77zm131.73 84.737c-12.955-3.7864-25.11-13.357-36.07-28.91-10.961-15.556-19.332-32.895-25.11-55.828h61.18zm0-102.67h-66.163c-2.5932-17.748-3.9881-40.3-3.9881-55.852 0-16.748 1.3943-37.499 4.3877-54.247h65.763v110.1zm0-128.03h-61.18c6.1775-22.733 14.596-41.841 25.51-57.228 11.007-15.522 22.716-25.124 35.671-28.714v85.942zm154.25 0h-47.631c-7.3722-30.709-18.932-56.033-34.676-75.97 35.276 14.552 64.769 41.871 82.307 75.97zm-131.73-85.942c12.955 3.5904 24.663 13.192 35.671 28.714 10.918 15.387 19.332 34.495 25.509 57.228h-61.18zm0 103.88h65.763c2.9928 16.748 4.3877 37.499 4.3877 54.247 0 15.553-1.3949 38.104-3.9881 55.852h-66.163zm0 212.77v-84.737h61.18c-5.9773 22.933-14.459 40.194-25.31 55.828-10.875 15.671-22.716 25.323-35.87 28.91zm49.425-9.9673c15.744-19.743 27.304-43.466 34.676-74.77h47.631c-16.939 34.495-46.437 59.813-82.307 74.77zm91.672-92.703h-52.613c2.5932-16.948 3.788-39.5 3.788-55.852 0-16.547-1.1947-37.299-3.788-54.247h52.213c5.3823 16.152 8.1714 36.899 8.1714 54.247-.00058 16.952-2.589 39.7-7.7718 55.852z" transform="translate(-106.97 -277.59)"/></svg>