<svg xmlns="http://www.w3.org/2000/svg" viewBox="0 0 34.105 34.106"><path fill="#8899A6" d="M26.773 0c-4.051-1.7e-7-7.334 3.284-7.334 7.334-.000001.569.07136 1.1184.19336 1.6504l-18.504 18.508c-1.5095 1.5105-1.5039 3.9619.00977 5.4766 1.5156 1.5136 3.9641 1.5173 5.4746.0078l18.506-18.506c.533.122 1.0823.19531 1.6523.19531 4.05 0 7.334-3.284 7.334-7.334.000966-.83003-.83796-1.9218-1.752-1.0078l-2.7422 2.7422s-1.8283.91493-3.6562-.91406c-1.829-1.828-.91406-3.6562-.91406-3.6562l2.7422-2.7441c.51469-.51412.39164-1.0036.039063-1.334-.27423-.25699-.68789-.41797-1.0488-.41797zM3.869 28.873a1.482 1.4825 0 0 1 1.4805 1.4824 1.482 1.4825 0 0 1-1.4805 1.4824 1.482 1.4825 0 0 1-1.4824-1.4824A1.482 1.4825 0 0 1 3.869 28.873z"/></svg>