<?xml version="1.0" encoding="UTF-8" standalone="no"?>
<!-- Created with Inkscape (http://www.inkscape.org/) -->

<svg
   width="37.417721mm"
   height="37.417721mm"
   viewBox="0 0 37.417722 37.41772"
   version="1.1"
   id="svg5"
   inkscape:version="1.2.2 (732a01da63, 2022-12-09)"
   sodipodi:docname="dh.svg"
   inkscape:export-filename="..\..\..\..\..\..\..\..\Desktop\dhb.png"
   inkscape:export-xdpi="1390.229"
   inkscape:export-ydpi="1390.229"
   xml:space="preserve"
   xmlns:inkscape="http://www.inkscape.org/namespaces/inkscape"
   xmlns:sodipodi="http://sodipodi.sourceforge.net/DTD/sodipodi-0.dtd"
   xmlns="http://www.w3.org/2000/svg"
   xmlns:svg="http://www.w3.org/2000/svg"><sodipodi:namedview
     id="namedview7"
     pagecolor="#ffffff"
     bordercolor="#000000"
     borderopacity="0.25"
     inkscape:showpageshadow="false"
     inkscape:pageopacity="0.0"
     inkscape:pagecheckerboard="true"
     inkscape:deskcolor="#323232"
     inkscape:document-units="mm"
     showgrid="false"
     shape-rendering="crispEdges"
     borderlayer="false"
     showborder="true"
     inkscape:zoom="1"
     inkscape:cx="125"
     inkscape:cy="39.999999"
     inkscape:window-width="1920"
     inkscape:window-height="1001"
     inkscape:window-x="-9"
     inkscape:window-y="-9"
     inkscape:window-maximized="1"
     inkscape:current-layer="layer1" /><defs
     id="defs2"><rect
       x="160.15968"
       y="32.526913"
       width="638.664"
       height="99.256622"
       id="rect2653" /><rect
       x="90.870644"
       y="323.39258"
       width="479.74353"
       height="339.42856"
       id="rect1101" /><rect
       x="90.870644"
       y="323.39258"
       width="479.74353"
       height="339.42856"
       id="rect1101-4" /><rect
       x="90.870644"
       y="323.39258"
       width="479.74353"
       height="339.42856"
       id="rect1101-6" /><linearGradient
       id="sw-gradient-0"
       x1="0"
       x2="0"
       y1="1"
       y2="0"><stop
         stop-color="rgba(255, 0, 0, 1)"
         offset="0%"
         id="stop3256" /><stop
         stop-color="rgba(255, 0, 0, 1)"
         offset="100%"
         id="stop3258" /></linearGradient></defs><g
     inkscape:label="Warstwa 1"
     inkscape:groupmode="layer"
     id="layer1"
     transform="translate(5.4803209,-58.396366)"><rect
       style="fill:#000000;fill-opacity:1;stroke:none;stroke-width:0.144;stroke-linecap:square;stroke-miterlimit:1;paint-order:markers stroke fill"
       id="rect2544"
       width="37.417721"
       height="37.417721"
       x="-5.4803209"
       y="-5.4796934" /><path
       id="rect1407-2"
       style="opacity:1;fill:#333333;fill-opacity:1;stroke:none;stroke-width:0.119667;stroke-linecap:square;stroke-miterlimit:1;paint-order:markers stroke fill"
       d="M 5.024561,0.56216051 3.3269902,6.8966576 2.6831018,9.2996117 -0.06815137,19.566168 H 2.8345138 c 1.6421617,0 2.8240819,-0.103352 3.5455201,-0.310059 0.7214381,-0.206704 1.4387454,-0.580096 2.1518066,-1.119827 0.7188031,-0.539731 1.3482448,-1.217095 1.8882565,-2.032435 0.547292,-0.82108 0.951298,-1.719848 1.212846,-2.695958 0.367705,-1.372296 0.399614,-2.572511 0.09508,-3.600298 C 11.423498,8.7798045 10.88422,8.0391085 10.110038,7.5855044 9.3373956,7.1261585 8.0293727,6.8966576 6.1862472,6.8966576 H 5.7299443 L 6.7836268,2.9651146 H 18.036686 l -2.749703,10.2613894 -0.645438,2.408122 -2.749187,10.261388 h 2.445846 l 1.488798,-5.555215 h 4.237467 l -1.488798,5.555215 h 2.437578 l 3.394625,-12.66951 h -2.437578 l -1.280542,4.78007 h -4.237467 l 1.280542,-4.78007 h -0.02067 L 21.105233,0.56216051 Z M 5.1067266,9.222097 h 0.8180379 c 1.498616,0 2.497649,0.3328539 2.9967163,0.998906 0.5537095,0.740695 0.6504345,1.782837 0.2904218,3.126424 -0.233855,0.872757 -0.5887287,1.607884 -1.0645348,2.205033 -0.4758061,0.597149 -0.9970121,1.022217 -1.5642456,1.274858 -0.5614916,0.25264 -1.3935415,0.378787 -2.4959717,0.378787 H 2.9673223 L 5.086056,9.2996117 Z" /><path
       id="rect1407"
       style="fill:#4d4d4d;fill-opacity:1;stroke:none;stroke-width:0.119667;stroke-linecap:square;stroke-miterlimit:1;paint-order:markers stroke fill"
       d="M 6.0828742,0.56216049 3.7416812,9.2996117 h 2.402955 L 7.8419602,2.9651146 H 19.095019 L 15.700233,15.634625 h 2.424928 L 22.163816,0.56216049 Z"
       sodipodi:nodetypes="ccccccccc" /><text
       xml:space="preserve"
       style="font-weight:bold;font-size:17.6389px;font-family:'Century Gothic';-inkscape-font-specification:'Century Gothic Bold';letter-spacing:1.32292px;fill:#ffffff;fill-opacity:1;stroke:none;stroke-width:0.144;stroke-linecap:square;stroke-miterlimit:1;paint-order:markers stroke fill"
       x="4.777781"
       y="19.566174"
       id="text1685"
       transform="skewX(-15)"><tspan
         sodipodi:role="line"
         id="tspan1683"
         style="fill:#ffffff;stroke-width:0.144"
         x="4.777781"
         y="19.566174"
         dy="0 6.3299999">DH</tspan></text><rect
       style="fill:#000000;fill-opacity:1;stroke:none;stroke-width:0.144;stroke-linecap:square;stroke-miterlimit:1;paint-order:markers stroke fill"
       id="rect2544-3"
       width="37.417721"
       height="37.417721"
       x="-5.4803209"
       y="58.396366" /><path
       id="rect1094-0-4-9"
       style="fill:#333333;fill-opacity:1;stroke-width:4.40318;stroke-linecap:round;stroke-linejoin:round;stroke-miterlimit:0.7;paint-order:stroke markers fill"
       d="m 4.0832956,64.683306 c -0.775921,2.89577 -1.551841,5.791547 -2.327762,8.687317 h 2.434477 c 0.558528,-2.08445 1.117056,-4.16891 1.675584,-6.253357 H 17.524831 c -1.23802,4.620347 -2.192338,8.181902 -3.35103,12.506166 h 2.43396 c 1.377456,-5.140698 2.855298,-10.656079 4.003208,-14.940126 -5.509224,0 -11.0184494,0 -16.5276734,0 z"
       sodipodi:nodetypes="ccccccccc" /><path
       id="rect1094-0-4"
       style="fill:#4d4d4d;stroke-width:4.40318;stroke-linecap:round;stroke-linejoin:round;stroke-miterlimit:0.7;paint-order:stroke markers fill"
       d="m 5.1416296,64.683306 c -0.775921,2.89577 -1.551841,5.791547 -2.327762,8.687317 h 2.434477 c 0.558528,-2.08445 1.117056,-4.16891 1.675584,-6.253357 H 18.583165 c -1.23802,4.620347 -2.192338,8.181902 -3.35103,12.506166 h 2.43396 c 1.377456,-5.140698 2.855298,-10.656079 4.003208,-14.940126 -5.509224,0 -11.018449,0 -16.5276734,0 z"
       sodipodi:nodetypes="ccccccccc" /><text
       xml:space="preserve"
       style="font-weight:bold;font-size:17.6389px;font-family:'Century Gothic';-inkscape-font-specification:'Century Gothic Bold';letter-spacing:1.32292px;fill:#333333;fill-opacity:1;stroke:none;stroke-width:0.144;stroke-linecap:square;stroke-miterlimit:1;paint-order:markers stroke fill"
       x="19.986547"
       y="83.442207"
       id="text1685-2-5"
       transform="skewX(-15)"><tspan
         sodipodi:role="line"
         id="tspan1683-9-4"
         style="font-style:normal;font-variant:normal;font-weight:bold;font-stretch:normal;font-family:'Circular Std';-inkscape-font-specification:'Circular Std Bold';fill:#333333;fill-opacity:1;stroke-width:0.144"
         x="19.986547"
         y="83.442207"
         dy="0 6.25">DH</tspan></text><text
       xml:space="preserve"
       style="font-weight:bold;font-size:17.6389px;font-family:'Century Gothic';-inkscape-font-specification:'Century Gothic Bold';letter-spacing:1.32292px;fill:#ffffff;fill-opacity:1;stroke:none;stroke-width:0.144;stroke-linecap:square;stroke-miterlimit:1;paint-order:markers stroke fill"
       x="21.044882"
       y="83.442207"
       id="text1685-2"
       transform="skewX(-15)"><tspan
         sodipodi:role="line"
         id="tspan1683-9"
         style="font-style:normal;font-variant:normal;font-weight:bold;font-stretch:normal;font-family:'Circular Std';-inkscape-font-specification:'Circular Std Bold';fill:#ffffff;stroke-width:0.144"
         x="21.044882"
         y="83.442207"
         dy="0 6.25">DH</tspan></text><rect
       style="opacity:1;fill:#000000;fill-opacity:1;stroke:none;stroke-width:2.64583;stroke-linecap:round;stroke-linejoin:round;stroke-miterlimit:0.7;stroke-dasharray:none;stroke-opacity:1;paint-order:stroke fill markers"
       id="rect2759"
       width="112.25291"
       height="37.417641"
       x="37.229069"
       y="58.396366" /><g
       id="g3313"
       transform="matrix(0.07795341,0,0,0.01416638,38.351362,25.896173)"
       style="display:none"><path
         style="opacity:1;fill:#ffcc00;fill-opacity:1"
         fill="url(#sw-gradient-0)"
         d="M 0,0 10,40.8 C 20,82 40,163 60,179.7 80,196 100,147 120,114.3 140,82 160,65 180,106.2 c 20,40.8 40,138.8 60,204.1 20,65.7 40,97.7 60,106.2 20,8.5 40,-8.5 60,-24.5 20,-16 40,-33 60,-89.8 20,-57.2 40,-155.2 60,-147 20,7.8 40,122.8 60,130.6 20,8.2 40,-89.8 60,-114.3 20,-24.5 40,24.5 60,65.3 20,41.2 40,73.2 60,57.2 20,-16 40,-82 60,-81.7 20,-0.3 40,65.7 60,114.4 20,49.3 40,81.3 60,89.8 20,8.5 40,-8.5 60,-57.2 20,-49.3 40,-130.3 60,-130.6 20,0.3 40,81.3 60,122.5 20,40.8 40,40.8 60,24.5 20,-16.7 40,-48.7 60,-73.5 20,-24.2 40,-41.2 60,-57.2 20,-16 40,-33 60,-57.2 20,-24.8 40,-56.8 60,-65.3 20,-8.5 40,8.5 50,16.3 l 10,8.2 v 343 h -10 c -10,0 -30,0 -50,0 -20,0 -40,0 -60,0 -20,0 -40,0 -60,0 -20,0 -40,0 -60,0 -20,0 -40,0 -60,0 -20,0 -40,0 -60,0 -20,0 -40,0 -60,0 -20,0 -40,0 -60,0 -20,0 -40,0 -60,0 -20,0 -40,0 -60,0 -20,0 -40,0 -60,0 -20,0 -40,0 -60,0 -20,0 -40,0 -60,0 -20,0 -40,0 -60,0 -20,0 -40,0 -60,0 -20,0 -40,0 -60,0 -20,0 -40,0 -60,0 -20,0 -40,0 -60,0 -20,0 -40,0 -60,0 -20,0 -40,0 -60,0 -20,0 -40,0 -60,0 -20,0 -40,0 -60,0 -20,0 -40,0 -60,0 -20,0 -40,0 -50,0 H 0 Z"
         id="path3295" /><path
         style="opacity:0.9;fill:#db0000;fill-opacity:1"
         fill="url(#sw-gradient-1)"
         d="m 0,0 10,49 c 10,49 30,147 50,155.2 20,7.8 40,-73.2 60,-73.5 20,0.3 40,81.3 60,73.5 C 200,196 220,98 240,81.7 260,65 280,131 300,187.8 c 20,57.2 40,106.2 60,98 20,-7.8 40,-73.8 60,-65.3 20,8.5 40,89.5 60,65.3 20,-24.8 40,-154.8 60,-196 20,-40.8 40,8.2 60,49 20,41.2 40,73.2 60,49 C 680,163 700,82 720,73.5 c 20,-8.5 40,57.5 60,106.2 20,49.3 40,81.3 60,106.1 20,24.2 40,41.2 60,0 20,-40.8 40,-138.8 60,-130.6 20,7.8 40,122.8 60,122.5 20,0.3 40,-114.7 60,-147 20,-32.7 40,16.3 60,16.3 20,0 40,-49 60,-57.2 20,-7.8 40,24.2 60,16.4 20,-8.2 40,-57.2 60,-32.7 20,24.5 40,122.5 60,130.7 20,7.8 40,-73.2 50,-114.4 L 1440,49 v 441 h -10 c -10,0 -30,0 -50,0 -20,0 -40,0 -60,0 -20,0 -40,0 -60,0 -20,0 -40,0 -60,0 -20,0 -40,0 -60,0 -20,0 -40,0 -60,0 -20,0 -40,0 -60,0 -20,0 -40,0 -60,0 -20,0 -40,0 -60,0 -20,0 -40,0 -60,0 -20,0 -40,0 -60,0 -20,0 -40,0 -60,0 -20,0 -40,0 -60,0 -20,0 -40,0 -60,0 -20,0 -40,0 -60,0 -20,0 -40,0 -60,0 -20,0 -40,0 -60,0 -20,0 -40,0 -60,0 -20,0 -40,0 -60,0 -20,0 -40,0 -60,0 -20,0 -40,0 -60,0 -20,0 -40,0 -60,0 -20,0 -40,0 -60,0 -20,0 -40,0 -50,0 H 0 Z"
         id="path3304" /></g><text
       xml:space="preserve"
       style="font-weight:bold;font-size:12.4725px;font-family:'Century Gothic';-inkscape-font-specification:'Century Gothic Bold';fill:#333333;fill-opacity:1;stroke:none;stroke-width:0.101823;stroke-linecap:square;stroke-miterlimit:1;paint-order:markers stroke fill"
       x="63.919189"
       y="78.361679"
       id="text2763-3"
       transform="skewX(-15)"><tspan
         sodipodi:role="line"
         id="tspan2761-2"
         style="font-style:normal;font-variant:normal;font-weight:bold;font-stretch:normal;font-family:'Circular Std';-inkscape-font-specification:'Circular Std Bold';fill:#333333;stroke-width:0.101823"
         x="63.919189"
         y="78.361679"
         dy="0 0 0 0 6.3299999">DISSHARMONIC</tspan></text><text
       xml:space="preserve"
       style="font-weight:bold;font-size:12.4725px;font-family:'Century Gothic';-inkscape-font-specification:'Century Gothic Bold';display:inline;opacity:1;fill:#ffffff;fill-opacity:1;stroke:none;stroke-width:0.101823;stroke-linecap:square;stroke-miterlimit:1;paint-order:markers stroke fill"
       x="64.668999"
       y="78.361679"
       id="text2763"
       transform="skewX(-15)"><tspan
         sodipodi:role="line"
         id="tspan2761"
         style="font-style:normal;font-variant:normal;font-weight:bold;font-stretch:normal;font-family:'Circular Std';-inkscape-font-specification:'Circular Std Bold';stroke-width:0.101823"
         x="64.668999"
         y="78.361679"
         dy="0 0 0 0 6.3299999">DISSHARMONIC</tspan></text><rect
       style="fill:#000000;fill-opacity:1;stroke:none;stroke-width:2.64583;stroke-linecap:round;stroke-linejoin:round;stroke-miterlimit:0.7;stroke-dasharray:none;stroke-opacity:1;paint-order:stroke fill markers"
       id="rect2759-7"
       width="112.25291"
       height="37.417641"
       x="37.229069"
       y="-5.4796934" /><text
       xml:space="preserve"
       style="font-weight:bold;font-size:12.4725px;font-family:'Century Gothic';-inkscape-font-specification:'Century Gothic Bold';fill:#333333;fill-opacity:1;stroke:none;stroke-width:0.101823;stroke-linecap:square;stroke-miterlimit:1;paint-order:markers stroke fill"
       x="49.074696"
       y="14.543386"
       id="text2763-3-0"
       transform="skewX(-15)"><tspan
         sodipodi:role="line"
         id="tspan2761-2-2"
         style="fill:#333333;stroke-width:0.101823"
         x="49.074696"
         y="14.543386"
         dy="0 0 0 0 6.3299999">DISSHARMONIC</tspan></text><text
       xml:space="preserve"
       style="font-weight:bold;font-size:12.4725px;font-family:'Century Gothic';-inkscape-font-specification:'Century Gothic Bold';display:inline;fill:#ffffff;fill-opacity:1;stroke:none;stroke-width:0.101823;stroke-linecap:square;stroke-miterlimit:1;paint-order:markers stroke fill"
       x="49.824497"
       y="14.543386"
       id="text2763-1"
       transform="skewX(-15)"><tspan
         sodipodi:role="line"
         id="tspan2761-5"
         style="stroke-width:0.101823"
         x="49.824497"
         y="14.543386"
         dy="0 0 0 0 6.3299999">DISSHARMONIC</tspan></text></g></svg>
