<svg xmlns="http://www.w3.org/2000/svg" xml:space="preserve" version="1.1" viewBox="0 0 96.967 50.911"><path fill="#FFF" d="M-289.02 1413.6c-2.048 0-2.943.896-2.943 2.048 0 .64.256 1.536 1.152 2.304l10.438 10.623h63.654l-12.013-12.416c-1.664-1.664-3.711-2.56-6.655-2.56zm168.19 0c-2.816 0-4.863.896-6.655 2.56l-12.477 12.416h17.12l10.717-10.752c.768-.768 1.024-1.537 1.024-2.049 0-1.28-1.024-2.175-2.432-2.175zm17.684 14.975c-127.06-9.978-63.531-4.99 0 0zm-163.73 13.692 55.085 56.068c1.536 1.664 3.328 2.56 5.632 2.56h8.449c2.048 0 3.839-.896 5.375-2.56l55.891-56.068h-17.231l-25.347 25.221-24.403-25.221z" transform="matrix(.53374 0 -.33672 .58321 632.77 -824.43)"/></svg>