<?xml version="1.0" encoding="UTF-8"?>
<!-- Created with Inkscape (http://www.inkscape.org/) -->
<svg width="31.856mm" height="31.829mm" version="1.1" viewBox="0 0 31.856 31.829" xmlns="http://www.w3.org/2000/svg" xmlns:xlink="http://www.w3.org/1999/xlink">
 <defs>
  <linearGradient id="linearGradient14184" x1="57.1" x2="57.1" y1=".35" y2="113.85" gradientUnits="userSpaceOnUse">
   <stop stop-color="#FF5A54" offset="0"/>
   <stop stop-color="#E30051" offset="1"/>
  </linearGradient>
 </defs>
 <g transform="translate(-10.944 -236.18)">
  <g transform="matrix(.26458 0 0 .26458 11.737 236.98)">
   <path d="m97.2 16.95q-0.3-0.3-0.6-0.6-16.4-16-39.5-16-23.5 0-40.15 16.6-16.6 16.65-16.6 40.15t16.6 40.1q16.65 16.65 40.15 16.65 23.1 0 39.5-16.05 0.3-0.3 0.6-0.6 16.65-16.6 16.65-40.1t-16.65-40.15z" fill="url(#linearGradient14184)"/>
   <path d="m113.75 57.1q-1.5 20.55-16.5 35.5-16.6 16.65-40.1 16.65t-40.15-16.65q-14.95-14.95-16.4-35.5-0.1-1.15-0.15-2.3-0.05 1.15-0.05 2.3 0 23.5 16.6 40.1 16.65 16.65 40.15 16.65t40.1-16.65q16.65-16.6 16.65-40.1 0-1.15-0.05-2.3-0.05 1.15-0.1 2.3z" fill="#8c0059"/>
   <path d="m113.8 57.1q0.05 1.1 0.1 2.25 0.05-1.1 0.05-2.25 0-23.5-16.65-40.15-16.6-16.6-40.1-16.6t-40.15 16.6q-16.6 16.65-16.6 40.15 0 1.15 0.05 2.25 0.05-1.15 0.15-2.25 1.4-20.6 17.15-36.3 15.75-15.75 39.25-15.85t39.4 15.75q15.9 15.8 17.35 36.4z" fill="#ff8085"/>
   <path d="m 114.4,57.15 q 0,23.7 -16.85,40.4 Q 97.1,98 96.6,98.5 80.2,114.3 57.15,114.3 33.5,114.3 16.7,97.55 0,80.85 0,57.15 0,33.5 16.7,16.7 33.5,0 57.15,0 80.2,0 96.6,15.8 q 0.5,0.45 0.95,0.9 16.85,16.8 16.85,40.45 z" fill="none" stroke="#000" stroke-linecap="round" stroke-linejoin="round" stroke-width="6"/>
  </g>
 </g>
</svg>
