<?xml version="1.0" encoding="UTF-8"?>
<!-- Created with Inkscape (http://www.inkscape.org/) -->
<svg width="31.856mm" height="31.829mm" version="1.1" viewBox="0 0 31.856 31.829" xmlns="http://www.w3.org/2000/svg">
 <g transform="translate(-10.944 -236.18)">
  <g transform="matrix(.26458 0 0 .26458 11.737 236.98)">
   <g>
    <path d="m46.25 46.8q0-5.45-3.85-9.25-3.8-3.8-9.2-3.8t-9.25 3.8q-3.8 3.8-3.8 9.25 0 5.4 3.8 9.2 0.55 0.5 1.2 1 7.45-2.1 16.2 0 0.55-0.5 1.05-1 3.85-3.8 3.85-9.2m-21.55-8.45q1.2-1.15 2.9-1.15t2.95 1.15q1.15 1.15 1.15 2.9t-1.15 2.9q-1.25 1.2-2.95 1.2t-2.9-1.2q-1.2-1.15-1.2-2.9t1.2-2.9m68.95 8.45q0-5.45-3.85-9.25-3.8-3.8-9.2-3.8t-9.25 3.8q-3.8 3.8-3.8 9.25 0 5.4 3.8 9.2 0.55 0.5 1.2 1 7.45-2.1 16.2 0 0.55-0.5 1.05-1 3.85-3.8 3.85-9.2m-15.7-8.45q1.15 1.15 1.15 2.9t-1.15 2.9q-1.25 1.2-2.95 1.2t-2.9-1.2q-1.2-1.15-1.2-2.9t1.2-2.9 2.9-1.15 2.95 1.15z"/>
    <path d="m27.6 37.2q-1.7 0-2.9 1.15t-1.2 2.9 1.2 2.9q1.2 1.2 2.9 1.2t2.95-1.2q1.15-1.15 1.15-2.9t-1.15-2.9q-1.25-1.15-2.95-1.15m51.5 4.05q0-1.75-1.15-2.9-1.25-1.15-2.95-1.15t-2.9 1.15-1.2 2.9 1.2 2.9q1.2 1.2 2.9 1.2t2.95-1.2q1.15-1.15 1.15-2.9z" fill="#fff"/>
   </g>
  </g>
 </g>
</svg>
