<?xml version="1.0" encoding="UTF-8"?>
<!-- Created with Inkscape (http://www.inkscape.org/) -->
<svg width="31.856mm" height="31.829mm" version="1.1" viewBox="0 0 31.856 31.829" xmlns="http://www.w3.org/2000/svg">
 <g transform="translate(-10.944 -236.18)">
  <g transform="matrix(.26458 0 0 .26458 11.737 236.98)">
   <path d="m31.65 75.15q0.7-0.15 1.4-0.3 4.9-1.1 9.9-1.7 0.7-0.1 1.45-0.2 5-0.55 10.05-0.65 0.2-0.05 6.15-0.15 7.5-0.15 21.25 2.7-5.45-5.6-11.2-7.4-14-4.35-27.8 0-5.6 1.8-11.2 7.7z" fill="#401"/>
   <path d="m31.65 75.15q0.7-0.15 1.4-0.3 4.9-2.05 14.4-4.65 9.45-2.6 13.15 1.95 7.5-0.15 21.25 2.7-5.45-5.6-11.2-7.4-14-4.35-27.8 0-5.6 1.8-11.2 7.7z" fill="#201"/>
   <g fill="none" stroke="#000" stroke-linecap="round" stroke-miterlimit="3">
    <path d="m47.95 81.2q8.8 8.15 18.25 0.1"/>
    <path d="m66.2 81.3q-8.8 6.55-18.25-0.1" stroke-width=".8"/>
    <path d="m31.65 75.15q5.6-5.9 11.2-7.7 13.8-4.35 27.8 0 5.75 1.8 11.2 7.4-25.9-5.35-50.2 0.3z" stroke-width="3"/>
   </g>
  </g>
 </g>
</svg>
