<?xml version="1.0" encoding="UTF-8"?>
<!-- Created with Inkscape (http://www.inkscape.org/) -->
<svg width="31.856mm" height="31.829mm" version="1.1" viewBox="0 0 31.856 31.829" xmlns="http://www.w3.org/2000/svg">
 <g transform="translate(-89.26 -132.76)">
  <g transform="matrix(.26458 0 0 .26458 90.053 133.56)">
   <g>
    <path d="m47 46.8q0-5.55-3.95-9.5-3.9-3.9-9.45-3.9t-9.5 3.9q-3.9 3.95-3.9 9.5t3.9 9.45q0.55 0.55 1.2 1.05 7.65-2.15 16.65 0 0.55-0.5 1.1-1.05 3.95-3.9 3.95-9.45m-23.35-5.7q0-1.75 1.2-2.95 1.25-1.2 3-1.2t3 1.2q1.2 1.2 1.2 2.95 0 1.8-1.2 3-1.25 1.25-3 1.25t-3-1.25q-1.2-1.2-1.2-3m70.35 5.7q0-5.55-3.95-9.5-3.9-3.9-9.45-3.9t-9.5 3.9q-3.9 3.95-3.9 9.5t3.9 9.45q0.55 0.55 1.2 1.05 7.65-2.15 16.65 0 0.55-0.5 1.1-1.05 3.95-3.9 3.95-9.45m-16.15-8.65q1.2 1.2 1.2 2.95 0 1.8-1.2 3-1.25 1.25-3 1.25t-3-1.25q-1.2-1.2-1.2-3 0-1.75 1.2-2.95 1.25-1.2 3-1.2t3 1.2z"/>
    <path d="m24.85 38.15q-1.2 1.2-1.2 2.95 0 1.8 1.2 3 1.25 1.25 3 1.25t3-1.25q1.2-1.2 1.2-3 0-1.75-1.2-2.95-1.25-1.2-3-1.2t-3 1.2m54.2 2.95q0-1.75-1.2-2.95-1.25-1.2-3-1.2t-3 1.2q-1.2 1.2-1.2 2.95 0 1.8 1.2 3 1.25 1.25 3 1.25t3-1.25q1.2-1.2 1.2-3z" fill="#fff"/>
   </g>
  </g>
 </g>
</svg>
