<svg xmlns="http://www.w3.org/2000/svg" xmlns:xlink="http://www.w3.org/1999/xlink" viewBox="0 0 193.71 52.917"><defs><linearGradient id="1" x1="52.635" x2="-53.049" y1="52.634" y2="-53.05" gradientTransform="translate(-13.326 .12567)" gradientUnits="userSpaceOnUse"><stop offset="0" stop-color="red"/><stop offset="1"/></linearGradient><path id="2" fill="url(#1)" d="M-13.325-52.657c-2.607 0-5.1687.1916-7.6745.55656v.0021c-2.4792.36437-4.2628.88805-5.178 1.4516-.4576.28177-.68142.56661-.709.81597s.12318.52128.54519.81855c.84401.59456 2.607 1.1238 4.8984 1.4903 2.2914.36653 5.1165.57981 8.1173.57981s5.8255-.21328 8.1168-.57981c2.2914-.36653 4.0544-.89579 4.8984-1.4903.422-.29728.57276-.5692.54518-.81855-.02758-.24936-.2514-.5342-.709-.81597-3.8715-1.7092-8.6472-1.9985-12.851-2.0103zm26.108 6.8993c.21164.24392.3547.49351.4284.74931.09797.34008.06379.68797-.08992 1.0196-.15371.3316-.42329.64911-.80047.95498-1.5087 1.2235-4.7459 2.3-9.5079 3.0918-9.524 1.5836-22.754 1.5836-32.278 0-4.762-.79179-7.9987-1.8683-9.5074-3.0918-.37717-.30587-.64727-.62337-.80098-.95498s-.1879-.6795-.08992-1.0196c.07349-.25506.2157-.504.42633-.74724-3.7373 2.1313-7.1898 4.7047-10.284 7.6512l.000529.00053c-.82992.79018-1.0589 1.54-.78496 2.2908.27396.75086 1.0878 1.5224 2.4195 2.2557 2.6634 1.4666 7.3619 2.7788 13.709 3.715 12.695 1.8724 29.407 1.8724 42.101 0 6.3473-.93619 11.046-2.2484 13.709-3.715 1.3317-.73329 2.1461-1.5048 2.42-2.2557.27396-.75086.04444-1.5006-.78548-2.2908l.0011-.0011c-3.095-2.9473-6.5483-5.5212-10.287-7.6528zm-72.058 19.892c-2.1192 3.7383-3.7945 7.7603-4.9563 11.996l.0088.0026c-.268.97485.0862 1.9311 1.049 2.8866.96283.95551 2.5342 1.8887 4.654 2.7616 4.2395 1.7457 10.663 3.2529 18.781 4.3145 16.238 2.1232 36.587 2.1232 52.824 0 8.1188-1.0616 14.542-2.5687 18.781-4.3145 2.1197-.87286 3.6917-1.8061 4.6545-2.7616.96283-.95551 1.3165-1.9118 1.0485-2.8866l.0088-.0026c-1.1617-4.2351-2.8369-8.257-4.9558-11.995.04184.61012-.15653 1.2171-.58188 1.7963-.69939.95229-1.9876 1.8493-3.8106 2.6918-3.6461 1.685-9.4393 3.1397-16.949 4.1734-15.02 2.0674-34.195 2.0674-49.215 0-7.5101-1.0337-13.303-2.4884-16.949-4.1734-1.823-.84252-3.1112-1.7395-3.8106-2.6918-.42547-.57932-.62386-1.1865-.58188-1.7968zm-6.8203 27.198c.09909 4.4194.74331 8.7038 1.8645 12.791l.0083-.0026c.38208 1.3898 2.0426 2.763 4.7734 4.006 2.7308 1.2429 6.5153 2.3606 11.096 3.2949 9.1613 1.8685 21.51 3.0081 35.027 3.0081 13.518-.000046 25.866-1.1396 35.027-3.0081 4.5806-.93427 8.3647-2.052 11.095-3.2949 2.7308-1.2429 4.3913-2.6161 4.7734-4.006l.0088.0026c1.121-4.0868 1.7648-8.3709 1.864-12.79-.30224.64868-.84403 1.2791-1.6009 1.8852-1.2188.97589-3.0032 1.9007-5.2953 2.76-4.5842 1.7187-11.205 3.1753-19.398 4.1992-16.386 2.0478-36.563 2.0478-52.949 0-8.1929-1.0239-14.814-2.4805-19.398-4.1992-2.2921-.85935-4.076-1.7841-5.2948-2.76-.75731-.60638-1.2993-1.2371-1.6015-1.8862zm8.2414 27.151c2.3069 3.6151 5.0412 6.9307 8.1328 9.8748l.000529-.000529c1.8854 1.7951 6.6301 3.3866 13.074 4.5 6.444 1.1134 14.593 1.7673 23.321 1.7673 8.728.000003 16.876-.65396 23.32-1.7673 6.444-1.1134 11.189-2.7049 13.074-4.5l.0011.0011c3.0918-2.9443 5.826-6.2601 8.1328-9.8754-.9534.82352-2.3526 1.5912-4.1336 2.3058-2.6112 1.0477-6.047 1.975-10.109 2.7482-8.125 1.5463-18.757 2.4727-30.285 2.4727s-22.161-.92638-30.285-2.4727c-4.0625-.77317-7.4977-1.7004-10.109-2.7482-1.781-.71458-3.1802-1.4823-4.1336-2.3058zm66.049 19.855c-4.9269 1.4885-12.874 2.3906-21.521 2.3906-8.6452.000003-16.59-.90157-21.518-2.3895 6.5721 2.9376 13.854 4.5728 21.518 4.5728 7.6653 0 14.948-1.6357 21.52-4.5739z"/></defs><g transform="translate(20.048 -175.74)"><path d="M51.39 192.28v19.84080159h3.99276007v-5.57164428L67.50763882 192.2803h-5.19314807l-6.93173068 8.37401626V192.2803zm18.33281667 0v11.99488005c0 1.05828942.21136789 2.08437916.6209038 3.05346947.39676602.93358066.96150038 1.77318226 1.68118318 2.49317506.7200628.7196828 1.5595844 1.28678714 2.49317507 1.6811832.9694803.4095259 1.99508005.62086378 3.05346946.62091378 1.05808942 0 2.08757913-.21136788 3.05666943-.62091379.93358067-.39710603 1.77318227-.96150038 2.49317507-1.68118319.7200528-.7200128 1.28678713-1.5594844 1.6811832-2.49317506.4095159-.96911031.61772381-1.99518005.61772381-3.05346947V192.28h-3.99276007v11.99488005c0 2.12417876-1.73168268 3.85276147-3.85586144 3.85276147s-3.85276147-1.72848271-3.85276147-3.85276147V192.28zm20.28579714 0v19.84080159h7.4793252c2.19287808 0 3.9201608-.53673463 5.13574865-1.59518405 1.16778832-1.0197898 1.78308217-2.4703753 1.78308217-4.20295797 0-1.45248547-.45769543-2.73397266-1.31498685-3.70316297-.37640624-.42227577-.82127179-.78227217-1.32768673-1.0698893.34881652-.300147.65242348-.64506355.90429096-1.03168968.55443446-.8497315.84696153-1.86718133.84696153-2.94837052 0-.88770112-.1705883-1.68598314-.50629494-2.37527624-.33326666-.68171319-.82681173-1.25648744-1.46778532-1.70668294-1.1399886-.80146198-2.73417266-1.20678793-4.74105259-1.20678793zm22.38677613 0-3.99596004 1.2704873v18.5698143h3.99596004zm4.95455045 0v19.84080159h3.99276008v-12.3898761l8.79761202 12.3898761h3.61706383V192.28h-3.99596004v12.50387496L120.88730502 192.28zm21.24478755 0v19.84080159h3.99596004v-5.57204428L154.71556673 192.2809h-5.19314806l-6.93173069 8.37401626V192.2809zm24.07475925 0-7.51782482 19.84080159h4.22855772l5.00214998-13.75186248 5.04674953 13.75186248h4.22855771L166.11135278 192.28zm-66.09033909 3.76346237c1.0505895 0 1.85378147.20050799 2.32437676.5795042.1397286.11194888.5699543.45789542.5699543 1.37868621 0 .72245278-.2291577 1.23648764-.69731303 1.5696843-.4502355.3205168-1.12438875.4903251-1.9486805.4903251h-2.82427177v-3.99916zm-2.57587424 7.73412265h2.95157049c1.15468845 0 2.06127938.23478766 2.62367376.67501325.49611504.38916611.73234268.9403606.73234268 1.6907831 0 .72518274-.22910771 1.25188748-.7100429 1.60798391-.51129489.37916621-1.3097869.57950421-2.31487685.57950421h-3.28276718z"/><path fill="#D00000" d="m58.98422406 207.23285047 3.55336446 4.8908511h4.9797502l-3.57256427-4.8908511zm87.20712792 0 3.5502645 4.8908511h4.9797502l-3.57256428-4.8908511zm15.06684933 0 3.15866841 4.8908511 3.13316867-4.8908511z"/><use xlink:href="#2" width="100%" height="100%" color="#000" transform="matrix(0 .5014 -.50125 0 6.4743 208.88)"/></g></svg>