<?xml version="1.0" encoding="UTF-8"?>
<!-- Created with Inkscape (http://www.inkscape.org/) -->
<svg width="132.5" height="132.5" version="1.1" viewBox="0 0 35.057 35.057" xmlns="http://www.w3.org/2000/svg">
 <g transform="translate(-10.816 -271.34)">
  <g transform="matrix(.26458 0 0 .26458 7.5953 271.74)">
   <path d="m80.15 101.8q5.75 0.65 10.5-1.95-1.75-1.6-4.7-1.5-4.05 0.1-5.8 3.45m26.85 2.1 0.65-0.45q-2-3.95-6.95-4.05-3.55-0.95-5.85 2.3 6.3 3 12.15 2.2m10.1 2q2.75-0.85 3.1-3.45l0.3-0.4q-2.8-2.35-6.25-2.4-3.05 0.45-3.95 5 2.6 2.35 6.8 1.25m-70.55-1.25q-0.9-4.55-3.95-5-3.45 0.05-6.25 2.4l0.3 0.4q0.35 2.6 3.1 3.45 4.2 1.1 6.8-1.25m2.65-1.2 0.65 0.45q5.85 0.8 12.15-2.2-2.3-3.25-5.85-2.3-4.95 0.1-6.95 4.05m17-3.6q4.75 2.6 10.5 1.95-1.75-3.35-5.8-3.45-2.95-0.1-4.7 1.5m-0.65-22.45-0.2 0.9q-0.3 9.55 4.7 9.45 5.5 0.8 6.85-9.7-5.7 0.35-11.35-0.65m-14.25-4.7q0 0.05 0 0.15-0.1 9.6 4.25 11.45 2.8 0.15 4.45-4.65 0.45-1.4 0.85-3.25-0.05-0.05 0-0.05 0-0.15 0.05-0.25v-0.05q-3.55-2.15-7.1-3.3-1.15-0.4-2.3-0.7l-0.2 0.65m-4-1.35q-1.15-0.15-2.3-0.15-3.75 0.15-6.7 1.3 2.85 8.5 6.15 9.95 3.1 0.75 2.85-11 0-0.05 0-0.1m44.2 6.95-0.2-0.9q-5.65 1-11.35 0.65 1.35 10.5 6.85 9.7 5 0.1 4.7-9.45m18.05-6.95q0 0.05 0 0.1-0.25 11.75 2.85 11 3.3-1.45 6.15-9.95-2.95-1.15-6.7-1.3-1.15 0-2.3 0.15m-4 1.35-0.2-0.65q-1.15 0.3-2.3 0.7-3.55 1.15-7.1 3.3v0.05q0.05 0.1 0.05 0.25 0.05 0 0 0.05 0.4 1.85 0.85 3.25 1.65 4.8 4.45 4.65 4.35-1.85 4.25-11.45 0-0.1 0-0.15z" fill="#fff"/>
   <path d="m109.1 110.15q-0.1-4.15-1.4-6.7l-0.7 0.45q-5.85 0.8-12.15-2.2-1 1.4-1.75 3.7-0.25 0.8-0.5 1.75 1.55 0.25 3.15 0.55l1 0.2 12.35 2.25m11.1-7.7q-0.35 2.6-3.1 3.45-4.2 1.1-6.8-1.25-0.4 2.25-0.3 5.5 0 0.1 0 0.2l10.3 2.7q3.3-0.9 5.35-3.45-2.2-5.1-5.15-7.55l-0.3 0.4m-73.35 7.9q0-0.1 0-0.2 0.1-3.25-0.3-5.5-2.6 2.35-6.8 1.25-2.75-0.85-3.1-3.45l-0.3-0.4q-2.95 2.45-5.15 7.55 2.05 2.55 5.35 3.45l10.3-2.7m17.4-3.2q-0.25-0.95-0.5-1.75-0.75-2.3-1.75-3.7-6.3 3-12.15 2.2l-0.7-0.45q-1.3 2.55-1.4 6.7l12.35-2.25 1-0.2q1.6-0.3 3.15-0.55m13.55-1.05q-0.25-2.6-1.1-4.3-5.75 0.65-10.5-1.95-1.95 1.75-2.45 5.55 0.25 0.8 0.5 1.75 6.9-1.1 13.55-1.05m2.35-4.3q-0.85 1.7-1.1 4.3 6.65-0.05 13.55 1.05 0.25-0.95 0.5-1.75-0.5-3.8-2.45-5.55-4.75 2.6-10.5 1.95m-1.8-20.85q0.05-1.35-0.05-2.9h-1.4q-1.35 10.5-6.85 9.7-5 0.1-4.7-9.45l0.2-0.9q-1.4-0.25-2.8-0.6-0.05 1.7 0.05 3.2v0.05q0.55 10.35 7.65 10.2 7.5-0.1 7.9-9.3m-28.9-8.3q0 0.1 0 0.2-0.1 2.55 0.05 4.65v0.05q0.6 9.1 5.45 9.65 7.5 0.85 6.75-7.05-0.15-1.35-0.5-2.9-0.1-0.45-0.2-0.85l-0.05-0.05q-0.05-0.15-0.05-0.25-0.05 0.1-0.05 0.25-0.05 0 0 0.05-0.4 1.85-0.85 3.25-1.65 4.8-4.45 4.65-4.35-1.85-4.25-11.45 0-0.1 0-0.15l-1.85-0.05m-14.3 1.5 0.9 1.2q5.75 13.1 10.5 11.35 2.95-1.2 2.5-9.15-0.1-2.15-0.45-4.7-0.1-0.7-0.2-1.4h-1.1q0.25 11.75-2.85 11-3.3-1.45-6.15-9.95-1.7 0.65-3.15 1.65m56.15 3.25 0.2 0.9q0.3 9.55-4.7 9.45-5.5 0.8-6.85-9.7h-1.65q0.1 1.55 0.05 2.9 0.6 9.15 8.05 9.3 7.1 0.15 7.65-10.2v-0.05q0.1-1.5 0.05-3.2-1.4 0.35-2.8 0.6m17.4-5.95q-0.15 0-0.25 0-0.1 0.7-0.2 1.4-0.35 2.55-0.45 4.7-0.45 7.95 2.5 9.15 4.75 1.75 10.5-11.35l0.9-1.2q-1.45-1-3.15-1.65-2.85 8.5-6.15 9.95-3.1 0.75-2.85-11h-0.85m-3.15 1.25q0 0.05 0 0.15 0.1 9.6-4.25 11.45-2.8 0.15-4.45-4.65-0.45-1.4-0.85-3.25 0.05-0.05 0-0.05 0-0.15-0.05-0.25 0 0.1-0.05 0.25l-0.05 0.05q-0.1 0.4-0.2 0.85-0.35 1.55-0.5 2.9-0.75 7.9 6.75 7.05 4.85-0.55 5.45-9.65v-0.05q0.15-2.1 0.05-4.65 0-0.1 0-0.2z" fill="#ddd"/>
   <path d="m95.15 80.15-1.1-0.1q-0.55 10.35-7.65 10.2-7.45-0.15-8.05-9.3-0.4 9.2-7.9 9.3-7.1 0.15-7.65-10.2l-1.1 0.1q0.75 7.9-6.75 7.05-4.85-0.55-5.45-9.65h-0.45q0.45 7.95-2.5 9.15-4.75 1.75-10.5-11.35l-0.95-1.15q-7 4.85-7.65 17.65-0.6 12.45 3.75 17.75 2.2-5.1 5.15-7.55 2.8-2.35 6.25-2.4 3.05 0.45 3.95 5 0.4 2.25 0.3 5.5 0 0.1 0 0.2l0.9-0.2q0.1-4.15 1.4-6.7h0.05q2-3.95 6.95-4.05 3.55-0.95 5.85 2.3 1 1.4 1.75 3.7 0.5-3.8 2.45-5.55 1.75-1.6 4.7-1.5 4.05 0.1 5.8 3.45 0.85 1.7 1.1 4.3h1.25q0.25-2.6 1.1-4.3 1.75-3.35 5.8-3.45 2.95-0.1 4.7 1.5 1.95 1.75 2.45 5.55 0.75-2.3 1.75-3.7 2.3-3.25 5.85-2.3 4.95 0.1 6.95 4.05h0.05q1.3 2.55 1.4 6.7l0.9 0.2q0-0.1 0-0.2-0.1-3.25 0.3-5.5 0.9-4.55 3.95-5 3.45 0.05 6.25 2.4 2.95 2.45 5.15 7.55 4.35-5.3 3.75-17.75-0.65-12.8-7.65-17.65 0-0.05-0.05-0.05l-0.9 1.2q-5.75 13.1-10.5 11.35-2.95-1.2-2.5-9.15h-0.45q-0.6 9.1-5.45 9.65-7.5 0.85-6.75-7.05z"/>
   <g fill="none" stroke="#000" stroke-linecap="round" stroke-miterlimit="3">
    <path d="m105.5 72q0.9-0.2 1.7-0.35 0.65-0.1 1.25-0.2 0.1 0 0.25 0 0.45-0.1 0.85-0.1 1.15-0.15 2.3-0.15 3.75 0.15 6.7 1.3 1.7 0.65 3.15 1.65 0.05 0 0.05 0.05 7 4.85 7.65 17.65 0.6 12.45-3.75 17.75-2.05 2.55-5.35 3.45-0.85 0.2-1.8 0.3-4.2 0.75-14.65-3.7-3.6-1-7.1-1.75l-1-0.2q-1.6-0.3-3.15-0.55-6.9-1.1-13.55-1.05m-1.25 0q-6.65-0.05-13.55 1.05-1.55 0.25-3.15 0.55l-1 0.2q-3.5 0.75-7.1 1.75-10.45 4.45-14.65 3.7-0.95-0.1-1.8-0.3-3.3-0.9-5.35-3.45-4.35-5.3-3.75-17.75 0.65-12.8 7.65-17.65 0-0.05 0.05-0.05 1.45-1 3.15-1.65 2.95-1.15 6.7-1.3 1.15 0 2.3 0.15 0.4 0 0.85 0.1h0.25q0.6 0.1 1.25 0.2 0.8 0.15 1.7 0.35m0.15 0.05q1.15 0.3 2.3 0.7 3.55 1.15 7.1 3.3 0.45 0.25 0.85 0.5 0.25 0.05 0.5 0.15 0.2 0.05 0.4 0.1h0.1q1.4 0.35 2.8 0.6 5.65 1 11.35 0.65 0.7-0.05 1.4-0.1m0.25 0q0.7 0.05 1.4 0.1 5.7 0.35 11.35-0.65 1.4-0.25 2.8-0.6h0.1q0.2-0.05 0.4-0.1 0.25-0.1 0.5-0.15 0.4-0.25 0.85-0.5 3.55-2.15 7.1-3.3 1.15-0.4 2.3-0.7" stroke-width="3.5"/>
    <path d="m78.3 77.95q0 0.05 0 0.1 0.25-0.05 0.25-0.1m17.4-1.85q0 0.1-0.05 0.25l-0.05 0.05q-0.1 0.4-0.2 0.85-0.35 1.55-0.5 2.9-0.75 7.9 6.75 7.05 4.85-0.55 5.45-9.65v-0.05q0.15-2.1 0.05-4.65 0-0.1 0-0.2m0.4 4.9q0.1-2.15 0.45-4.7 0.1-0.7 0.2-1.4m-12.5 4.65v-0.05m-1.9 4q-0.55 10.35-7.65 10.2-7.45-0.15-8.05-9.3-0.4 9.2-7.9 9.3-7.1 0.15-7.65-10.2m-1.1 0.1q0.75 7.9-6.75 7.05-4.85-0.55-5.45-9.65m-0.45 0q0.45 7.95-2.5 9.15-4.75 1.75-10.5-11.35m58.05 1.45q0.05 1.7-0.05 3.2v0.05m26.75-4.7q-5.75 13.1-10.5 11.35-2.95-1.2-2.5-9.15m-58.35-4.9q0 0.1 0 0.2-0.1 2.55 0.05 4.65v0.05m-0.45 0q-0.1-2.15-0.45-4.7-0.1-0.7-0.2-1.4m12.5 4.65v-0.05m17.45 4.9q0.05-1.35-0.05-2.9m-16.6 2.1q-0.15-1.35-0.5-2.9-0.1-0.45-0.2-0.85l-0.05-0.05q-0.05-0.15-0.05-0.25m1.85 0.7q-0.05 1.7 0.05 3.2v0.05m17.35 21.75q-0.85 1.7-1.1 4.3m-2.35-4.3q0.85 1.7 1.1 4.3m-13.55 1.05q-0.25-0.95-0.5-1.75-0.75-2.3-1.75-3.7m1.75 3.7q0.5-3.8 2.45-5.55 1.75-1.6 4.7-1.5 4.05 0.1 5.8 3.45m-27.55 1.65q-1.3 2.55-1.4 6.7l12.35-2.25m-10.95-4.45h0.05q2-3.95 6.95-4.05 3.55-0.95 5.85 2.3m-15.15 8.65q0-0.1 0-0.2 0.1-3.25-0.3-5.5m-10.2-2.6q-2.95 2.45-5.15 7.55m15.35-4.95q-0.9-4.55-3.95-5-3.45 0.05-6.25 2.4m11.4 8.1-0.9 0.2-10.3 2.7m73.75-8.4q-0.4 2.25-0.3 5.5 0 0.1 0 0.2l10.3 2.7m-10-8.4q0.9-4.55 3.95-5 3.45 0.05 6.25 2.4 2.95 2.45 5.15 7.55m-16.55 0.55 0.9 0.2m-2.35-6.9h0.05q1.3 2.55 1.4 6.7l-12.35-2.25m-4.15-0.75q0.25-0.95 0.5-1.75 0.75-2.3 1.75-3.7m-1.75 3.7q-0.5-3.8-2.45-5.55m-10.5 1.95q1.75-3.35 5.8-3.45 2.95-0.1 4.7 1.5m17 3.6q-2-3.95-6.95-4.05-3.55-0.95-5.85 2.3" stroke-width="2"/>
    <path d="m105.55 72.7q0-0.35-0.05-0.65v-0.05m-54.15 0v0.05q-0.05 0.3-0.05 0.65"/>
   </g>
  </g>
 </g>
</svg>
